InterThaiLooped-Roman.glyphspackage
{
glyphname = quotedbl;
kernLeft = quotedbl;
kernRight = quotedbl;
layers = (
{
layerId = "C698F293-3EC0-4A5A-A3A0-0FDB1F5CF265";
shapes = (
{
closed = 1;
nodes = (
(324,984,l),
(344,1490,l),
(176,1490,l),
(196,984,l)
);
},
{
closed = 1;
nodes = (
(630,984,l),
(650,1490,l),
(482,1490,l),
(502,984,l)
);
}
);
width = 826;
},
{
layerId = "5C20EF92-B63D-42A8-8878-93C2863E0093";
shapes = (
{
closed = 1;
nodes = (
(435,880,l),
(470,1490,l),
(116,1490,l),
(151,880,l)
);
},
{
closed = 1;
nodes = (
(937,880,l),
(972,1490,l),
(618,1490,l),
(653,880,l)
);
}
);
width = 1088;
},
{
layerId = "B1F27B51-9973-4381-9301-4FE46FE1CA59";
shapes = (
{
closed = 1;
nodes = (
(144,1056,l),
(148,1490,l),
(100,1490,l),
(104,1056,l)
);
},
{
closed = 1;
nodes = (
(328,1056,l),
(332,1490,l),
(284,1490,l),
(288,1056,l)
);
}
);
width = 432;
}
);
metricLeft = quotesingle;
metricRight = quotesingle;
note = "space in between:
100 D: 2.5x
100 T: 3.25x
400: 1x
900: 0.5x";
unicode = 34;
userData = {
interface.gridadjust.original = "{'width': 1152, 'leftMargin': 256, 'rightMargin': 256}";
"interface.width-adjustments" = (
-16
);
};
}
{
glyphname = "koKai-thai";
kernLeft = "koKai-thai";
kernRight = "koKai-thai";
layers = (
{
anchors = (
{
name = bottom;
pos = (1004,0);
},
{
name = top;
pos = (990,1174);
}
);
layerId = "B1F27B51-9973-4381-9301-4FE46FE1CA59";
shapes = (
{
closed = 1;
nodes = (
(254,0,l),
(254,472,ls),
(254,634,o),
(314,718,o),
(420,702,cs),
(472,694,l),
(472,738,l),
(158,784,l),
(194,740,l),
(194,786,ls),
(194,1006,o),
(342,1146,o),
(576,1146,cs),
(808,1146,o),
(958,1006,o),
(958,786,cs),
(958,0,l),
(1004,0,l),
(1004,786,ls),
(1004,1034,o),
(836,1192,o),
(576,1192,cs),
(316,1192,o),
(150,1034,o),
(150,786,cs),
(150,740,l),
(308,718,l),
(308,710,l),
(244,684,o),
(208,600,o),
(208,472,cs),
(208,0,l)
);
}
);
width = 1198;
},
{
anchors = (
{
name = bottom;
pos = (1082,0);
},
{
name = top;
pos = (1068,1174);
}
);
layerId = "C698F293-3EC0-4A5A-A3A0-0FDB1F5CF265";
shapes = (
{
closed = 1;
nodes = (
(350,0,l),
(350,400,ls),
(350,552,o),
(410,628,o),
(514,616,cs),
(568,610,l),
(568,744,l),
(254,782,l),
(276,680,l),
(276,726,ls),
(276,920,o),
(402,1042,o),
(602,1042,cs),
(790,1042,o),
(910,936,o),
(910,768,cs),
(910,0,l),
(1082,0,l),
(1082,766,ls),
(1082,1028,o),
(894,1198,o),
(602,1198,cs),
(298,1198,o),
(106,1012,o),
(106,718,cs),
(106,672,l),
(330,646,l),
(330,634,l),
(226,604,o),
(178,522,o),
(178,380,cs),
(178,0,l)
);
}
);
width = 1246;
},
{
anchors = (
{
name = bottom;
pos = (1234,0);
},
{
name = top;
pos = (1220,1174);
}
);
layerId = "5C20EF92-B63D-42A8-8878-93C2863E0093";
shapes = (
{
closed = 1;
nodes = (
(510,0,l),
(510,456,ls),
(510,506,o),
(536,534,o),
(584,534,cs),
(632,534,l),
(632,752,l),
(380,752,l),
(450,682,l),
(450,728,ls),
(450,832,o),
(518,892,o),
(638,892,cs),
(762,892,o),
(832,832,o),
(832,728,cs),
(832,0,l),
(1234,0,l),
(1234,756,ls),
(1234,1026,o),
(1008,1198,o),
(654,1198,cs),
(292,1198,o),
(62,1012,o),
(62,722,cs),
(62,636,l),
(264,636,l),
(264,624,l),
(158,594,o),
(106,520,o),
(106,400,cs),
(106,0,l)
);
}
);
width = 1330;
}
);
unicode = 3585;
}
{
glyphname = "khoKhai-thai";
kernLeft = "khoKhai-thai";
kernRight = "boBaimai-thai";
layers = (
{
anchors = (
{
name = bottom;
pos = (812,0);
},
{
name = top;
pos = (826,1174);
}
);
layerId = "B1F27B51-9973-4381-9301-4FE46FE1CA59";
shapes = (
{
closed = 1;
nodes = (
(746,-14,o),
(826,58,o),
(826,266,cs),
(826,1174,l),
(780,1174,l),
(780,266,ls),
(780,92,o),
(712,30,o),
(520,30,cs),
(328,30,o),
(258,92,o),
(258,266,cs),
(258,424,ls),
(258,542,o),
(280,616,o),
(338,712,cs),
(402,814,o),
(420,884,o),
(420,1004,cs),
(420,1116,o),
(360,1188,o),
(268,1188,cs),
(180,1188,o),
(120,1114,o),
(120,1010,cs),
(120,906,o),
(176,834,o),
(264,834,cs),
(324,834,o),
(372,870,o),
(388,926,c),
(372,926,l),
(372,872,o),
(352,822,o),
(298,734,cs),
(232,626,o),
(212,554,o),
(212,424,cs),
(212,266,ls),
(212,58,o),
(294,-14,o),
(520,-14,cs)
);
},
{
closed = 1;
nodes = (
(206,878,o),
(162,932,o),
(162,1010,cs),
(162,1088,o),
(206,1144,o),
(268,1144,cs),
(330,1144,o),
(374,1088,o),
(374,1010,cs),
(374,932,o),
(330,878,o),
(268,878,cs)
);
}
);
width = 1024;
},
{
anchors = (
{
name = bottom;
pos = (922,0);
},
{
name = top;
pos = (936,1174);
}
);
layerId = "C698F293-3EC0-4A5A-A3A0-0FDB1F5CF265";
shapes = (
{
closed = 1;
nodes = (
(838,-14,o),
(936,70,o),
(936,310,cs),
(936,1174,l),
(766,1174,l),
(766,328,ls),
(766,180,o),
(718,136,o),
(562,136,cs),
(406,136,o),
(358,180,o),
(358,328,cs),
(358,424,ls),
(358,542,o),
(376,614,o),
(426,694,cs),
(490,800,o),
(520,884,o),
(520,968,cs),
(520,1096,o),
(430,1188,o),
(304,1188,cs),
(182,1188,o),
(94,1098,o),
(94,976,cs),
(94,852,o),
(182,766,o),
(304,766,cs),
(382,766,o),
(446,796,o),
(476,850,c),
(350,850,l),
(338,820,o),
(322,792,o),
(290,746,cs),
(212,632,o),
(190,558,o),
(190,424,cs),
(190,310,ls),
(190,70,o),
(288,-14,o),
(562,-14,cs)
);
},
{
closed = 1;
nodes = (
(254,868,o),
(216,912,o),
(216,974,cs),
(216,1036,o),
(254,1078,o),
(302,1078,cs),
(350,1078,o),
(386,1036,o),
(386,974,cs),
(386,912,o),
(350,868,o),
(302,868,cs)
);
}
);
width = 1102;
},
{
anchors = (
{
name = bottom;
pos = (1114,0);
},
{
name = top;
pos = (1128,1174);
}
);
layerId = "5C20EF92-B63D-42A8-8878-93C2863E0093";
shapes = (
{
closed = 1;
nodes = (
(990,-18,o),
(1128,86,o),
(1128,368,cs),
(1128,1174,l),
(726,1174,l),
(726,398,ls),
(726,316,o),
(696,288,o),
(608,288,cs),
(522,288,o),
(490,312,o),
(490,382,cs),
(490,462,ls),
(490,552,o),
(506,616,o),
(546,708,cs),
(582,788,o),
(600,862,o),
(600,930,cs),
(600,1082,o),
(484,1192,o),
(326,1192,cs),
(170,1192,o),
(58,1086,o),
(58,940,cs),
(58,800,o),
(164,698,o),
(310,698,cs),
(382,698,o),
(452,754,o),
(474,804,c),
(282,804,l),
(268,770,o),
(248,744,o),
(196,688,cs),
(124,608,o),
(98,546,o),
(98,446,cs),
(98,354,ls),
(98,82,o),
(236,-18,o),
(608,-18,cs)
);
},
{
closed = 1;
nodes = (
(272,862,o),
(248,896,o),
(248,942,cs),
(248,988,o),
(272,1020,o),
(308,1020,cs),
(342,1020,o),
(366,988,o),
(366,942,cs),
(366,896,o),
(342,862,o),
(308,862,cs)
);
}
);
width = 1228;
}
);
metricRight = "boBaimai-thai";
unicode = 3586;
}
{
glyphname = "khoKhuat-thai";
kernLeft = "khoKhuat-thai";
kernRight = "boBaimai-thai";
layers = (
{
anchors = (
{
name = bottom;
pos = (834,0);
},
{
name = top;
pos = (850,1174);
}
);
layerId = "B1F27B51-9973-4381-9301-4FE46FE1CA59";
shapes = (
{
closed = 1;
nodes = (
(768,-14,o),
(850,58,o),
(850,266,cs),
(850,1174,l),
(802,1174,l),
(802,266,ls),
(802,92,o),
(732,30,o),
(538,30,cs),
(344,30,o),
(274,92,o),
(274,266,cs),
(274,410,ls),
(274,516,o),
(290,568,o),
(362,668,cs),
(454,796,o),
(478,858,o),
(478,974,cs),
(478,1174,l),
(434,1174,l),
(434,1150,ls),
(434,1036,o),
(366,930,o),
(286,910,c),
(294,904,l),
(328,922,o),
(348,966,o),
(348,1018,cs),
(348,1116,o),
(290,1188,o),
(206,1188,cs),
(122,1188,o),
(62,1116,o),
(62,1018,cs),
(62,920,o),
(122,848,o),
(208,848,cs),
(302,848,o),
(378,898,o),
(426,988,c),
(432,988,l),
(432,870,o),
(410,812,o),
(324,692,cs),
(246,580,o),
(226,526,o),
(226,410,cs),
(226,266,ls),
(226,58,o),
(308,-14,o),
(538,-14,cs)
);
},
{
closed = 1;
nodes = (
(148,892,o),
(104,944,o),
(104,1018,cs),
(104,1092,o),
(148,1144,o),
(206,1144,cs),
(262,1144,o),
(304,1090,o),
(304,1018,cs),
(304,946,o),
(262,892,o),
(206,892,cs)
);
}
);
width = 1048;
},
{
anchors = (
{
name = bottom;
pos = (994,0);
},
{
name = top;
pos = (1010,1174);
}
);
layerId = "C698F293-3EC0-4A5A-A3A0-0FDB1F5CF265";
shapes = (
{
closed = 1;
nodes = (
(912,-14,o),
(1010,70,o),
(1010,310,cs),
(1010,1174,l),
(838,1174,l),
(838,328,ls),
(838,180,o),
(792,136,o),
(632,136,cs),
(472,136,o),
(424,180,o),
(424,328,cs),
(424,424,ls),
(424,538,o),
(442,596,o),
(512,686,cs),
(600,800,o),
(628,878,o),
(628,1004,cs),
(628,1174,l),
(478,1174,l),
(478,1118,ls),
(478,1016,o),
(426,970,o),
(318,970,c),
(356,882,l),
(388,912,o),
(404,956,o),
(404,1006,cs),
(404,1112,o),
(328,1188,o),
(222,1188,cs),
(114,1188,o),
(36,1110,o),
(36,1004,cs),
(36,898,o),
(118,822,o),
(234,822,cs),
(308,822,o),
(388,854,o),
(456,908,c),
(468,908,l),
(454,858,o),
(428,816,o),
(370,750,cs),
(280,650,o),
(254,574,o),
(254,424,cs),
(254,310,ls),
(254,70,o),
(354,-14,o),
(632,-14,cs)
);
},
{
closed = 1;
nodes = (
(182,912,o),
(152,950,o),
(152,1004,cs),
(152,1056,o),
(184,1094,o),
(226,1094,cs),
(268,1094,o),
(300,1056,o),
(300,1004,cs),
(300,950,o),
(268,912,o),
(226,912,cs)
);
}
);
width = 1176;
},
{
anchors = (
{
name = bottom;
pos = (1212,0);
},
{
name = top;
pos = (1226,1174);
}
);
layerId = "5C20EF92-B63D-42A8-8878-93C2863E0093";
shapes = (
{
closed = 1;
nodes = (
(1086,-18,o),
(1226,86,o),
(1226,368,cs),
(1226,1174,l),
(824,1174,l),
(824,398,ls),
(824,318,o),
(792,288,o),
(702,288,cs),
(614,288,o),
(580,312,o),
(580,382,cs),
(580,468,ls),
(580,586,o),
(598,666,o),
(646,776,cs),
(694,896,o),
(712,976,o),
(712,1094,cs),
(712,1174,l),
(508,1174,l),
(508,1118,ls),
(508,1028,o),
(482,986,o),
(414,956,c),
(454,884,l),
(476,914,o),
(488,948,o),
(488,980,cs),
(488,1100,o),
(390,1192,o),
(260,1192,cs),
(114,1192,o),
(14,1094,o),
(14,954,cs),
(14,824,o),
(110,730,o),
(240,730,cs),
(292,730,o),
(340,746,o),
(380,774,c),
(392,774,l),
(350,738,o),
(316,704,o),
(286,668,cs),
(220,590,o),
(190,506,o),
(190,404,cs),
(190,354,ls),
(190,82,o),
(328,-18,o),
(702,-18,cs)
);
},
{
closed = 1;
nodes = (
(210,894,o),
(186,922,o),
(186,964,cs),
(186,1006,o),
(210,1036,o),
(242,1036,cs),
(274,1036,o),
(296,1004,o),
(296,964,cs),
(296,924,o),
(274,894,o),
(242,894,cs)
);
}
);
width = 1326;
}
);
metricRight = "boBaimai-thai";
unicode = 3587;
}
{
glyphname = "khoKhwai-thai";
kernLeft = "khoKhwai-thai";
kernRight = "khoKhwai-thai";
layers = (
{
anchors = (
{
name = bottom;
pos = (1062,0);
},
{
name = top;
pos = (1048,1174);
}
);
layerId = "B1F27B51-9973-4381-9301-4FE46FE1CA59";
shapes = (
{
closed = 1;
nodes = (
(240,0,l),
(240,152,ls),
(240,370,o),
(390,634,o),
(548,696,c),
(554,712,l),
(512,680,o),
(496,642,o),
(496,586,cs),
(496,488,o),
(552,418,o),
(638,418,cs),
(722,418,o),
(780,488,o),
(780,586,cs),
(780,686,o),
(724,754,o),
(638,754,cs),
(482,754,o),
(328,610,o),
(246,378,c),
(240,378,l),
(240,750,ls),
(240,992,o),
(394,1146,o),
(634,1146,cs),
(866,1146,o),
(1016,992,o),
(1016,750,cs),
(1016,0,l),
(1062,0,l),
(1062,750,ls),
(1062,1020,o),
(896,1192,o),
(634,1192,cs),
(364,1192,o),
(194,1020,o),
(194,750,cs),
(194,0,l)
);
},
{
closed = 1;
nodes = (
(580,462,o),
(540,514,o),
(540,586,cs),
(540,658,o),
(580,712,o),
(638,712,cs),
(694,712,o),
(736,658,o),
(736,586,cs),
(736,512,o),
(694,462,o),
(638,462,cs)
);
}
);
width = 1256;
},
{
anchors = (
{
name = bottom;
pos = (1138,0);
},
{
name = top;
pos = (1122,1174);
}
);
layerId = "C698F293-3EC0-4A5A-A3A0-0FDB1F5CF265";
shapes = (
{
closed = 1;
nodes = (
(334,0,l),
(334,140,ls),
(334,320,o),
(404,486,o),
(520,578,c),
(504,642,l),
(490,626,o),
(482,606,o),
(482,584,cs),
(482,476,o),
(560,398,o),
(664,398,cs),
(770,398,o),
(846,476,o),
(846,584,cs),
(846,696,o),
(764,780,o),
(654,780,cs),
(538,780,o),
(426,688,o),
(344,528,c),
(332,528,l),
(332,750,ls),
(332,928,o),
(456,1042,o),
(650,1042,cs),
(844,1042,o),
(968,928,o),
(968,750,cs),
(968,0,l),
(1138,0,l),
(1138,768,ls),
(1138,1030,o),
(948,1198,o),
(650,1198,cs),
(354,1198,o),
(164,1030,o),
(164,768,cs),
(164,0,l)
);
},
{
closed = 1;
nodes = (
(614,492,o),
(584,530,o),
(584,584,cs),
(584,638,o),
(614,676,o),
(660,676,cs),
(704,676,o),
(736,638,o),
(736,584,cs),
(736,530,o),
(704,492,o),
(660,492,cs)
);
}
);
width = 1302;
},
{
anchors = (
{
name = bottom;
pos = (1272,0);
},
{
name = top;
pos = (1258,1174);
}
);
layerId = "5C20EF92-B63D-42A8-8878-93C2863E0093";
shapes = (
{
closed = 1;
nodes = (
(484,0,l),
(484,68,ls),
(484,238,o),
(516,362,o),
(578,432,c),
(562,484,l),
(548,466,o),
(538,436,o),
(538,414,cs),
(538,344,o),
(616,290,o),
(716,290,cs),
(838,290,o),
(928,384,o),
(928,510,cs),
(928,642,o),
(836,738,o),
(710,738,cs),
(590,738,o),
(502,658,o),
(474,526,c),
(462,526,l),
(462,702,ls),
(462,822,o),
(542,892,o),
(682,892,cs),
(814,892,o),
(898,812,o),
(898,686,cs),
(898,0,l),
(1272,0,l),
(1272,708,ls),
(1272,1010,o),
(1050,1198,o),
(690,1198,cs),
(330,1198,o),
(96,1004,o),
(96,708,cs),
(96,0,l)
);
},
{
closed = 1;
nodes = (
(664,440,o),
(642,468,o),
(642,510,cs),
(642,552,o),
(664,582,o),
(696,582,cs),
(728,582,o),
(750,552,o),
(750,510,cs),
(750,468,o),
(728,440,o),
(696,440,cs)
);
}
);
width = 1368;
},
{
anchors = (
{
name = bottom;
pos = (1218,0);
},
{
name = top;
pos = (1204,1174);
}
);
associatedMasterId = "5C20EF92-B63D-42A8-8878-93C2863E0093";
attr = {
coordinates = (
700
);
};
background = {
shapes = (
{
closed = 1;
nodes = (
(424,0,l),
(424,106,ls),
(424,264,o),
(474,386,o),
(556,464,c),
(530,550,l),
(514,530,o),
(510,508,o),
(510,486,cs),
(510,382,o),
(584,308,o),
(690,308,cs),
(804,308,o),
(890,394,o),
(890,514,cs),
(890,638,o),
(804,728,o),
(684,728,cs),
(572,728,o),
(474,652,o),
(422,522,c),
(410,522,l),
(410,704,ls),
(410,848,o),
(512,942,o),
(670,942,cs),
(828,942,o),
(926,848,o),
(926,704,cs),
(926,0,l),
(1218,0,l),
(1218,728,ls),
(1218,1016,o),
(1006,1198,o),
(670,1198,cs),
(336,1198,o),
(124,1016,o),
(124,728,cs),
(124,0,l)
);
},
{
closed = 1;
nodes = (
(644,434,o),
(618,468,o),
(618,514,cs),
(618,560,o),
(644,594,o),
(682,594,cs),
(718,594,o),
(744,560,o),
(744,514,cs),
(744,468,o),
(718,434,o),
(682,434,cs)
);
}
);
};
layerId = "3D4A9710-9D5B-4FC0-9DAC-526D0E7DF50D";
name = "Bold{700,0}";
shapes = (
{
closed = 1;
nodes = (
(424,0,l),
(424,96,ls),
(424,270,o),
(474,412,o),
(556,490,c),
(538,546,l),
(522,528,o),
(516,502,o),
(516,482,cs),
(516,394,o),
(596,334,o),
(694,334,cs),
(808,334,o),
(894,420,o),
(894,540,cs),
(894,662,o),
(808,754,o),
(688,754,cs),
(576,754,o),
(474,678,o),
(422,528,c),
(410,528,l),
(410,720,ls),
(410,866,o),
(512,952,o),
(670,952,cs),
(828,952,o),
(926,858,o),
(926,712,cs),
(926,0,l),
(1218,0,l),
(1218,732,ls),
(1218,1016,o),
(1010,1198,o),
(674,1198,cs),
(340,1198,o),
(124,1016,o),
(124,732,cs),
(124,0,l)
);
},
{
closed = 1;
nodes = (
(644,460,o),
(618,494,o),
(618,540,cs),
(618,586,o),
(644,620,o),
(682,620,cs),
(718,620,o),
(744,586,o),
(744,540,cs),
(744,492,o),
(718,460,o),
(682,460,cs)
);
}
);
width = 1342;
},
{
anchors = (
{
name = bottom;
pos = (1246,0);
},
{
name = top;
pos = (1232,1174);
}
);
associatedMasterId = "5C20EF92-B63D-42A8-8878-93C2863E0093";
attr = {
coordinates = (
800
);
};
background = {
shapes = (
{
closed = 1;
nodes = (
(424,0,l),
(424,106,ls),
(424,264,o),
(474,386,o),
(556,464,c),
(530,550,l),
(514,530,o),
(510,508,o),
(510,486,cs),
(510,382,o),
(584,308,o),
(690,308,cs),
(804,308,o),
(890,394,o),
(890,514,cs),
(890,638,o),
(804,728,o),
(684,728,cs),
(572,728,o),
(474,652,o),
(422,522,c),
(410,522,l),
(410,704,ls),
(410,848,o),
(512,942,o),
(670,942,cs),
(828,942,o),
(926,848,o),
(926,704,cs),
(926,0,l),
(1218,0,l),
(1218,728,ls),
(1218,1016,o),
(1006,1198,o),
(670,1198,cs),
(336,1198,o),
(124,1016,o),
(124,728,cs),
(124,0,l)
);
},
{
closed = 1;
nodes = (
(644,434,o),
(618,468,o),
(618,514,cs),
(618,560,o),
(644,594,o),
(682,594,cs),
(718,594,o),
(744,560,o),
(744,514,cs),
(744,468,o),
(718,434,o),
(682,434,cs)
);
}
);
};
layerId = "E34D140A-856F-446D-BD05-698FFF2D95F6";
name = "ExtraBold{800,0}";
shapes = (
{
closed = 1;
nodes = (
(456,0,l),
(456,82,ls),
(456,254,o),
(500,390,o),
(582,462,c),
(564,530,l),
(548,508,o),
(542,482,o),
(542,464,cs),
(542,376,o),
(616,312,o),
(720,312,cs),
(840,312,o),
(926,404,o),
(926,526,cs),
(926,654,o),
(838,746,o),
(712,746,cs),
(588,746,o),
(484,656,o),
(448,514,c),
(436,514,l),
(436,712,ls),
(436,848,o),
(530,922,o),
(676,922,cs),
(820,922,o),
(914,836,o),
(914,700,cs),
(914,0,l),
(1246,0,l),
(1246,722,ls),
(1246,1012,o),
(1030,1198,o),
(682,1198,cs),
(336,1198,o),
(110,1012,o),
(110,722,cs),
(110,0,l)
);
},
{
closed = 1;
nodes = (
(668,450,o),
(644,482,o),
(644,526,cs),
(644,570,o),
(668,600,o),
(704,600,cs),
(736,600,o),
(762,570,o),
(762,526,cs),
(762,480,o),
(736,450,o),
(704,450,cs)
);
}
);
width = 1356;
}
);
metricRight = "=|";
unicode = 3588;
}
{
glyphname = "khoKhon-thai";
kernLeft = "khoKhon-thai";
kernRight = "khoKhon-thai";
layers = (
{
anchors = (
{
name = bottom;
pos = (1080,0);
},
{
name = top;
pos = (1064,1174);
}
);
layerId = "B1F27B51-9973-4381-9301-4FE46FE1CA59";
shapes = (
{
closed = 1;
nodes = (
(242,0,l),
(242,152,ls),
(242,364,o),
(394,618,o),
(552,680,c),
(558,698,l),
(516,666,o),
(498,628,o),
(498,572,cs),
(498,474,o),
(556,402,o),
(642,402,cs),
(726,402,o),
(782,474,o),
(782,572,cs),
(782,672,o),
(726,740,o),
(640,740,cs),
(484,740,o),
(332,600,o),
(248,378,c),
(242,378,l),
(242,882,ls),
(242,1030,o),
(300,1114,o),
(418,1138,c),
(626,978,l),
(650,978,l),
(860,1138,l),
(978,1114,o),
(1032,1030,o),
(1032,882,cs),
(1032,0,l),
(1080,0,l),
(1080,882,ls),
(1080,1056,o),
(1008,1152,o),
(854,1188,c),
(642,1024,l),
(636,1024,l),
(422,1188,l),
(268,1152,o),
(196,1056,o),
(196,882,cs),
(196,0,l)
);
},
{
closed = 1;
nodes = (
(584,446,o),
(542,500,o),
(542,572,cs),
(542,644,o),
(584,696,o),
(642,696,cs),
(698,696,o),
(738,644,o),
(738,572,cs),
(738,498,o),
(698,446,o),
(642,446,cs)
);
}
);
width = 1276;
},
{
anchors = (
{
name = bottom;
pos = (1160,0);
},
{
name = top;
pos = (1144,1174);
}
);
layerId = "C698F293-3EC0-4A5A-A3A0-0FDB1F5CF265";
shapes = (
{
closed = 1;
nodes = (
(338,0,l),
(338,132,ls),
(338,304,o),
(416,480,o),
(534,574,c),
(518,626,l),
(504,610,o),
(498,592,o),
(498,570,cs),
(498,462,o),
(574,384,o),
(680,384,cs),
(784,384,o),
(860,462,o),
(860,570,cs),
(860,682,o),
(780,766,o),
(670,766,cs),
(550,766,o),
(426,668,o),
(346,510,c),
(334,510,l),
(334,822,ls),
(334,934,o),
(386,1002,o),
(476,1018,c),
(640,898,l),
(686,898,l),
(850,1018,l),
(938,1004,o),
(990,934,o),
(990,822,cs),
(990,0,l),
(1160,0,l),
(1160,818,ls),
(1160,1026,o),
(1046,1170,o),
(862,1188,c),
(670,1042,l),
(658,1042,l),
(466,1188,l),
(284,1170,o),
(168,1024,o),
(168,818,cs),
(168,0,l)
);
},
{
closed = 1;
nodes = (
(628,478,o),
(598,516,o),
(598,570,cs),
(598,624,o),
(628,662,o),
(674,662,cs),
(718,662,o),
(750,624,o),
(750,570,cs),
(750,516,o),
(718,478,o),
(674,478,cs)
);
}
);
width = 1328;
},
{
anchors = (
{
name = bottom;
pos = (1276,0);
},
{
name = top;
pos = (1258,1174);
}
);
layerId = "5C20EF92-B63D-42A8-8878-93C2863E0093";
shapes = (
{
closed = 1;
nodes = (
(488,0,l),
(488,68,ls),
(488,212,o),
(522,336,o),
(582,402,c),
(564,456,l),
(550,438,o),
(542,408,o),
(542,386,cs),
(542,316,o),
(618,262,o),
(718,262,cs),
(840,262,o),
(930,354,o),
(930,480,cs),
(930,612,o),
(838,708,o),
(712,708,cs),
(600,708,o),
(508,636,o),
(478,526,c),
(466,526,l),
(466,744,ls),
(466,816,o),
(500,862,o),
(558,872,c),
(668,792,l),
(704,792,l),
(814,872,l),
(870,864,o),
(902,818,o),
(902,744,cs),
(902,0,l),
(1276,0,l),
(1276,734,ls),
(1276,998,o),
(1130,1170,o),
(884,1192,c),
(690,1064,l),
(680,1064,l),
(486,1192,l),
(244,1170,o),
(98,1000,o),
(98,736,cs),
(98,0,l)
);
},
{
closed = 1;
nodes = (
(666,410,o),
(644,440,o),
(644,482,cs),
(644,524,o),
(666,552,o),
(698,552,cs),
(730,552,o),
(752,524,o),
(752,482,cs),
(752,440,o),
(730,410,o),
(698,410,cs)
);
}
);
width = 1374;
},
{
anchors = (
{
name = bottom;
pos = (1230,0);
},
{
name = top;
pos = (1214,1174);
}
);
associatedMasterId = "5C20EF92-B63D-42A8-8878-93C2863E0093";
attr = {
coordinates = (
700
);
};
background = {
shapes = (
{
closed = 1;
nodes = (
(428,0,l),
(428,98,ls),
(428,258,o),
(480,390,o),
(566,472,c),
(542,558,l),
(526,538,o),
(520,514,o),
(520,492,cs),
(520,388,o),
(596,314,o),
(702,314,cs),
(816,314,o),
(900,400,o),
(900,520,cs),
(900,644,o),
(814,736,o),
(694,736,cs),
(584,736,o),
(478,650,o),
(424,506,c),
(414,506,l),
(414,760,ls),
(414,850,o),
(454,904,o),
(524,916,c),
(656,818,l),
(696,818,l),
(828,916,l),
(898,906,o),
(936,850,o),
(936,760,cs),
(936,0,l),
(1230,0,l),
(1230,762,ls),
(1230,1000,o),
(1098,1166,o),
(874,1188,c),
(682,1054,l),
(670,1054,l),
(478,1188,l),
(254,1166,o),
(126,1000,o),
(126,762,cs),
(126,0,l)
);
},
{
closed = 1;
nodes = (
(656,442,o),
(628,474,o),
(628,520,cs),
(628,566,o),
(656,600,o),
(692,600,cs),
(728,600,o),
(754,566,o),
(754,520,cs),
(754,474,o),
(728,442,o),
(692,442,cs)
);
}
);
};
layerId = "FFFC2D9C-4151-4369-844A-078DBB18DF58";
name = "Bold{700,0}";
shapes = (
{
closed = 1;
nodes = (
(428,0,l),
(428,94,ls),
(428,248,o),
(480,394,o),
(562,472,c),
(546,524,l),
(532,506,o),
(524,480,o),
(524,460,cs),
(524,372,o),
(602,310,o),
(702,310,cs),
(816,310,o),
(902,396,o),
(902,516,cs),
(902,638,o),
(816,730,o),
(696,730,cs),
(586,730,o),
(476,654,o),
(424,520,c),
(414,520,l),
(414,774,ls),
(414,864,o),
(454,918,o),
(524,930,c),
(656,834,l),
(696,834,l),
(828,930,l),
(898,920,o),
(936,864,o),
(936,774,cs),
(936,0,l),
(1230,0,l),
(1230,768,ls),
(1230,1006,o),
(1100,1168,o),
(874,1190,c),
(682,1056,l),
(670,1056,l),
(478,1190,l),
(254,1168,o),
(126,1004,o),
(126,770,cs),
(126,0,l)
);
},
{
closed = 1;
nodes = (
(650,438,o),
(626,472,o),
(626,518,cs),
(626,564,o),
(650,596,o),
(688,596,cs),
(724,596,o),
(752,564,o),
(752,518,cs),
(752,470,o),
(724,438,o),
(688,438,cs)
);
}
);
width = 1356;
},
{
anchors = (
{
name = bottom;
pos = (1252,0);
},
{
name = top;
pos = (1236,1174);
}
);
associatedMasterId = "5C20EF92-B63D-42A8-8878-93C2863E0093";
attr = {
coordinates = (
800
);
};
background = {
shapes = (
{
closed = 1;
nodes = (
(428,0,l),
(428,98,ls),
(428,258,o),
(480,390,o),
(566,472,c),
(542,558,l),
(526,538,o),
(520,514,o),
(520,492,cs),
(520,388,o),
(596,314,o),
(702,314,cs),
(816,314,o),
(900,400,o),
(900,520,cs),
(900,644,o),
(814,736,o),
(694,736,cs),
(584,736,o),
(478,650,o),
(424,506,c),
(414,506,l),
(414,760,ls),
(414,850,o),
(454,904,o),
(524,916,c),
(656,818,l),
(696,818,l),
(828,916,l),
(898,906,o),
(936,850,o),
(936,760,cs),
(936,0,l),
(1230,0,l),
(1230,762,ls),
(1230,1000,o),
(1098,1166,o),
(874,1188,c),
(682,1054,l),
(670,1054,l),
(478,1188,l),
(254,1166,o),
(126,1000,o),
(126,762,cs),
(126,0,l)
);
},
{
closed = 1;
nodes = (
(656,442,o),
(628,474,o),
(628,520,cs),
(628,566,o),
(656,600,o),
(692,600,cs),
(728,600,o),
(754,566,o),
(754,520,cs),
(754,474,o),
(728,442,o),
(692,442,cs)
);
}
);
};
layerId = "F9660C86-D82E-4E28-A3BD-B5ECFEA272F2";
name = "ExtraBold{800,0}";
shapes = (
{
closed = 1;
nodes = (
(458,0,l),
(458,82,ls),
(458,224,o),
(498,362,o),
(588,438,c),
(570,490,l),
(554,468,o),
(546,442,o),
(546,424,cs),
(546,344,o),
(628,286,o),
(726,286,cs),
(842,286,o),
(932,372,o),
(932,498,cs),
(932,624,o),
(842,720,o),
(718,720,cs),
(608,720,o),
(492,648,o),
(450,524,c),
(440,524,l),
(440,760,ls),
(440,842,o),
(478,892,o),
(542,902,c),
(662,814,l),
(700,814,l),
(822,902,l),
(884,892,o),
(920,842,o),
(920,760,cs),
(920,0,l),
(1252,0,l),
(1252,750,ls),
(1252,998,o),
(1118,1168,o),
(880,1190,c),
(686,1060,l),
(674,1060,l),
(482,1190,l),
(244,1168,o),
(112,998,o),
(112,752,cs),
(112,0,l)
);
},
{
closed = 1;
nodes = (
(674,424,o),
(650,456,o),
(650,500,cs),
(650,544,o),
(674,574,o),
(708,574,cs),
(740,574,o),
(766,544,o),
(766,500,cs),
(766,454,o),
(740,424,o),
(708,424,cs)
);
}
);
width = 1366;
}
);
unicode = 3589;
}
{
glyphname = "khoRakhang-thai";
kernRight = "moMa-thai";
layers = (
{
anchors = (
{
name = bottom;
pos = (1010,0);
},
{
name = top;
pos = (1010,1174);
}
);
layerId = "B1F27B51-9973-4381-9301-4FE46FE1CA59";
shapes = (
{
closed = 1;
nodes = (
(1010,0,l),
(1010,1174,l),
(964,1174,l),
(964,126,l),
(986,126,l),
(956,240,o),
(742,314,o),
(372,338,c),
(386,312,l),
(386,410,ls),
(386,528,o),
(400,582,o),
(462,678,cs),
(536,794,o),
(556,852,o),
(556,974,cs),
(556,1174,l),
(510,1174,l),
(510,1150,ls),
(510,1036,o),
(444,930,o),
(364,910,c),
(370,904,l),
(404,922,o),
(424,968,o),
(424,1018,cs),
(424,1116,o),
(364,1188,o),
(280,1188,cs),
(196,1188,o),
(138,1116,o),
(138,1018,cs),
(138,920,o),
(198,848,o),
(284,848,cs),
(378,848,o),
(456,898,o),
(504,988,c),
(510,988,l),
(510,862,o),
(492,806,o),
(424,702,cs),
(356,594,o),
(338,536,o),
(338,410,cs),
(338,308,l),
(370,292,l),
(766,264,o),
(964,188,o),
(964,62,cs),
(964,0,l)
);
},
{
closed = 1;
nodes = (
(222,892,o),
(182,944,o),
(182,1018,cs),
(182,1092,o),
(222,1144,o),
(280,1144,cs),
(338,1144,o),
(382,1090,o),
(382,1018,cs),
(382,946,o),
(338,892,o),
(280,892,cs)
);
},
{
closed = 1;
nodes = (
(362,-14,o),
(426,62,o),
(426,172,cs),
(426,280,o),
(362,356,o),
(272,356,cs),
(180,356,o),
(116,280,o),
(116,172,cs),
(116,62,o),
(180,-14,o),
(272,-14,cs)
);
},
{
closed = 1;
nodes = (
(206,30,o),
(160,90,o),
(160,172,cs),
(160,254,o),
(208,312,o),
(272,312,cs),
(336,312,o),
(382,254,o),
(382,172,cs),
(382,90,o),
(336,30,o),
(272,30,cs)
);
}
);
width = 1212;
},
{
anchors = (
{
name = bottom;
pos = (1106,0);
},
{
name = top;
pos = (1106,1174);
}
);
layerId = "C698F293-3EC0-4A5A-A3A0-0FDB1F5CF265";
shapes = (
{
closed = 1;
nodes = (
(1106,0,l),
(1106,1174,l),
(934,1174,l),
(934,216,l),
(958,236,l),
(918,344,o),
(724,422,o),
(456,440,c),
(496,386,l),
(496,424,ls),
(496,542,o),
(514,594,o),
(578,686,cs),
(660,804,o),
(686,882,o),
(686,1004,cs),
(686,1174,l),
(536,1174,l),
(536,1118,ls),
(536,1016,o),
(484,970,o),
(376,970,c),
(414,882,l),
(446,912,o),
(462,956,o),
(462,1006,cs),
(462,1112,o),
(386,1188,o),
(280,1188,cs),
(172,1188,o),
(94,1110,o),
(94,1004,cs),
(94,898,o),
(176,822,o),
(292,822,cs),
(366,822,o),
(446,854,o),
(514,908,c),
(526,908,l),
(514,858,o),
(490,818,o),
(436,750,cs),
(350,642,o),
(328,570,o),
(328,424,cs),
(328,370,l),
(466,312,l),
(760,288,o),
(936,188,o),
(936,46,cs),
(936,0,l)
);
},
{
closed = 1;
nodes = (
(242,912,o),
(210,950,o),
(210,1004,cs),
(210,1056,o),
(244,1094,o),
(286,1094,cs),
(328,1094,o),
(358,1056,o),
(358,1004,cs),
(358,950,o),
(328,912,o),
(286,912,cs)
);
},
{
closed = 1;
nodes = (
(438,-14,o),
(528,74,o),
(528,208,cs),
(528,338,o),
(438,428,o),
(304,428,cs),
(170,428,o),
(80,338,o),
(80,208,cs),
(80,76,o),
(170,-14,o),
(304,-14,cs)
);
},
{
closed = 1;
nodes = (
(250,96,o),
(212,142,o),
(212,208,cs),
(212,272,o),
(252,320,o),
(304,320,cs),
(358,320,o),
(396,272,o),
(396,208,cs),
(396,142,o),
(358,96,o),
(304,96,cs)
);
}
);
width = 1278;
},
{
anchors = (
{
name = bottom;
pos = (1218,0);
},
{
name = top;
pos = (1218,1174);
}
);
layerId = "5C20EF92-B63D-42A8-8878-93C2863E0093";
shapes = (
{
closed = 1;
nodes = (
(1218,0,l),
(1218,1174,l),
(818,1174,l),
(818,296,l),
(874,334,l),
(850,404,o),
(726,454,o),
(556,466,c),
(606,360,l),
(606,468,ls),
(606,586,o),
(624,666,o),
(672,776,cs),
(720,896,o),
(738,976,o),
(738,1094,cs),
(738,1174,l),
(544,1174,l),
(544,1118,ls),
(544,1028,o),
(518,986,o),
(450,956,c),
(490,884,l),
(512,914,o),
(524,948,o),
(524,980,cs),
(524,1100,o),
(426,1192,o),
(296,1192,cs),
(150,1192,o),
(50,1094,o),
(50,954,cs),
(50,826,o),
(142,738,o),
(276,738,cs),
(330,738,o),
(378,750,o),
(416,774,c),
(430,774,l),
(384,738,o),
(352,714,o),
(312,680,cs),
(246,624,o),
(222,576,o),
(222,488,cs),
(222,436,l),
(494,226,l),
(702,208,o),
(832,130,o),
(832,24,cs),
(832,0,l)
);
},
{
closed = 1;
nodes = (
(246,894,o),
(222,922,o),
(222,964,cs),
(222,1006,o),
(246,1036,o),
(278,1036,cs),
(310,1036,o),
(332,1004,o),
(332,964,cs),
(332,924,o),
(310,894,o),
(278,894,cs)
);
},
{
closed = 1;
nodes = (
(486,-18,o),
(600,94,o),
(600,246,cs),
(600,392,o),
(486,498,o),
(328,498,cs),
(162,498,o),
(44,392,o),
(44,246,cs),
(44,94,o),
(162,-18,o),
(328,-18,cs)
);
},
{
closed = 1;
nodes = (
(292,162,o),
(266,198,o),
(266,246,cs),
(266,294,o),
(292,328,o),
(330,328,cs),
(364,328,o),
(392,294,o),
(392,246,cs),
(392,198,o),
(366,162,o),
(330,162,cs)
);
}
);
width = 1320;
}
);
metricRight = "moMa-thai";
unicode = 3590;
}
{
glyphname = "ngoNgu-thai";
kernLeft = "ngoNgu-thai";
layers = (
{
anchors = (
{
name = bottom;
pos = (792,0);
},
{
name = top;
pos = (792,1174);
}
);
layerId = "B1F27B51-9973-4381-9301-4FE46FE1CA59";
shapes = (
{
closed = 1;
nodes = (
(724,-14,o),
(792,68,o),
(792,216,cs),
(792,1010,ls),
(792,1114,o),
(726,1188,o),
(638,1188,cs),
(550,1188,o),
(490,1114,o),
(490,1010,cs),
(490,906,o),
(550,834,o),
(638,834,cs),
(698,834,o),
(744,866,o),
(760,924,c),
(744,924,l),
(744,216,ls),
(744,96,o),
(694,30,o),
(602,30,cs),
(524,30,o),
(470,76,o),
(424,182,cs),
(138,830,l),
(88,830,l),
(382,164,ls),
(438,38,o),
(502,-14,o),
(602,-14,cs)
);
},
{
closed = 1;
nodes = (
(576,878,o),
(534,932,o),
(534,1010,cs),
(534,1088,o),
(576,1144,o),
(638,1144,cs),
(700,1144,o),
(744,1088,o),
(744,1010,cs),
(744,932,o),
(700,878,o),
(638,878,cs)
);
}
);
width = 994;
},
{
anchors = (
{
name = bottom;
pos = (900,0);
},
{
name = top;
pos = (900,1174);
}
);
layerId = "C698F293-3EC0-4A5A-A3A0-0FDB1F5CF265";
shapes = (
{
closed = 1;
nodes = (
(804,-14,o),
(900,76,o),
(900,244,cs),
(900,968,ls),
(900,1096,o),
(812,1188,o),
(686,1188,cs),
(564,1188,o),
(476,1098,o),
(476,976,cs),
(476,850,o),
(564,760,o),
(686,760,cs),
(762,760,o),
(824,794,o),
(856,850,c),
(730,850,l),
(730,262,ls),
(730,176,o),
(694,136,o),
(618,136,cs),
(550,136,o),
(508,172,o),
(472,258,cs),
(242,800,l),
(58,800,l),
(318,202,ls),
(386,46,o),
(472,-14,o),
(624,-14,cs)
);
},
{
closed = 1;
nodes = (
(634,868,o),
(598,912,o),
(598,974,cs),
(598,1036,o),
(634,1078,o),
(682,1078,cs),
(730,1078,o),
(766,1036,o),
(766,974,cs),
(766,912,o),
(730,868,o),
(682,868,cs)
);
}
);
width = 1068;
},
{
anchors = (
{
name = bottom;
pos = (1048,0);
},
{
name = top;
pos = (1048,1174);
}
);
layerId = "5C20EF92-B63D-42A8-8878-93C2863E0093";
shapes = (
{
closed = 1;
nodes = (
(912,-18,o),
(1048,88,o),
(1048,306,cs),
(1048,926,ls),
(1048,1086,o),
(936,1192,o),
(772,1192,cs),
(618,1192,o),
(506,1086,o),
(506,940,cs),
(506,800,o),
(612,698,o),
(758,698,cs),
(830,698,o),
(892,732,o),
(914,782,c),
(656,782,l),
(656,330,ls),
(656,298,o),
(642,280,o),
(618,280,cs),
(592,280,o),
(576,296,o),
(568,328,cs),
(430,850,l),
(22,850,l),
(216,252,ls),
(278,62,o),
(404,-18,o),
(640,-18,cs)
);
},
{
closed = 1;
nodes = (
(720,862,o),
(696,896,o),
(696,942,cs),
(696,988,o),
(720,1020,o),
(756,1020,cs),
(790,1020,o),
(814,988,o),
(814,942,cs),
(814,896,o),
(790,862,o),
(756,862,cs)
);
}
);
width = 1146;
}
);
unicode = 3591;
}
{
glyphname = "choChan-thai";
layers = (
{
anchors = (
{
name = bottom;
pos = (882,0);
},
{
name = top;
pos = (910,1174);
}
);
layerId = "B1F27B51-9973-4381-9301-4FE46FE1CA59";
shapes = (
{
closed = 1;
nodes = (
(510,0,ls),
(774,0,o),
(940,234,o),
(940,604,cs),
(940,964,o),
(758,1192,o),
(472,1192,cs),
(272,1192,o),
(118,1072,o),
(72,880,c),
(120,880,l),
(166,1044,o),
(300,1146,o),
(472,1146,cs),
(728,1146,o),
(894,934,o),
(894,604,cs),
(894,262,o),
(744,46,o),
(510,46,cs),
(432,46,l),
(458,16,l),
(458,590,ls),
(458,688,o),
(396,758,o),
(312,758,cs),
(228,758,o),
(172,688,o),
(172,590,cs),
(172,490,o),
(228,420,o),
(312,420,cs),
(368,420,o),
(412,450,o),
(428,504,c),
(412,504,l),
(412,0,l)
);
},
{
closed = 1;
nodes = (
(256,464,o),
(216,516,o),
(216,590,cs),
(216,662,o),
(256,714,o),
(312,714,cs),
(370,714,o),
(412,662,o),
(412,590,cs),
(412,518,o),
(370,464,o),
(312,464,cs)
);
}
);
width = 1070;
},
{
anchors = (
{
name = bottom;
pos = (930,0);
},
{
name = top;
pos = (958,1174);
}
);
layerId = "C698F293-3EC0-4A5A-A3A0-0FDB1F5CF265";
shapes = (
{
closed = 1;
nodes = (
(600,0,ls),
(850,0,o),
(1032,256,o),
(1032,610,cs),
(1032,966,o),
(834,1198,o),
(526,1198,cs),
(284,1198,o),
(94,1038,o),
(66,814,c),
(236,814,l),
(266,950,o),
(382,1042,o),
(526,1042,cs),
(734,1042,o),
(856,882,o),
(856,610,cs),
(856,340,o),
(752,146,o),
(608,146,cs),
(532,146,l),
(564,74,l),
(564,524,ls),
(564,646,o),
(478,734,o),
(360,734,cs),
(244,734,o),
(160,648,o),
(160,530,cs),
(160,412,o),
(244,328,o),
(360,328,cs),
(432,328,o),
(494,358,o),
(524,410,c),
(396,410,l),
(396,0,l)
);
},
{
closed = 1;
nodes = (
(310,430,o),
(276,472,o),
(276,530,cs),
(276,588,o),
(310,628,o),
(356,628,cs),
(402,628,o),
(436,588,o),
(436,530,cs),
(436,472,o),
(402,430,o),
(356,430,cs)
);
}
);
width = 1140;
},
{
anchors = (
{
name = bottom;
pos = (1052,0);
},
{
name = top;
pos = (1080,1174);
}
);
layerId = "5C20EF92-B63D-42A8-8878-93C2863E0093";
shapes = (
{
closed = 1;
nodes = (
(582,0,ls),
(924,0,o),
(1138,230,o),
(1138,596,cs),
(1138,964,o),
(918,1198,o),
(570,1198,cs),
(266,1198,o),
(60,1038,o),
(44,792,c),
(432,792,l),
(454,856,o),
(502,892,o),
(566,892,cs),
(676,892,o),
(736,788,o),
(736,604,cs),
(736,394,o),
(690,276,o),
(606,276,cs),
(456,276,l),
(606,74,l),
(606,492,ls),
(606,634,o),
(498,734,o),
(348,734,cs),
(206,734,o),
(100,644,o),
(100,520,cs),
(100,400,o),
(194,316,o),
(328,316,cs),
(396,316,o),
(458,346,o),
(478,390,c),
(224,390,l),
(224,0,l)
);
},
{
closed = 1;
nodes = (
(302,442,o),
(280,472,o),
(280,514,cs),
(280,554,o),
(302,584,o),
(334,584,cs),
(366,584,o),
(388,554,o),
(388,514,cs),
(388,472,o),
(366,442,o),
(334,442,cs)
);
}
);
width = 1200;
}
);
unicode = 3592;
}
{
glyphname = "choChing-thai";
kernRight = "noNu-thai";
layers = (
{
anchors = (
{
name = bottom;
pos = (946,0);
},
{
name = top;
pos = (932,1174);
}
);
layerId = "B1F27B51-9973-4381-9301-4FE46FE1CA59";
shapes = (
{
closed = 1;
nodes = (
(380,0,l),
(380,62,ls),
(380,180,o),
(566,280,o),
(852,314,c),
(852,324,l),
(946,336,l),
(946,766,ls),
(946,1024,o),
(784,1192,o),
(530,1192,cs),
(328,1192,o),
(180,1098,o),
(114,930,c),
(156,914,l),
(212,1062,o),
(346,1146,o),
(530,1146,cs),
(756,1146,o),
(900,998,o),
(900,766,cs),
(900,338,l),
(914,360,l),
(618,338,o),
(392,244,o),
(360,132,c),
(380,132,l),
(380,590,ls),
(380,688,o),
(318,758,o),
(234,758,cs),
(150,758,o),
(94,688,o),
(94,590,cs),
(94,490,o),
(148,420,o),
(232,420,cs),
(288,420,o),
(334,450,o),
(350,504,c),
(334,504,l),
(334,0,l)
);
},
{
closed = 1;
nodes = (
(178,464,o),
(136,516,o),
(136,590,cs),
(136,662,o),
(178,714,o),
(234,714,cs),
(292,714,o),
(334,662,o),
(334,590,cs),
(334,518,o),
(292,464,o),
(234,464,cs)
);
},
{
closed = 1;
nodes = (
(1004,-14,o),
(1070,62,o),
(1070,172,cs),
(1070,278,o),
(1006,354,o),
(914,354,cs),
(820,354,o),
(760,278,o),
(760,172,cs),
(760,62,o),
(822,-14,o),
(914,-14,cs)
);
},
{
closed = 1;
nodes = (
(848,30,o),
(802,90,o),
(802,172,cs),
(802,254,o),
(850,312,o),
(914,312,cs),
(978,312,o),
(1026,254,o),
(1026,172,cs),
(1026,90,o),
(978,30,o),
(914,30,cs)
);
}
);
width = 1170;
},
{
anchors = (
{
name = bottom;
pos = (1060,0);
},
{
name = top;
pos = (1046,1174);
}
);
layerId = "C698F293-3EC0-4A5A-A3A0-0FDB1F5CF265";
shapes = (
{
closed = 1;
nodes = (
(488,0,l),
(488,62,ls),
(488,206,o),
(656,306,o),
(920,324,c),
(920,352,l),
(1060,384,l),
(1060,746,ls),
(1060,1020,o),
(866,1198,o),
(564,1198,cs),
(324,1198,o),
(144,1090,o),
(70,906,c),
(226,848,l),
(274,970,o),
(402,1042,o),
(564,1042,cs),
(766,1042,o),
(888,940,o),
(888,766,cs),
(888,386,l),
(930,452,l),
(674,436,o),
(504,360,o),
(466,246,c),
(488,230,l),
(488,530,ls),
(488,652,o),
(404,740,o),
(284,740,cs),
(170,740,o),
(84,654,o),
(84,536,cs),
(84,418,o),
(168,334,o),
(284,334,cs),
(356,334,o),
(418,364,o),
(448,416,c),
(320,416,l),
(320,0,l)
);
},
{
closed = 1;
nodes = (
(236,434,o),
(202,478,o),
(202,536,cs),
(202,594,o),
(236,636,o),
(282,636,cs),
(328,636,o),
(362,594,o),
(362,536,cs),
(362,478,o),
(328,434,o),
(282,434,cs)
);
},
{
closed = 1;
nodes = (
(1106,-14,o),
(1202,82,o),
(1202,216,cs),
(1202,340,o),
(1106,430,o),
(974,430,cs),
(846,430,o),
(750,342,o),
(750,216,cs),
(750,82,o),
(846,-14,o),
(974,-14,cs)
);
},
{
closed = 1;
nodes = (
(922,106,o),
(884,152,o),
(884,216,cs),
(884,280,o),
(922,326,o),
(974,326,cs),
(1026,326,o),
(1062,280,o),
(1062,216,cs),
(1062,152,o),
(1026,106,o),
(974,106,cs)
);
}
);
width = 1266;
},
{
anchors = (
{
name = bottom;
pos = (1162,0);
},
{
name = top;
pos = (1148,1174);
}
);
layerId = "5C20EF92-B63D-42A8-8878-93C2863E0093";
shapes = (
{
closed = 1;
nodes = (
(578,0,l),
(578,24,ls),
(578,134,o),
(666,208,o),
(818,226,c),
(818,322,l),
(1162,414,l),
(1162,776,ls),
(1162,1040,o),
(952,1198,o),
(600,1198,cs),
(258,1198,o),
(52,1048,o),
(34,792,c),
(422,792,l),
(442,862,o),
(500,898,o),
(594,898,cs),
(708,898,o),
(766,848,o),
(766,748,cs),
(766,360,l),
(818,466,l),
(656,454,o),
(546,406,o),
(520,334,c),
(578,296,l),
(578,486,ls),
(578,634,o),
(464,740,o),
(308,740,cs),
(158,740,o),
(48,642,o),
(48,506,cs),
(48,378,o),
(148,286,o),
(288,286,cs),
(362,286,o),
(430,318,o),
(450,364,c),
(204,364,l),
(204,0,l)
);
},
{
closed = 1;
nodes = (
(260,434,o),
(236,466,o),
(236,508,cs),
(236,552,o),
(260,584,o),
(292,584,cs),
(324,584,o),
(350,552,o),
(350,508,cs),
(350,466,o),
(324,434,o),
(292,434,cs)
);
},
{
closed = 1;
nodes = (
(1144,-18,o),
(1264,94,o),
(1264,246,cs),
(1264,392,o),
(1144,498,o),
(980,498,cs),
(822,498,o),
(708,392,o),
(708,246,cs),
(708,92,o),
(822,-18,o),
(980,-18,cs)
);
},
{
closed = 1;
nodes = (
(942,162,o),
(916,198,o),
(916,246,cs),
(916,294,o),
(942,328,o),
(978,328,cs),
(1014,328,o),
(1042,292,o),
(1042,246,cs),
(1042,198,o),
(1014,162,o),
(978,162,cs)
);
}
);
width = 1300;
}
);
unicode = 3593;
}
{
glyphname = "choChang-thai";
kernLeft = "khoKhai-thai";
kernRight = "choChang-thai";
layers = (
{
anchors = (
{
name = bottom;
pos = (820,0);
},
{
name = top;
pos = (834,1174);
}
);
layerId = "B1F27B51-9973-4381-9301-4FE46FE1CA59";
shapes = (
{
closed = 1;
nodes = (
(754,-14,o),
(834,58,o),
(834,266,cs),
(834,564,ls),
(834,672,o),
(792,746,o),
(712,778,c),
(712,784,l),
(810,818,o),
(864,908,o),
(864,1038,cs),
(864,1202,l),
(818,1202,l),
(818,1038,ls),
(818,888,o),
(742,804,o),
(604,804,cs),
(546,804,l),
(546,760,l),
(604,760,ls),
(724,760,o),
(788,690,o),
(788,564,cs),
(788,266,ls),
(788,92,o),
(718,30,o),
(524,30,cs),
(330,30,o),
(258,92,o),
(258,266,cs),
(258,424,ls),
(258,542,o),
(280,616,o),
(338,712,cs),
(402,814,o),
(420,884,o),
(420,1004,cs),
(420,1116,o),
(360,1188,o),
(268,1188,cs),
(180,1188,o),
(120,1114,o),
(120,1010,cs),
(120,906,o),
(176,834,o),
(264,834,cs),
(324,834,o),
(372,870,o),
(388,926,c),
(372,926,l),
(372,872,o),
(352,822,o),
(298,734,cs),
(232,626,o),
(212,554,o),
(212,424,cs),
(212,266,ls),
(212,58,o),
(294,-14,o),
(524,-14,cs)
);
},
{
closed = 1;
nodes = (
(206,878,o),
(162,932,o),
(162,1010,cs),
(162,1088,o),
(206,1144,o),
(268,1144,cs),
(330,1144,o),
(374,1088,o),
(374,1010,cs),
(374,932,o),
(330,878,o),
(268,878,cs)
);
}
);
width = 1032;
},
{
anchors = (
{
name = bottom;
pos = (936,0);
},
{
name = top;
pos = (952,1174);
}
);
layerId = "C698F293-3EC0-4A5A-A3A0-0FDB1F5CF265";
shapes = (
{
closed = 1;
nodes = (
(850,-14,o),
(952,70,o),
(952,310,cs),
(952,550,ls),
(952,704,o),
(908,788,o),
(808,818,c),
(808,830,l),
(922,862,o),
(982,956,o),
(982,1102,cs),
(982,1202,l),
(814,1202,l),
(814,1102,ls),
(814,952,o),
(758,886,o),
(634,886,cs),
(606,886,l),
(606,746,l),
(626,746,ls),
(732,746,o),
(780,686,o),
(780,550,cs),
(780,328,ls),
(780,180,o),
(730,136,o),
(568,136,cs),
(406,136,o),
(358,180,o),
(358,328,cs),
(358,424,ls),
(358,542,o),
(376,614,o),
(426,694,cs),
(490,800,o),
(520,884,o),
(520,968,cs),
(520,1096,o),
(430,1188,o),
(304,1188,cs),
(182,1188,o),
(94,1098,o),
(94,976,cs),
(94,852,o),
(182,766,o),
(304,766,cs),
(382,766,o),
(446,796,o),
(476,850,c),
(350,850,l),
(338,820,o),
(322,792,o),
(290,746,cs),
(212,632,o),
(190,558,o),
(190,424,cs),
(190,310,ls),
(190,70,o),
(288,-14,o),
(568,-14,cs)
);
},
{
closed = 1;
nodes = (
(254,868,o),
(216,912,o),
(216,974,cs),
(216,1036,o),
(254,1078,o),
(302,1078,cs),
(350,1078,o),
(386,1036,o),
(386,974,cs),
(386,912,o),
(350,868,o),
(302,868,cs)
);
}
);
width = 1118;
},
{
anchors = (
{
name = bottom;
pos = (1122,0);
},
{
name = top;
pos = (1136,1174);
}
);
layerId = "5C20EF92-B63D-42A8-8878-93C2863E0093";
shapes = (
{
closed = 1;
nodes = (
(994,-18,o),
(1136,88,o),
(1136,368,cs),
(1136,532,ls),
(1136,690,o),
(1082,780,o),
(970,808,c),
(970,818,l),
(1098,850,o),
(1158,936,o),
(1158,1090,cs),
(1158,1202,l),
(770,1202,l),
(770,1076,ls),
(770,978,o),
(734,930,o),
(664,930,cs),
(642,930,l),
(642,654,l),
(658,654,ls),
(716,654,o),
(740,620,o),
(740,546,cs),
(740,398,ls),
(740,318,o),
(706,288,o),
(616,288,cs),
(528,288,o),
(490,316,o),
(490,382,cs),
(490,462,ls),
(490,552,o),
(506,616,o),
(546,708,cs),
(582,788,o),
(600,862,o),
(600,930,cs),
(600,1082,o),
(484,1192,o),
(326,1192,cs),
(170,1192,o),
(58,1086,o),
(58,940,cs),
(58,800,o),
(164,698,o),
(310,698,cs),
(382,698,o),
(444,732,o),
(466,782,c),
(282,804,l),
(268,770,o),
(248,744,o),
(196,688,cs),
(124,608,o),
(98,546,o),
(98,446,cs),
(98,354,ls),
(98,84,o),
(240,-18,o),
(616,-18,cs)
);
},
{
closed = 1;
nodes = (
(272,862,o),
(248,896,o),
(248,942,cs),
(248,988,o),
(272,1020,o),
(308,1020,cs),
(342,1020,o),
(366,988,o),
(366,942,cs),
(366,896,o),
(342,862,o),
(308,862,cs)
);
}
);
width = 1234;
}
);
metricLeft = "khoKhai-thai";
unicode = 3594;
}
{
glyphname = "soSo-thai";
kernLeft = "khoKhuat-thai";
kernRight = "choChang-thai";
layers = (
{
anchors = (
{
name = bottom;
pos = (844,0);
},
{
name = top;
pos = (858,1174);
}
);
layerId = "B1F27B51-9973-4381-9301-4FE46FE1CA59";
shapes = (
{
closed = 1;
nodes = (
(774,-14,o),
(858,62,o),
(858,270,cs),
(858,564,ls),
(858,672,o),
(814,746,o),
(734,778,c),
(734,784,l),
(832,818,o),
(888,908,o),
(888,1038,cs),
(888,1202,l),
(840,1202,l),
(840,1038,ls),
(840,888,o),
(764,804,o),
(626,804,cs),
(570,804,l),
(570,760,l),
(626,760,ls),
(746,760,o),
(812,690,o),
(812,564,cs),
(812,270,ls),
(812,94,o),
(740,30,o),
(542,30,cs),
(344,30,o),
(274,94,o),
(274,270,cs),
(274,410,ls),
(274,516,o),
(290,568,o),
(362,668,cs),
(454,796,o),
(478,858,o),
(478,974,cs),
(478,1174,l),
(434,1174,l),
(434,1150,ls),
(434,1036,o),
(366,930,o),
(286,910,c),
(294,904,l),
(328,922,o),
(348,966,o),
(348,1018,cs),
(348,1116,o),
(290,1188,o),
(206,1188,cs),
(122,1188,o),
(62,1116,o),
(62,1018,cs),
(62,920,o),
(122,848,o),
(208,848,cs),
(302,848,o),
(378,898,o),
(426,988,c),
(432,988,l),
(432,870,o),
(410,812,o),
(324,692,cs),
(246,580,o),
(226,526,o),
(226,410,cs),
(226,270,ls),
(226,62,o),
(310,-14,o),
(542,-14,cs)
);
},
{
closed = 1;
nodes = (
(148,892,o),
(104,944,o),
(104,1018,cs),
(104,1092,o),
(148,1144,o),
(206,1144,cs),
(262,1144,o),
(304,1090,o),
(304,1018,cs),
(304,946,o),
(262,892,o),
(206,892,cs)
);
}
);
width = 1056;
},
{
anchors = (
{
name = bottom;
pos = (1010,0);
},
{
name = top;
pos = (1022,1174);
}
);
layerId = "C698F293-3EC0-4A5A-A3A0-0FDB1F5CF265";
shapes = (
{
closed = 1;
nodes = (
(924,-14,o),
(1024,70,o),
(1024,310,cs),
(1024,550,ls),
(1024,704,o),
(980,788,o),
(880,818,c),
(880,830,l),
(994,862,o),
(1054,956,o),
(1054,1102,cs),
(1054,1202,l),
(888,1202,l),
(888,1102,ls),
(888,956,o),
(834,886,o),
(722,886,cs),
(692,886,l),
(692,746,l),
(714,746,ls),
(808,746,o),
(852,684,o),
(852,550,cs),
(852,328,ls),
(852,180,o),
(804,136,o),
(638,136,cs),
(472,136,o),
(424,178,o),
(424,328,cs),
(424,424,ls),
(424,538,o),
(442,596,o),
(512,686,cs),
(600,800,o),
(628,878,o),
(628,1004,cs),
(628,1174,l),
(478,1174,l),
(478,1118,ls),
(478,1016,o),
(426,970,o),
(318,970,c),
(356,882,l),
(388,912,o),
(404,956,o),
(404,1006,cs),
(404,1112,o),
(328,1188,o),
(222,1188,cs),
(114,1188,o),
(36,1110,o),
(36,1004,cs),
(36,898,o),
(118,822,o),
(234,822,cs),
(308,822,o),
(388,854,o),
(456,908,c),
(468,908,l),
(454,858,o),
(428,816,o),
(370,750,cs),
(280,650,o),
(254,574,o),
(254,424,cs),
(254,310,ls),
(254,70,o),
(354,-14,o),
(638,-14,cs)
);
},
{
closed = 1;
nodes = (
(182,912,o),
(152,950,o),
(152,1004,cs),
(152,1056,o),
(184,1094,o),
(226,1094,cs),
(268,1094,o),
(300,1056,o),
(300,1004,cs),
(300,950,o),
(268,912,o),
(226,912,cs)
);
}
);
width = 1190;
},
{
anchors = (
{
name = bottom;
pos = (1218,0);
},
{
name = top;
pos = (1234,1174);
}
);
layerId = "5C20EF92-B63D-42A8-8878-93C2863E0093";
shapes = (
{
closed = 1;
nodes = (
(1088,-18,o),
(1234,90,o),
(1234,368,cs),
(1234,532,ls),
(1234,690,o),
(1180,780,o),
(1068,808,c),
(1068,818,l),
(1196,850,o),
(1256,936,o),
(1256,1090,cs),
(1256,1202,l),
(866,1202,l),
(866,1076,ls),
(866,978,o),
(832,930,o),
(762,930,cs),
(740,930,l),
(740,654,l),
(754,654,ls),
(812,654,o),
(838,620,o),
(838,546,cs),
(838,398,ls),
(838,320,o),
(800,288,o),
(708,288,cs),
(620,288,o),
(580,316,o),
(580,382,cs),
(580,468,ls),
(580,586,o),
(598,666,o),
(646,776,cs),
(694,896,o),
(712,976,o),
(712,1094,cs),
(712,1174,l),
(508,1174,l),
(508,1118,ls),
(508,1028,o),
(482,986,o),
(414,956,c),
(454,884,l),
(476,914,o),
(488,948,o),
(488,980,cs),
(488,1100,o),
(390,1192,o),
(260,1192,cs),
(114,1192,o),
(14,1094,o),
(14,954,cs),
(14,824,o),
(110,730,o),
(240,730,cs),
(292,730,o),
(340,746,o),
(380,774,c),
(392,774,l),
(350,738,o),
(316,704,o),
(286,668,cs),
(220,590,o),
(190,506,o),
(190,404,cs),
(190,354,ls),
(190,86,o),
(332,-18,o),
(708,-18,cs)
);
},
{
closed = 1;
nodes = (
(210,894,o),
(186,922,o),
(186,964,cs),
(186,1006,o),
(210,1036,o),
(242,1036,cs),
(274,1036,o),
(296,1004,o),
(296,964,cs),
(296,924,o),
(274,894,o),
(242,894,cs)
);
}
);
width = 1332;
}
);
metricLeft = "khoKhuat-thai";
metricRight = "choChang-thai";
unicode = 3595;
}
{
glyphname = "choChoe-thai";
kernLeft = "koKai-thai";
kernRight = "moMa-thai";
layers = (
{
anchors = (
{
name = bottom;
pos = (1550,0);
},
{
name = top;
pos = (1550,1174);
}
);
layerId = "B1F27B51-9973-4381-9301-4FE46FE1CA59";
shapes = (
{
closed = 1;
nodes = (
(446,-14,o),
(510,60,o),
(510,162,cs),
(510,266,o),
(450,340,o),
(364,340,cs),
(308,340,o),
(256,304,o),
(240,252,c),
(254,252,l),
(254,472,ls),
(254,632,o),
(316,714,o),
(424,698,cs),
(474,690,l),
(474,736,l),
(162,782,l),
(198,738,l),
(198,790,ls),
(198,1008,o),
(342,1146,o),
(566,1146,cs),
(792,1146,o),
(936,1008,o),
(936,790,cs),
(936,306,l),
(968,290,l),
(1322,262,o),
(1502,184,o),
(1502,62,cs),
(1502,0,l),
(1550,0,l),
(1550,1174,l),
(1502,1174,l),
(1502,126,l),
(1526,126,l),
(1496,236,o),
(1300,308,o),
(968,334,c),
(982,312,l),
(982,790,ls),
(982,1036,o),
(820,1192,o),
(566,1192,cs),
(314,1192,o),
(152,1036,o),
(152,790,cs),
(152,738,l),
(312,714,l),
(312,706,l),
(246,680,o),
(208,594,o),
(208,468,cs),
(208,162,ls),
(208,58,o),
(272,-14,o),
(360,-14,cs)
);
},
{
closed = 1;
nodes = (
(298,30,o),
(254,84,o),
(254,162,cs),
(254,240,o),
(298,296,o),
(360,296,cs),
(422,296,o),
(466,240,o),
(466,162,cs),
(466,84,o),
(422,30,o),
(360,30,cs)
);
},
{
closed = 1;
nodes = (
(956,-14,o),
(1020,62,o),
(1020,168,cs),
(1020,274,o),
(956,350,o),
(866,350,cs),
(774,350,o),
(710,274,o),
(710,168,cs),
(710,60,o),
(774,-14,o),
(866,-14,cs)
);
},
{
closed = 1;
nodes = (
(800,30,o),
(754,86,o),
(754,168,cs),
(754,248,o),
(800,306,o),
(866,306,cs),
(930,306,o),
(976,248,o),
(976,168,cs),
(976,86,o),
(930,30,o),
(866,30,cs)
);
}
);
width = 1752;
},
{
anchors = (
{
name = bottom;
pos = (1626,0);
},
{
name = top;
pos = (1626,1174);
}
);
layerId = "C698F293-3EC0-4A5A-A3A0-0FDB1F5CF265";
shapes = (
{
closed = 1;
nodes = (
(500,-14,o),
(584,72,o),
(584,190,cs),
(584,308,o),
(500,392,o),
(384,392,cs),
(312,392,o),
(252,362,o),
(222,310,c),
(348,310,l),
(348,400,ls),
(348,550,o),
(408,628,o),
(514,616,cs),
(568,610,l),
(568,744,l),
(254,782,l),
(276,680,l),
(276,726,ls),
(276,922,o),
(396,1042,o),
(594,1042,cs),
(780,1042,o),
(898,936,o),
(898,768,cs),
(898,384,l),
(1040,312,l),
(1300,288,o),
(1456,188,o),
(1456,46,cs),
(1456,0,l),
(1626,0,l),
(1626,1174,l),
(1454,1174,l),
(1454,222,l),
(1478,236,l),
(1444,344,o),
(1268,422,o),
(1028,440,c),
(1070,386,l),
(1070,766,ls),
(1070,1030,o),
(884,1198,o),
(594,1198,cs),
(292,1198,o),
(106,1014,o),
(106,718,cs),
(106,672,l),
(330,646,l),
(330,634,l),
(226,602,o),
(178,522,o),
(178,380,cs),
(178,196,ls),
(178,74,o),
(264,-14,o),
(384,-14,cs)
);
},
{
closed = 1;
nodes = (
(340,92,o),
(306,132,o),
(306,190,cs),
(306,248,o),
(340,290,o),
(386,290,cs),
(432,290,o),
(466,248,o),
(466,190,cs),
(466,132,o),
(432,92,o),
(386,92,cs)
);
},
{
closed = 1;
nodes = (
(1064,-14,o),
(1154,74,o),
(1154,200,cs),
(1154,320,o),
(1064,408,o),
(942,408,cs),
(816,408,o),
(724,320,o),
(724,200,cs),
(724,74,o),
(816,-14,o),
(942,-14,cs)
);
},
{
closed = 1;
nodes = (
(894,96,o),
(858,138,o),
(858,200,cs),
(858,262,o),
(894,306,o),
(942,306,cs),
(990,306,o),
(1026,262,o),
(1026,200,cs),
(1026,138,o),
(990,96,o),
(942,96,cs)
);
}
);
width = 1798;
},
{
anchors = (
{
name = bottom;
pos = (1788,0);
},
{
name = top;
pos = (1788,1174);
}
);
layerId = "5C20EF92-B63D-42A8-8878-93C2863E0093";
shapes = (
{
closed = 1;
nodes = (
(522,-18,o),
(632,80,o),
(632,216,cs),
(632,344,o),
(532,438,o),
(394,438,cs),
(320,438,o),
(250,406,o),
(232,360,c),
(478,360,l),
(478,456,ls),
(478,506,o),
(504,534,o),
(552,534,cs),
(628,534,l),
(628,752,l),
(376,752,l),
(454,682,l),
(454,728,ls),
(454,834,o),
(518,892,o),
(636,892,cs),
(756,892,o),
(822,834,o),
(822,728,cs),
(822,404,l),
(1112,226,l),
(1288,206,o),
(1406,126,o),
(1406,24,cs),
(1406,0,l),
(1788,0,l),
(1788,1174,l),
(1392,1174,l),
(1392,296,l),
(1448,334,l),
(1424,400,o),
(1312,452,o),
(1166,466,c),
(1218,360,l),
(1218,756,ls),
(1218,1028,o),
(1000,1198,o),
(650,1198,cs),
(292,1198,o),
(66,1012,o),
(66,722,cs),
(66,636,l),
(270,636,l),
(270,624,l),
(160,592,o),
(104,518,o),
(104,400,cs),
(104,238,ls),
(104,90,o),
(216,-18,o),
(372,-18,cs)
);
},
{
closed = 1;
nodes = (
(356,140,o),
(332,172,o),
(332,216,cs),
(332,258,o),
(356,290,o),
(388,290,cs),
(420,290,o),
(446,258,o),
(446,216,cs),
(446,172,o),
(420,140,o),
(388,140,cs)
);
},
{
closed = 1;
nodes = (
(1092,-18,o),
(1196,82,o),
(1196,222,cs),
(1196,360,o),
(1092,462,o),
(950,462,cs),
(804,462,o),
(696,360,o),
(696,222,cs),
(696,82,o),
(804,-18,o),
(950,-18,cs)
);
},
{
closed = 1;
nodes = (
(926,148,o),
(900,180,o),
(900,222,cs),
(900,264,o),
(926,296,o),
(958,296,cs),
(990,296,o),
(1014,264,o),
(1014,222,cs),
(1014,180,o),
(990,148,o),
(958,148,cs)
);
}
);
width = 1890;
}
);
metricLeft = "thoThung-thai";
metricRight = "moMa-thai";
unicode = 3596;
}
{
glyphname = "yoYing-thai";
kernLeft = "koKai-thai";
kernRight = "boBaimai-thai";
layers = (
{
anchors = (
{
name = bottom;
pos = (1622,-448);
},
{
name = top;
pos = (1636,1174);
}
);
layerId = "B1F27B51-9973-4381-9301-4FE46FE1CA59";
shapes = (
{
closed = 1;
nodes = (
(446,-14,o),
(510,60,o),
(510,162,cs),
(510,266,o),
(450,340,o),
(364,340,cs),
(308,340,o),
(256,304,o),
(240,252,c),
(254,252,l),
(254,472,ls),
(254,632,o),
(318,718,o),
(424,702,cs),
(474,694,l),
(474,738,l),
(162,784,l),
(198,740,l),
(198,792,ls),
(198,1008,o),
(342,1146,o),
(566,1146,cs),
(792,1146,o),
(936,1008,o),
(936,792,cs),
(936,318,ls),
(936,84,o),
(1028,0,o),
(1286,0,cs),
(1544,0,o),
(1636,84,o),
(1636,318,cs),
(1636,1174,l),
(1590,1174,l),
(1590,318,ls),
(1590,116,o),
(1510,46,o),
(1286,46,cs),
(1062,46,o),
(982,116,o),
(982,318,cs),
(982,792,ls),
(982,1036,o),
(820,1192,o),
(566,1192,cs),
(314,1192,o),
(152,1036,o),
(152,792,cs),
(152,740,l),
(312,718,l),
(312,710,l),
(246,684,o),
(208,598,o),
(208,472,cs),
(208,162,ls),
(208,58,o),
(272,-14,o),
(360,-14,cs)
);
},
{
closed = 1;
nodes = (
(298,30,o),
(254,84,o),
(254,162,cs),
(254,240,o),
(298,296,o),
(360,296,cs),
(422,296,o),
(466,240,o),
(466,162,cs),
(466,84,o),
(422,30,o),
(360,30,cs)
);
},
{
closed = 1;
nodes = (
(1460,-462,o),
(1582,-342,o),
(1622,-96,c),
(1578,-88,l),
(1542,-314,o),
(1438,-418,o),
(1254,-418,cs),
(1172,-418,o),
(1100,-398,o),
(1064,-362,c),
(1010,-362,l),
(1030,-378,o),
(1058,-386,o),
(1090,-386,cs),
(1170,-386,o),
(1224,-322,o),
(1224,-228,cs),
(1224,-132,o),
(1168,-66,o),
(1090,-66,cs),
(1010,-66,o),
(952,-134,o),
(952,-232,cs),
(952,-368,o),
(1076,-462,o),
(1252,-462,cs)
);
},
{
closed = 1;
nodes = (
(1034,-348,o),
(994,-298,o),
(994,-228,cs),
(994,-158,o),
(1034,-110,o),
(1090,-110,cs),
(1144,-110,o),
(1182,-158,o),
(1182,-228,cs),
(1182,-298,o),
(1144,-348,o),
(1090,-348,cs)
);
}
);
width = 1834;
},
{
anchors = (
{
name = bottom;
pos = (1694,-490);
},
{
name = top;
pos = (1702,1174);
}
);
layerId = "C698F293-3EC0-4A5A-A3A0-0FDB1F5CF265";
shapes = (
{
closed = 1;
nodes = (
(500,-14,o),
(584,72,o),
(584,190,cs),
(584,308,o),
(500,392,o),
(384,392,cs),
(312,392,o),
(252,362,o),
(222,310,c),
(348,310,l),
(348,400,ls),
(348,550,o),
(408,628,o),
(514,616,cs),
(568,610,l),
(568,744,l),
(254,782,l),
(276,680,l),
(276,726,ls),
(276,920,o),
(398,1042,o),
(590,1042,cs),
(772,1042,o),
(886,936,o),
(886,768,cs),
(886,336,ls),
(886,88,o),
(992,0,o),
(1294,0,cs),
(1596,0,o),
(1702,88,o),
(1702,336,cs),
(1702,1174,l),
(1530,1174,l),
(1530,354,ls),
(1530,196,o),
(1476,150,o),
(1294,150,cs),
(1110,150,o),
(1058,196,o),
(1058,354,cs),
(1058,766,ls),
(1058,1028,o),
(876,1198,o),
(590,1198,cs),
(294,1198,o),
(106,1012,o),
(106,718,cs),
(106,672,l),
(330,646,l),
(330,634,l),
(226,602,o),
(178,522,o),
(178,380,cs),
(178,196,ls),
(178,74,o),
(264,-14,o),
(384,-14,cs)
);
},
{
closed = 1;
nodes = (
(340,92,o),
(306,132,o),
(306,190,cs),
(306,248,o),
(340,290,o),
(386,290,cs),
(432,290,o),
(466,248,o),
(466,190,cs),
(466,132,o),
(432,92,o),
(386,92,cs)
);
},
{
closed = 1;
nodes = (
(1496,-504,o),
(1648,-378,o),
(1694,-140,c),
(1538,-110,l),
(1496,-302,o),
(1412,-392,o),
(1278,-392,cs),
(1236,-392,o),
(1192,-384,o),
(1150,-366,c),
(948,-366,l),
(974,-412,o),
(1032,-442,o),
(1096,-442,cs),
(1200,-442,o),
(1278,-366,o),
(1278,-264,cs),
(1278,-156,o),
(1200,-78,o),
(1096,-78,cs),
(982,-78,o),
(904,-158,o),
(904,-272,cs),
(904,-416,o),
(1038,-504,o),
(1260,-504,cs)
);
},
{
closed = 1;
nodes = (
(1054,-354,o),
(1022,-314,o),
(1022,-264,cs),
(1022,-214,o),
(1054,-178,o),
(1096,-178,cs),
(1138,-178,o),
(1168,-214,o),
(1168,-264,cs),
(1168,-314,o),
(1138,-354,o),
(1096,-354,cs)
);
}
);
width = 1868;
},
{
anchors = (
{
name = bottom;
pos = (1878,-550);
},
{
name = top;
pos = (1892,1174);
}
);
layerId = "5C20EF92-B63D-42A8-8878-93C2863E0093";
shapes = (
{
closed = 1;
nodes = (
(522,-18,o),
(632,80,o),
(632,216,cs),
(632,344,o),
(532,438,o),
(394,438,cs),
(320,438,o),
(250,406,o),
(232,360,c),
(478,360,l),
(478,456,ls),
(478,506,o),
(504,534,o),
(552,534,cs),
(628,534,l),
(628,752,l),
(376,752,l),
(454,682,l),
(454,728,ls),
(454,834,o),
(518,892,o),
(636,892,cs),
(756,892,o),
(822,834,o),
(822,728,cs),
(822,444,ls),
(822,142,o),
(968,30,o),
(1358,30,cs),
(1752,30,o),
(1892,138,o),
(1892,444,cs),
(1892,1174,l),
(1490,1174,l),
(1490,458,ls),
(1490,368,o),
(1456,334,o),
(1358,334,cs),
(1260,334,o),
(1224,368,o),
(1224,458,cs),
(1224,756,ls),
(1224,1026,o),
(1002,1198,o),
(650,1198,cs),
(292,1198,o),
(66,1012,o),
(66,722,cs),
(66,636,l),
(270,636,l),
(270,624,l),
(160,592,o),
(104,518,o),
(104,400,cs),
(104,238,ls),
(104,90,o),
(216,-18,o),
(372,-18,cs)
);
},
{
closed = 1;
nodes = (
(356,140,o),
(332,172,o),
(332,216,cs),
(332,258,o),
(356,290,o),
(388,290,cs),
(420,290,o),
(446,258,o),
(446,216,cs),
(446,172,o),
(420,140,o),
(388,140,cs)
);
},
{
closed = 1;
nodes = (
(1632,-564,o),
(1838,-392,o),
(1878,-70,c),
(1514,-70,l),
(1482,-236,o),
(1412,-318,o),
(1298,-318,cs),
(1264,-318,o),
(1234,-310,o),
(1202,-294,c),
(952,-372,l),
(988,-418,o),
(1046,-444,o),
(1112,-444,cs),
(1232,-444,o),
(1318,-360,o),
(1318,-242,cs),
(1318,-120,o),
(1218,-30,o),
(1080,-30,cs),
(938,-30,o),
(836,-126,o),
(836,-262,cs),
(836,-456,o),
(1000,-564,o),
(1290,-564,cs)
);
},
{
closed = 1;
nodes = (
(1062,-308,o),
(1040,-280,o),
(1040,-240,cs),
(1040,-200,o),
(1062,-172,o),
(1092,-172,cs),
(1122,-172,o),
(1144,-200,o),
(1144,-240,cs),
(1144,-280,o),
(1122,-308,o),
(1092,-308,cs)
);
}
);
width = 1992;
}
);
metricLeft = "thoThung-thai";
metricRight = "boBaimai-thai";
unicode = 3597;
}
{
glyphname = "doChada-thai";
kernLeft = "phoSamphao-thai";
kernRight = "koKai-thai";
layers = (
{
anchors = (
{
name = bottom;
pos = (1096,-478);
},
{
name = top;
pos = (1082,1174);
}
);
layerId = "B1F27B51-9973-4381-9301-4FE46FE1CA59";
shapes = (
{
closed = 1;
nodes = (
(1096,-478,l),
(1096,786,ls),
(1096,1034,o),
(932,1192,o),
(670,1192,cs),
(408,1192,o),
(242,1034,o),
(242,786,cs),
(242,740,l),
(416,716,l),
(416,708,l),
(356,684,o),
(330,614,o),
(330,472,cs),
(330,238,l),
(346,238,l),
(332,288,o),
(286,324,o),
(230,324,cs),
(150,324,o),
(90,254,o),
(90,156,cs),
(90,58,o),
(150,-14,o),
(232,-14,cs),
(316,-14,o),
(376,58,o),
(376,156,cs),
(376,472,ls),
(376,650,o),
(420,716,o),
(528,700,cs),
(570,694,l),
(570,738,l),
(252,784,l),
(288,740,l),
(288,786,ls),
(288,1008,o),
(436,1146,o),
(670,1146,cs),
(902,1146,o),
(1050,1006,o),
(1050,786,cs),
(1050,-430,l),
(1044,-430,l),
(928,-272,o),
(740,-188,o),
(478,-180,c),
(504,-224,l),
(750,-240,o),
(904,-316,o),
(1028,-478,c)
);
},
{
closed = 1;
nodes = (
(176,30,o),
(134,82,o),
(134,156,cs),
(134,228,o),
(176,280,o),
(232,280,cs),
(290,280,o),
(330,228,o),
(330,156,cs),
(330,82,o),
(290,30,o),
(232,30,cs)
);
},
{
closed = 1;
nodes = (
(514,-492,o),
(570,-422,o),
(570,-328,cs),
(570,-234,o),
(514,-166,o),
(434,-166,cs),
(354,-166,o),
(296,-234,o),
(296,-328,cs),
(296,-422,o),
(354,-492,o),
(434,-492,cs)
);
},
{
closed = 1;
nodes = (
(380,-448,o),
(340,-398,o),
(340,-328,cs),
(340,-258,o),
(380,-210,o),
(434,-210,cs),
(488,-210,o),
(526,-258,o),
(526,-328,cs),
(526,-398,o),
(488,-448,o),
(434,-448,cs)
);
},
{
closed = 1;
nodes = (
(608,-66,l),
(558,-66,l),
(466,-206,l),
(512,-216,l)
);
}
);
width = 1290;
},
{
anchors = (
{
name = bottom;
pos = (1172,-504);
},
{
name = top;
pos = (1158,1174);
}
);
layerId = "C698F293-3EC0-4A5A-A3A0-0FDB1F5CF265";
shapes = (
{
closed = 1;
nodes = (
(1172,-504,l),
(1172,766,ls),
(1172,1028,o),
(982,1198,o),
(686,1198,cs),
(376,1198,o),
(182,1012,o),
(182,718,cs),
(182,672,l),
(440,642,l),
(440,630,l),
(350,602,o),
(308,532,o),
(308,406,cs),
(308,310,l),
(436,310,l),
(406,362,o),
(344,392,o),
(272,392,cs),
(156,392,o),
(72,308,o),
(72,190,cs),
(72,72,o),
(156,-14,o),
(272,-14,cs),
(392,-14,o),
(478,74,o),
(478,196,cs),
(478,426,ls),
(478,564,o),
(522,626,o),
(610,616,cs),
(658,610,l),
(658,742,l),
(316,784,l),
(352,680,l),
(352,726,ls),
(352,920,o),
(480,1042,o),
(686,1042,cs),
(878,1042,o),
(1000,936,o),
(1000,768,cs),
(1000,-352,l),
(990,-352,l),
(878,-232,o),
(722,-160,o),
(546,-146,c),
(534,-280,l),
(724,-296,o),
(862,-368,o),
(952,-504,c)
);
},
{
closed = 1;
nodes = (
(224,92,o),
(190,132,o),
(190,190,cs),
(190,248,o),
(224,290,o),
(270,290,cs),
(316,290,o),
(350,248,o),
(350,190,cs),
(350,132,o),
(316,92,o),
(270,92,cs)
);
},
{
closed = 1;
nodes = (
(556,-520,o),
(636,-440,o),
(636,-328,cs),
(636,-212,o),
(558,-130,o),
(446,-130,cs),
(330,-130,o),
(242,-216,o),
(242,-328,cs),
(242,-438,o),
(330,-520,o),
(444,-520,cs)
);
},
{
closed = 1;
nodes = (
(402,-420,o),
(368,-382,o),
(368,-328,cs),
(368,-274,o),
(402,-232,o),
(446,-232,cs),
(490,-232,o),
(522,-274,o),
(522,-328,cs),
(522,-382,o),
(490,-420,o),
(446,-420,cs)
);
},
{
closed = 1;
nodes = (
(784,-36,l),
(610,-36,l),
(492,-190,l),
(578,-280,l)
);
}
);
width = 1336;
},
{
anchors = (
{
name = bottom;
pos = (1270,-542);
},
{
name = top;
pos = (1256,1174);
}
);
layerId = "5C20EF92-B63D-42A8-8878-93C2863E0093";
shapes = (
{
closed = 1;
nodes = (
(1270,-542,l),
(1270,756,ls),
(1270,1026,o),
(1044,1198,o),
(688,1198,cs),
(326,1198,o),
(96,1018,o),
(96,736,cs),
(96,636,l),
(328,636,l),
(328,624,l),
(230,596,o),
(184,530,o),
(184,422,cs),
(184,360,l),
(440,360,l),
(418,408,o),
(358,438,o),
(290,438,cs),
(150,438,o),
(50,344,o),
(50,216,cs),
(50,80,o),
(158,-18,o),
(304,-18,cs),
(456,-18,o),
(566,90,o),
(566,238,cs),
(566,456,ls),
(566,510,o),
(588,534,o),
(634,534,cs),
(666,534,l),
(666,752,l),
(414,752,l),
(484,696,l),
(484,728,ls),
(484,834,o),
(552,892,o),
(674,892,cs),
(798,892,o),
(866,834,o),
(866,728,cs),
(866,-274,l),
(856,-274,l),
(772,-198,o),
(658,-154,o),
(530,-146,c),
(520,-382,l),
(662,-392,o),
(764,-446,o),
(828,-542,c)
);
},
{
closed = 1;
nodes = (
(256,140,o),
(232,172,o),
(232,216,cs),
(232,258,o),
(256,290,o),
(288,290,cs),
(320,290,o),
(344,258,o),
(344,216,cs),
(344,172,o),
(320,140,o),
(288,140,cs)
);
},
{
closed = 1;
nodes = (
(542,-558,o),
(648,-468,o),
(648,-342,cs),
(648,-216,o),
(542,-126,o),
(392,-126,cs),
(242,-126,o),
(134,-216,o),
(134,-342,cs),
(134,-468,o),
(242,-558,o),
(392,-558,cs)
);
},
{
closed = 1;
nodes = (
(374,-418,o),
(352,-388,o),
(352,-346,cs),
(352,-304,o),
(374,-274,o),
(406,-274,cs),
(438,-274,o),
(460,-304,o),
(460,-346,cs),
(460,-388,o),
(438,-418,o),
(406,-418,cs)
);
},
{
closed = 1;
nodes = (
(754,-44,l),
(518,-44,l),
(406,-186,l),
(606,-256,l)
);
}
);
width = 1366;
}
);
metricLeft = "phoSamphao-thai";
metricRight = "phoSamphao-thai";
unicode = 3598;
}
{
glyphname = "thoThan-thai";
kernLeft = "thoThan-thai";
layers = (
{
anchors = (
{
name = bottom;
pos = (942,-478);
},
{
name = top;
pos = (888,1174);
}
);
layerId = "B1F27B51-9973-4381-9301-4FE46FE1CA59";
shapes = (
{
closed = 1;
nodes = (
(498,0,ls),
(714,0,o),
(856,178,o),
(856,452,cs),
(856,702,o),
(706,858,o),
(468,858,cs),
(114,858,l),
(144,828,l),
(144,894,ls),
(144,1052,o),
(226,1144,o),
(370,1144,cs),
(484,1144,o),
(628,1108,o),
(752,1108,cs),
(802,1108,o),
(848,1114,o),
(896,1130,c),
(888,1176,l),
(840,1160,o),
(794,1154,o),
(752,1154,cs),
(638,1154,o),
(492,1188,o),
(370,1188,cs),
(194,1188,o),
(98,1078,o),
(98,894,cs),
(98,814,l),
(468,814,ls),
(676,814,o),
(808,676,o),
(808,452,cs),
(808,206,o),
(688,46,o),
(498,46,cs),
(418,46,l),
(446,16,l),
(446,530,ls),
(446,628,o),
(384,700,o),
(300,700,cs),
(216,700,o),
(158,628,o),
(158,530,cs),
(158,430,o),
(214,362,o),
(298,362,cs),
(352,362,o),
(396,390,o),
(414,446,c),
(398,446,l),
(398,0,l)
);
},
{
closed = 1;
nodes = (
(244,406,o),
(202,456,o),
(202,530,cs),
(202,602,o),
(244,656,o),
(300,656,cs),
(358,656,o),
(398,602,o),
(398,530,cs),
(398,456,o),
(358,406,o),
(300,406,cs)
);
},
{
closed = 1;
nodes = (
(516,-478,l),
(586,-310,l),
(592,-310,l),
(726,-478,l),
(884,-478,l),
(884,-194,ls),
(884,-116,o),
(836,-58,o),
(770,-58,cs),
(704,-58,o),
(656,-116,o),
(656,-194,cs),
(656,-272,o),
(704,-326,o),
(770,-326,cs),
(808,-326,o),
(840,-308,o),
(850,-276,c),
(840,-276,l),
(840,-434,l),
(746,-434,l),
(606,-260,l),
(560,-260,l),
(494,-422,l),
(488,-422,l),
(448,-280,o),
(376,-204,o),
(258,-194,c),
(272,-234,l),
(364,-250,o),
(426,-332,o),
(454,-478,c)
);
},
{
closed = 1;
nodes = (
(730,-284,o),
(702,-246,o),
(702,-194,cs),
(702,-140,o),
(730,-102,o),
(770,-102,cs),
(810,-102,o),
(840,-140,o),
(840,-194,cs),
(840,-246,o),
(810,-284,o),
(770,-284,cs)
);
},
{
closed = 1;
nodes = (
(282,-492,o),
(338,-426,o),
(338,-336,cs),
(338,-246,o),
(282,-180,o),
(206,-180,cs),
(130,-180,o),
(76,-246,o),
(76,-336,cs),
(76,-426,o),
(130,-492,o),
(206,-492,cs)
);
},
{
closed = 1;
nodes = (
(156,-448,o),
(120,-400,o),
(120,-336,cs),
(120,-272,o),
(156,-224,o),
(206,-224,cs),
(256,-224,o),
(292,-272,o),
(292,-336,cs),
(292,-400,o),
(256,-448,o),
(206,-448,cs)
);
},
{
closed = 1;
nodes = (
(366,-104,l),
(316,-104,l),
(240,-220,l),
(290,-220,l)
);
}
);
width = 1012;
},
{
anchors = (
{
name = bottom;
pos = (962,-504);
},
{
name = top;
pos = (968,1174);
}
);
layerId = "C698F293-3EC0-4A5A-A3A0-0FDB1F5CF265";
shapes = (
{
closed = 1;
nodes = (
(574,0,ls),
(786,0,o),
(940,180,o),
(940,430,cs),
(940,692,o),
(774,856,o),
(508,856,cs),
(186,856,l),
(260,786,l),
(260,852,ls),
(260,972,o),
(320,1038,o),
(430,1038,cs),
(536,1038,o),
(672,1008,o),
(798,1008,cs),
(880,1008,o),
(934,1020,o),
(984,1040,c),
(956,1180,l),
(912,1164,o),
(866,1156,o),
(802,1156,cs),
(694,1156,o),
(552,1188,o),
(424,1188,cs),
(216,1188,o),
(84,1050,o),
(84,830,cs),
(84,714,l),
(514,714,ls),
(674,714,o),
(766,618,o),
(766,430,cs),
(766,260,o),
(670,146,o),
(592,146,cs),
(502,146,l),
(546,74,l),
(546,430,ls),
(546,552,o),
(462,642,o),
(342,642,cs),
(226,642,o),
(142,556,o),
(142,438,cs),
(142,320,o),
(226,234,o),
(342,234,cs),
(416,234,o),
(476,268,o),
(506,318,c),
(382,318,l),
(382,0,l)
);
},
{
closed = 1;
nodes = (
(292,338,o),
(258,378,o),
(258,436,cs),
(258,492,o),
(292,536,o),
(338,536,cs),
(384,536,o),
(418,492,o),
(418,436,cs),
(418,378,o),
(384,338,o),
(338,338,cs)
);
},
{
closed = 1;
nodes = (
(576,-504,l),
(616,-414,l),
(626,-414,l),
(698,-504,l),
(962,-504,l),
(962,-190,ls),
(962,-104,o),
(900,-44,o),
(816,-44,cs),
(732,-44,o),
(672,-104,o),
(672,-190,cs),
(672,-272,o),
(734,-334,o),
(814,-334,cs),
(864,-334,o),
(906,-310,o),
(926,-274,c),
(818,-274,l),
(818,-384,l),
(734,-384,l),
(642,-276,l),
(586,-276,l),
(540,-384,l),
(528,-384,l),
(502,-284,o),
(448,-230,o),
(342,-216,c),
(336,-330,l),
(414,-338,o),
(456,-394,o),
(462,-504,c)
);
},
{
closed = 1;
nodes = (
(780,-260,o),
(756,-230,o),
(756,-190,cs),
(756,-150,o),
(780,-122,o),
(814,-122,cs),
(846,-122,o),
(868,-150,o),
(868,-190,cs),
(868,-230,o),
(846,-260,o),
(814,-260,cs)
);
},
{
closed = 1;
nodes = (
(348,-520,o),
(418,-446,o),
(418,-346,cs),
(418,-242,o),
(348,-168,o),
(254,-168,cs),
(150,-168,o),
(78,-242,o),
(78,-346,cs),
(78,-446,o),
(150,-520,o),
(254,-520,cs)
);
},
{
closed = 1;
nodes = (
(214,-430,o),
(184,-394,o),
(184,-346,cs),
(184,-296,o),
(214,-262,o),
(254,-262,cs),
(294,-262,o),
(324,-296,o),
(324,-346,cs),
(324,-394,o),
(294,-430,o),
(254,-430,cs)
);
},
{
closed = 1;
nodes = (
(532,-110,l),
(384,-110,l),
(302,-216,l),
(374,-298,l)
);
}
);
width = 1076;
},
{
anchors = (
{
name = bottom;
pos = (1126,-614);
},
{
name = top;
pos = (1126,1174);
}
);
layerId = "5C20EF92-B63D-42A8-8878-93C2863E0093";
shapes = (
{
closed = 1;
nodes = (
(576,0,ls),
(912,0,o),
(1126,176,o),
(1126,450,cs),
(1126,668,o),
(960,808,o),
(696,808,cs),
(354,808,l),
(420,728,l),
(420,808,ls),
(420,874,o),
(464,908,o),
(552,908,cs),
(682,908,o),
(854,876,o),
(962,876,cs),
(1032,876,o),
(1078,882,o),
(1126,898,c),
(1126,1182,l),
(1074,1166,o),
(1022,1160,o),
(946,1160,cs),
(826,1160,o),
(640,1192,o),
(496,1192,cs),
(206,1192,o),
(46,1040,o),
(46,766,cs),
(46,610,l),
(570,610,ls),
(672,610,o),
(730,558,o),
(730,450,cs),
(730,352,o),
(684,276,o),
(600,276,cs),
(450,276,l),
(600,74,l),
(600,406,ls),
(600,546,o),
(492,648,o),
(342,648,cs),
(198,648,o),
(94,556,o),
(94,434,cs),
(94,314,o),
(190,230,o),
(322,230,cs),
(388,230,o),
(450,258,o),
(472,304,c),
(218,304,l),
(218,0,l)
);
},
{
closed = 1;
nodes = (
(296,356,o),
(274,386,o),
(274,428,cs),
(274,468,o),
(296,498,o),
(328,498,cs),
(360,498,o),
(382,468,o),
(382,428,cs),
(382,386,o),
(360,356,o),
(328,356,cs)
);
},
{
closed = 1;
nodes = (
(632,-614,l),
(692,-542,l),
(704,-542,l),
(792,-614,l),
(1126,-614,l),
(1126,-224,ls),
(1126,-102,o),
(1034,-14,o),
(904,-14,cs),
(780,-14,o),
(690,-94,o),
(690,-206,cs),
(690,-304,o),
(774,-376,o),
(888,-376,cs),
(944,-376,o),
(998,-350,o),
(1016,-312,c),
(840,-312,l),
(840,-448,l),
(830,-448,l),
(696,-350,l),
(658,-350,l),
(580,-440,l),
(574,-440,l),
(550,-344,o),
(486,-290,o),
(392,-282,c),
(416,-504,l),
(482,-518,o),
(518,-554,o),
(530,-614,c)
);
},
{
closed = 1;
nodes = (
(864,-268,o),
(844,-240,o),
(844,-206,cs),
(844,-170,o),
(864,-144,o),
(892,-144,cs),
(918,-144,o),
(938,-170,o),
(938,-206,cs),
(938,-240,o),
(918,-268,o),
(892,-268,cs)
);
},
{
closed = 1;
nodes = (
(408,-632,o),
(508,-540,o),
(508,-414,cs),
(508,-288,o),
(408,-198,o),
(272,-198,cs),
(130,-198,o),
(30,-288,o),
(30,-414,cs),
(30,-540,o),
(130,-632,o),
(272,-632,cs)
);
},
{
closed = 1;
nodes = (
(240,-490,o),
(218,-460,o),
(218,-418,cs),
(218,-376,o),
(240,-348,o),
(272,-348,cs),
(304,-348,o),
(326,-376,o),
(326,-418,cs),
(326,-460,o),
(304,-490,o),
(272,-490,cs)
);
},
{
closed = 1;
nodes = (
(622,-138,l),
(404,-138,l),
(304,-266,l),
(460,-356,l)
);
}
);
width = 1184;
},
{
anchors = (
{
name = bottom;
pos = (1060,-570);
},
{
name = top;
pos = (1064,1174);
}
);
associatedMasterId = "5C20EF92-B63D-42A8-8878-93C2863E0093";
attr = {
coordinates = (
700
);
};
background = {
shapes = (
{
closed = 1;
nodes = (
(630,-614,l),
(692,-542,l),
(704,-542,l),
(792,-614,l),
(1126,-614,l),
(1126,-224,ls),
(1126,-102,o),
(1032,-14,o),
(902,-14,cs),
(778,-14,o),
(690,-94,o),
(690,-206,cs),
(690,-304,o),
(774,-376,o),
(888,-376,cs),
(944,-376,o),
(996,-352,o),
(1014,-312,c),
(840,-344,l),
(840,-448,l),
(830,-448,l),
(696,-350,l),
(658,-350,l),
(580,-440,l),
(574,-440,l),
(552,-346,o),
(486,-290,o),
(390,-282,c),
(416,-504,l),
(482,-518,o),
(520,-554,o),
(530,-614,c)
);
},
{
closed = 1;
nodes = (
(862,-268,o),
(844,-242,o),
(844,-206,cs),
(844,-170,o),
(862,-144,o),
(890,-144,cs),
(918,-144,o),
(938,-170,o),
(938,-206,cs),
(938,-242,o),
(918,-268,o),
(890,-268,cs)
);
},
{
closed = 1;
nodes = (
(408,-632,o),
(508,-540,o),
(508,-414,cs),
(508,-288,o),
(408,-198,o),
(272,-198,cs),
(130,-198,o),
(30,-288,o),
(30,-414,cs),
(30,-540,o),
(130,-632,o),
(272,-632,cs)
);
},
{
closed = 1;
nodes = (
(240,-490,o),
(218,-460,o),
(218,-418,cs),
(218,-376,o),
(240,-348,o),
(272,-348,cs),
(304,-348,o),
(326,-376,o),
(326,-418,cs),
(326,-460,o),
(304,-490,o),
(272,-490,cs)
);
},
{
closed = 1;
nodes = (
(620,-138,l),
(404,-138,l),
(304,-266,l),
(458,-356,l)
);
},
{
closed = 1;
nodes = (
(576,0,ls),
(860,0,o),
(1052,174,o),
(1052,442,cs),
(1052,674,o),
(888,834,o),
(620,834,cs),
(286,834,l),
(358,750,l),
(358,826,ls),
(358,914,o),
(406,960,o),
(502,960,cs),
(624,960,o),
(782,928,o),
(896,928,cs),
(970,928,o),
(1022,936,o),
(1070,954,c),
(1058,1188,l),
(1008,1172,o),
(960,1164,o),
(888,1164,cs),
(774,1164,o),
(604,1198,o),
(466,1198,cs),
(210,1198,o),
(62,1050,o),
(62,798,cs),
(62,644,l),
(548,644,ls),
(674,644,o),
(744,582,o),
(744,442,cs),
(744,316,o),
(680,232,o),
(598,232,cs),
(472,232,l),
(578,74,l),
(578,378,ls),
(578,512,o),
(480,608,o),
(342,608,cs),
(210,608,o),
(114,518,o),
(114,398,cs),
(114,278,o),
(204,194,o),
(330,194,cs),
(398,194,o),
(462,224,o),
(486,272,c),
(284,250,l),
(284,0,l)
);
},
{
closed = 1;
nodes = (
(294,312,o),
(268,346,o),
(268,394,cs),
(268,442,o),
(294,476,o),
(332,476,cs),
(370,476,o),
(398,442,o),
(398,394,cs),
(398,346,o),
(370,312,o),
(332,312,cs)
);
}
);
};
layerId = "51C0FD40-79D7-4AF6-A84F-2A8B0B9D1AA7";
name = "Bold{700,0}";
shapes = (
{
closed = 1;
nodes = (
(576,0,ls),
(860,0,o),
(1052,174,o),
(1052,442,cs),
(1052,674,o),
(888,834,o),
(622,834,cs),
(286,834,l),
(358,750,l),
(358,820,ls),
(358,908,o),
(408,954,o),
(504,954,cs),
(624,954,o),
(782,922,o),
(896,922,cs),
(970,922,o),
(1022,932,o),
(1070,950,c),
(1058,1182,l),
(1008,1166,o),
(958,1160,o),
(888,1160,cs),
(772,1160,o),
(604,1192,o),
(466,1192,cs),
(210,1192,o),
(62,1044,o),
(62,792,cs),
(62,644,l),
(548,644,ls),
(674,644,o),
(744,582,o),
(744,442,cs),
(744,316,o),
(678,232,o),
(598,232,cs),
(472,232,l),
(578,74,l),
(578,378,ls),
(578,512,o),
(480,608,o),
(342,608,cs),
(210,608,o),
(114,518,o),
(114,398,cs),
(114,278,o),
(206,194,o),
(332,194,cs),
(400,194,o),
(462,224,o),
(486,272,c),
(284,252,l),
(284,0,l)
);
},
{
closed = 1;
nodes = (
(296,312,o),
(270,346,o),
(270,394,cs),
(270,442,o),
(296,476,o),
(334,476,cs),
(370,476,o),
(398,442,o),
(398,394,cs),
(398,346,o),
(370,312,o),
(334,312,cs)
);
},
{
closed = 1;
nodes = (
(610,-570,l),
(662,-492,l),
(674,-492,l),
(754,-570,l),
(1060,-570,l),
(1060,-210,ls),
(1060,-104,o),
(980,-26,o),
(868,-26,cs),
(760,-26,o),
(682,-98,o),
(682,-200,cs),
(682,-292,o),
(756,-360,o),
(858,-360,cs),
(912,-360,o),
(960,-334,o),
(978,-296,c),
(832,-316,l),
(832,-422,l),
(792,-422,l),
(674,-322,l),
(630,-322,l),
(564,-418,l),
(556,-418,l),
(532,-322,o),
(470,-266,o),
(370,-256,c),
(384,-434,l),
(456,-446,o),
(494,-490,o),
(504,-570,c)
);
},
{
closed = 1;
nodes = (
(830,-264,o),
(808,-236,o),
(808,-200,cs),
(808,-162,o),
(830,-136,o),
(860,-136,cs),
(890,-136,o),
(910,-162,o),
(910,-200,cs),
(910,-236,o),
(890,-264,o),
(860,-264,cs)
);
},
{
closed = 1;
nodes = (
(384,-586,o),
(472,-502,o),
(472,-386,cs),
(472,-268,o),
(384,-186,o),
(264,-186,cs),
(138,-186,o),
(48,-268,o),
(48,-386,cs),
(48,-502,o),
(138,-586,o),
(264,-586,cs)
);
},
{
closed = 1;
nodes = (
(230,-466,o),
(206,-434,o),
(206,-390,cs),
(206,-346,o),
(230,-312,o),
(264,-312,cs),
(298,-312,o),
(326,-346,o),
(326,-390,cs),
(326,-434,o),
(298,-466,o),
(264,-466,cs)
);
},
{
closed = 1;
nodes = (
(584,-126,l),
(396,-126,l),
(302,-246,l),
(424,-334,l)
);
}
);
width = 1142;
},
{
anchors = (
{
name = bottom;
pos = (1094,-592);
},
{
name = top;
pos = (1096,1174);
}
);
associatedMasterId = "5C20EF92-B63D-42A8-8878-93C2863E0093";
attr = {
coordinates = (
800
);
};
background = {
shapes = (
{
closed = 1;
nodes = (
(576,0,ls),
(886,0,o),
(1090,174,o),
(1090,446,cs),
(1090,672,o),
(924,820,o),
(658,820,cs),
(320,820,l),
(390,738,l),
(390,820,ls),
(390,898,o),
(436,936,o),
(528,936,cs),
(654,936,o),
(818,904,o),
(930,904,cs),
(1002,904,o),
(1050,914,o),
(1098,930,c),
(1092,1188,l),
(1042,1172,o),
(992,1164,o),
(918,1164,cs),
(800,1164,o),
(624,1198,o),
(482,1198,cs),
(210,1198,o),
(54,1048,o),
(54,784,cs),
(54,628,l),
(560,628,ls),
(674,628,o),
(738,570,o),
(738,446,cs),
(738,334,o),
(680,262,o),
(598,262,cs),
(462,262,l),
(590,74,l),
(590,422,ls),
(590,558,o),
(486,658,o),
(342,658,cs),
(206,658,o),
(104,568,o),
(104,446,cs),
(104,326,o),
(200,240,o),
(328,240,cs),
(394,240,o),
(456,272,o),
(478,318,c),
(252,288,l),
(252,0,l)
);
},
{
closed = 1;
nodes = (
(296,362,o),
(272,396,o),
(272,440,cs),
(272,486,o),
(296,516,o),
(330,516,cs),
(364,516,o),
(390,486,o),
(390,440,cs),
(390,396,o),
(364,362,o),
(330,362,cs)
);
},
{
closed = 1;
nodes = (
(620,-592,l),
(676,-518,l),
(688,-518,l),
(774,-592,l),
(1094,-592,l),
(1094,-218,ls),
(1094,-104,o),
(1008,-20,o),
(886,-20,cs),
(770,-20,o),
(686,-96,o),
(686,-202,cs),
(686,-298,o),
(764,-368,o),
(872,-368,cs),
(928,-368,o),
(978,-342,o),
(996,-304,c),
(836,-330,l),
(836,-434,l),
(810,-434,l),
(684,-336,l),
(642,-336,l),
(572,-430,l),
(564,-430,l),
(540,-334,o),
(480,-278,o),
(382,-270,c),
(400,-470,l),
(468,-482,o),
(506,-522,o),
(516,-592,c)
);
},
{
closed = 1;
nodes = (
(846,-266,o),
(826,-238,o),
(826,-202,cs),
(826,-166,o),
(846,-140,o),
(874,-140,cs),
(904,-140,o),
(924,-166,o),
(924,-202,cs),
(924,-238,o),
(904,-266,o),
(874,-266,cs)
);
},
{
closed = 1;
nodes = (
(396,-608,o),
(490,-520,o),
(490,-400,cs),
(490,-278,o),
(396,-192,o),
(268,-192,cs),
(134,-192,o),
(38,-278,o),
(38,-400,cs),
(38,-520,o),
(134,-608,o),
(268,-608,cs)
);
},
{
closed = 1;
nodes = (
(236,-478,o),
(212,-446,o),
(212,-404,cs),
(212,-362,o),
(236,-330,o),
(268,-330,cs),
(302,-330,o),
(326,-362,o),
(326,-404,cs),
(326,-446,o),
(302,-478,o),
(268,-478,cs)
);
},
{
closed = 1;
nodes = (
(602,-132,l),
(400,-132,l),
(302,-256,l),
(442,-344,l)
);
}
);
};
layerId = "62B593D9-868E-44D5-ADEC-BC5BA63F3FC1";
name = "Extra Bold{800,0}";
shapes = (
{
closed = 1;
nodes = (
(576,0,ls),
(886,0,o),
(1090,174,o),
(1090,446,cs),
(1090,672,o),
(922,820,o),
(658,820,cs),
(322,820,l),
(390,738,l),
(390,814,ls),
(390,892,o),
(436,930,o),
(528,930,cs),
(654,930,o),
(818,898,o),
(930,898,cs),
(1002,898,o),
(1050,908,o),
(1098,926,c),
(1092,1182,l),
(1042,1166,o),
(990,1160,o),
(918,1160,cs),
(800,1160,o),
(624,1192,o),
(482,1192,cs),
(210,1192,o),
(56,1042,o),
(56,778,cs),
(56,628,l),
(560,628,ls),
(674,628,o),
(738,570,o),
(738,446,cs),
(738,334,o),
(682,262,o),
(600,262,cs),
(462,262,l),
(590,74,l),
(590,422,ls),
(590,558,o),
(486,658,o),
(342,658,cs),
(206,658,o),
(104,568,o),
(104,446,cs),
(104,326,o),
(200,242,o),
(328,242,cs),
(394,242,o),
(456,272,o),
(478,318,c),
(252,290,l),
(252,0,l)
);
},
{
closed = 1;
nodes = (
(296,364,o),
(272,396,o),
(272,440,cs),
(272,486,o),
(296,516,o),
(330,516,cs),
(364,516,o),
(390,486,o),
(390,440,cs),
(390,396,o),
(364,364,o),
(330,364,cs)
);
},
{
closed = 1;
nodes = (
(620,-592,l),
(676,-518,l),
(688,-518,l),
(774,-592,l),
(1094,-592,l),
(1094,-218,ls),
(1094,-104,o),
(1006,-20,o),
(886,-20,cs),
(770,-20,o),
(686,-98,o),
(686,-204,cs),
(686,-298,o),
(764,-368,o),
(872,-368,cs),
(926,-368,o),
(978,-342,o),
(996,-304,c),
(836,-330,l),
(836,-434,l),
(810,-434,l),
(686,-336,l),
(642,-336,l),
(572,-430,l),
(564,-430,l),
(540,-334,o),
(480,-278,o),
(382,-270,c),
(400,-470,l),
(468,-482,o),
(506,-522,o),
(516,-592,c)
);
},
{
closed = 1;
nodes = (
(846,-266,o),
(826,-240,o),
(826,-204,cs),
(826,-166,o),
(846,-140,o),
(876,-140,cs),
(904,-140,o),
(926,-166,o),
(926,-204,cs),
(926,-240,o),
(904,-266,o),
(876,-266,cs)
);
},
{
closed = 1;
nodes = (
(398,-610,o),
(490,-522,o),
(490,-402,cs),
(490,-280,o),
(398,-192,o),
(270,-192,cs),
(136,-192,o),
(40,-280,o),
(40,-402,cs),
(40,-522,o),
(136,-610,o),
(270,-610,cs)
);
},
{
closed = 1;
nodes = (
(236,-478,o),
(212,-446,o),
(212,-404,cs),
(212,-362,o),
(236,-330,o),
(270,-330,cs),
(302,-330,o),
(326,-362,o),
(326,-404,cs),
(326,-446,o),
(302,-478,o),
(270,-478,cs)
);
},
{
closed = 1;
nodes = (
(604,-132,l),
(400,-132,l),
(302,-256,l),
(442,-344,l)
);
}
);
width = 1164;
}
);
unicode = 3600;
}
{
glyphname = "thoNangmontho-thai";
kernRight = "thoThahan-thai";
layers = (
{
anchors = (
{
name = bottom;
pos = (960,0);
},
{
name = top;
pos = (960,1174);
}
);
layerId = "B1F27B51-9973-4381-9301-4FE46FE1CA59";
shapes = (
{
closed = 1;
nodes = (
(278,0,l),
(278,322,ls),
(278,482,o),
(292,534,o),
(380,658,cs),
(606,984,ls),
(688,1102,o),
(742,1144,o),
(808,1144,cs),
(876,1144,o),
(914,1100,o),
(914,1022,cs),
(914,0,l),
(960,0,l),
(960,1022,ls),
(960,1130,o),
(906,1188,o),
(808,1188,cs),
(724,1188,o),
(668,1144,o),
(572,1008,cs),
(488,890,l),
(482,890,l),
(482,1174,l),
(436,1174,l),
(436,1150,ls),
(436,1036,o),
(370,930,o),
(290,910,c),
(298,904,l),
(332,922,o),
(352,966,o),
(352,1018,cs),
(352,1116,o),
(294,1188,o),
(210,1188,cs),
(126,1188,o),
(66,1116,o),
(66,1018,cs),
(66,920,o),
(126,848,o),
(212,848,cs),
(306,848,o),
(382,898,o),
(430,988,c),
(436,988,l),
(438,832,o),
(430,808,o),
(344,682,cs),
(248,544,o),
(232,486,o),
(232,322,cs),
(232,0,l)
);
},
{
closed = 1;
nodes = (
(152,892,o),
(110,944,o),
(110,1018,cs),
(110,1092,o),
(152,1144,o),
(210,1144,cs),
(266,1144,o),
(308,1090,o),
(308,1018,cs),
(308,946,o),
(266,892,o),
(210,892,cs)
);
}
);
width = 1162;
},
{
anchors = (
{
name = bottom;
pos = (1102,0);
},
{
name = top;
pos = (1102,1174);
}
);
layerId = "C698F293-3EC0-4A5A-A3A0-0FDB1F5CF265";
shapes = (
{
closed = 1;
nodes = (
(430,0,l),
(430,402,ls),
(430,530,o),
(450,592,o),
(514,672,cs),
(750,954,ls),
(800,1014,o),
(822,1032,o),
(856,1032,cs),
(906,1032,o),
(930,992,o),
(930,914,cs),
(930,0,l),
(1102,0,l),
(1102,942,ls),
(1102,1106,o),
(1036,1188,o),
(900,1188,cs),
(816,1188,o),
(756,1158,o),
(698,1088,cs),
(632,1010,l),
(622,1010,l),
(622,1174,l),
(482,1174,l),
(482,1118,ls),
(482,1016,o),
(430,970,o),
(322,970,c),
(360,882,l),
(392,912,o),
(408,956,o),
(408,1006,cs),
(408,1112,o),
(332,1188,o),
(226,1188,cs),
(118,1188,o),
(40,1110,o),
(40,1004,cs),
(40,898,o),
(122,822,o),
(238,822,cs),
(314,822,o),
(398,854,o),
(466,908,c),
(478,908,l),
(468,848,o),
(442,802,o),
(376,728,cs),
(286,628,o),
(258,552,o),
(258,402,cs),
(258,0,l)
);
},
{
closed = 1;
nodes = (
(188,912,o),
(158,950,o),
(158,1004,cs),
(158,1056,o),
(190,1094,o),
(232,1094,cs),
(274,1094,o),
(304,1056,o),
(304,1004,cs),
(304,950,o),
(274,912,o),
(232,912,cs)
);
}
);
width = 1274;
},
{
anchors = (
{
name = bottom;
pos = (1290,0);
},
{
name = top;
pos = (1276,1174);
}
);
layerId = "5C20EF92-B63D-42A8-8878-93C2863E0093";
shapes = (
{
closed = 1;
nodes = (
(606,0,l),
(606,396,ls),
(606,490,o),
(616,534,o),
(650,588,cs),
(774,786,ls),
(800,828,o),
(814,842,o),
(840,842,cs),
(870,842,o),
(888,820,o),
(888,782,cs),
(888,0,l),
(1290,0,l),
(1290,914,ls),
(1290,1092,o),
(1190,1192,o),
(1008,1192,cs),
(890,1192,o),
(804,1150,o),
(738,1060,cs),
(708,1022,l),
(696,1022,l),
(696,1174,l),
(500,1174,l),
(500,1118,ls),
(500,1028,o),
(476,986,o),
(406,956,c),
(454,884,l),
(476,914,o),
(488,948,o),
(488,980,cs),
(488,1102,o),
(390,1192,o),
(260,1192,cs),
(114,1192,o),
(14,1094,o),
(14,954,cs),
(14,824,o),
(110,730,o),
(240,730,cs),
(292,730,o),
(340,746,o),
(380,774,c),
(392,774,l),
(358,738,o),
(330,704,o),
(302,668,cs),
(246,590,o),
(218,506,o),
(218,404,cs),
(218,0,l)
);
},
{
closed = 1;
nodes = (
(210,894,o),
(186,922,o),
(186,964,cs),
(186,1006,o),
(210,1036,o),
(242,1036,cs),
(274,1036,o),
(296,1004,o),
(296,964,cs),
(296,924,o),
(274,894,o),
(242,894,cs)
);
}
);
width = 1394;
}
);
unicode = 3601;
}
{
glyphname = "thoPhuthao-thai";
kernLeft = "khoKhon-thai";
kernRight = "moMa-thai";
layers = (
{
anchors = (
{
name = bottom;
pos = (1632,0);
},
{
name = top;
pos = (1632,1174);
}
);
layerId = "B1F27B51-9973-4381-9301-4FE46FE1CA59";
shapes = (
{
closed = 1;
nodes = (
(242,0,l),
(480,106,o),
(768,372,o),
(768,588,cs),
(768,686,o),
(710,756,o),
(626,756,cs),
(542,756,o),
(484,686,o),
(484,588,cs),
(484,490,o),
(542,420,o),
(626,420,cs),
(668,420,o),
(692,434,o),
(722,474,c),
(702,466,l),
(606,290,o),
(424,130,o),
(224,40,c),
(242,24,l),
(242,882,ls),
(242,1030,o),
(300,1114,o),
(414,1138,c),
(620,978,l),
(642,978,l),
(848,1138,l),
(962,1114,o),
(1018,1030,o),
(1018,882,cs),
(1018,306,l),
(1050,290,l),
(1404,262,o),
(1586,184,o),
(1586,62,cs),
(1586,0,l),
(1632,0,l),
(1632,1174,l),
(1586,1174,l),
(1586,126,l),
(1608,126,l),
(1578,236,o),
(1384,308,o),
(1052,334,c),
(1064,312,l),
(1064,882,ls),
(1064,1054,o),
(994,1152,o),
(844,1188,c),
(634,1024,l),
(628,1024,l),
(418,1188,l),
(266,1152,o),
(196,1054,o),
(196,882,cs),
(196,0,l)
);
},
{
closed = 1;
nodes = (
(570,462,o),
(528,516,o),
(528,588,cs),
(528,660,o),
(570,712,o),
(626,712,cs),
(684,712,o),
(724,660,o),
(724,588,cs),
(724,516,o),
(684,462,o),
(626,462,cs)
);
},
{
closed = 1;
nodes = (
(1038,-14,o),
(1102,62,o),
(1102,168,cs),
(1102,274,o),
(1038,350,o),
(948,350,cs),
(856,350,o),
(792,274,o),
(792,168,cs),
(792,60,o),
(856,-14,o),
(948,-14,cs)
);
},
{
closed = 1;
nodes = (
(882,30,o),
(836,86,o),
(836,168,cs),
(836,248,o),
(882,306,o),
(948,306,cs),
(1012,306,o),
(1058,248,o),
(1058,168,cs),
(1058,86,o),
(1012,30,o),
(948,30,cs)
);
}
);
width = 1834;
},
{
anchors = (
{
name = bottom;
pos = (1698,0);
},
{
name = top;
pos = (1698,1174);
}
);
layerId = "C698F293-3EC0-4A5A-A3A0-0FDB1F5CF265";
shapes = (
{
closed = 1;
nodes = (
(332,0,l),
(630,72,o),
(808,274,o),
(808,576,cs),
(808,702,o),
(730,782,o),
(616,782,cs),
(504,782,o),
(428,702,o),
(428,588,cs),
(428,480,o),
(506,402,o),
(614,402,cs),
(682,402,o),
(738,430,o),
(770,480,c),
(654,480,l),
(634,296,o),
(510,180,o),
(272,122,c),
(334,62,l),
(334,828,ls),
(334,932,o),
(384,1002,o),
(470,1018,c),
(632,898,l),
(678,898,l),
(838,1018,l),
(924,1004,o),
(970,938,o),
(970,828,cs),
(970,384,l),
(1112,312,l),
(1372,288,o),
(1528,188,o),
(1528,46,cs),
(1528,0,l),
(1698,0,l),
(1698,1174,l),
(1526,1174,l),
(1526,222,l),
(1550,236,l),
(1516,344,o),
(1340,422,o),
(1100,440,c),
(1140,386,l),
(1140,810,ls),
(1140,1022,o),
(1026,1168,o),
(848,1188,c),
(660,1042,l),
(648,1042,l),
(460,1188,l),
(284,1168,o),
(168,1018,o),
(168,810,cs),
(168,0,l)
);
},
{
closed = 1;
nodes = (
(568,494,o),
(536,534,o),
(536,588,cs),
(536,642,o),
(568,680,o),
(614,680,cs),
(658,680,o),
(690,642,o),
(690,588,cs),
(690,534,o),
(658,494,o),
(614,494,cs)
);
},
{
closed = 1;
nodes = (
(1148,-14,o),
(1238,74,o),
(1238,200,cs),
(1238,320,o),
(1148,408,o),
(1026,408,cs),
(900,408,o),
(808,320,o),
(808,200,cs),
(808,74,o),
(900,-14,o),
(1026,-14,cs)
);
},
{
closed = 1;
nodes = (
(976,96,o),
(942,138,o),
(942,200,cs),
(942,262,o),
(976,306,o),
(1026,306,cs),
(1074,306,o),
(1112,260,o),
(1112,200,cs),
(1112,140,o),
(1074,96,o),
(1026,96,cs)
);
}
);
width = 1870;
},
{
anchors = (
{
name = bottom;
pos = (1862,0);
},
{
name = top;
pos = (1862,1174);
}
);
layerId = "5C20EF92-B63D-42A8-8878-93C2863E0093";
shapes = (
{
closed = 1;
nodes = (
(418,0,l),
(666,90,o),
(874,274,o),
(874,510,cs),
(874,662,o),
(790,752,o),
(648,752,cs),
(512,752,o),
(414,656,o),
(414,522,cs),
(414,400,o),
(492,318,o),
(612,318,cs),
(680,318,o),
(736,344,o),
(768,392,c),
(602,416,l),
(562,298,o),
(486,224,o),
(376,190,c),
(432,144,l),
(432,744,ls),
(432,814,o),
(472,862,o),
(534,872,c),
(658,792,l),
(698,792,l),
(822,872,l),
(882,862,o),
(918,816,o),
(918,744,cs),
(918,404,l),
(1208,226,l),
(1374,206,o),
(1482,126,o),
(1482,24,cs),
(1482,0,l),
(1864,0,l),
(1864,1174,l),
(1468,1174,l),
(1468,296,l),
(1524,334,l),
(1500,400,o),
(1386,452,o),
(1240,466,c),
(1292,360,l),
(1292,736,ls),
(1292,1002,o),
(1144,1166,o),
(878,1192,c),
(684,1064,l),
(672,1064,l),
(478,1192,l),
(236,1170,o),
(100,1008,o),
(100,736,cs),
(100,0,l)
);
},
{
closed = 1;
nodes = (
(598,462,o),
(576,490,o),
(576,532,cs),
(576,572,o),
(598,604,o),
(630,604,cs),
(662,604,o),
(684,572,o),
(684,532,cs),
(684,490,o),
(662,462,o),
(630,462,cs)
);
},
{
closed = 1;
nodes = (
(1188,-18,o),
(1292,82,o),
(1292,222,cs),
(1292,360,o),
(1188,462,o),
(1046,462,cs),
(892,462,o),
(792,368,o),
(792,222,cs),
(792,82,o),
(900,-18,o),
(1046,-18,cs)
);
},
{
closed = 1;
nodes = (
(1022,148,o),
(996,180,o),
(996,222,cs),
(996,264,o),
(1022,296,o),
(1054,296,cs),
(1086,296,o),
(1110,264,o),
(1110,222,cs),
(1110,180,o),
(1086,148,o),
(1054,148,cs)
);
}
);
width = 1966;
},
{
anchors = (
{
name = bottom;
pos = (1796,0);
},
{
name = top;
pos = (1796,1174);
}
);
associatedMasterId = "5C20EF92-B63D-42A8-8878-93C2863E0093";
attr = {
coordinates = (
700
);
};
layerId = "6CD900E4-60AC-43E3-B241-9DF91E1ED0E9";
name = "Bold{700,0}";
shapes = (
{
closed = 1;
nodes = (
(384,0,l),
(690,96,o),
(848,304,o),
(848,536,cs),
(848,678,o),
(766,766,o),
(638,766,cs),
(510,766,o),
(418,674,o),
(418,548,cs),
(418,434,o),
(494,352,o),
(614,352,cs),
(682,352,o),
(738,380,o),
(770,428,c),
(624,442,l),
(594,306,o),
(504,208,o),
(334,162,c),
(392,110,l),
(392,776,ls),
(392,864,o),
(440,918,o),
(510,930,c),
(648,834,l),
(690,834,l),
(830,930,l),
(898,920,o),
(940,864,o),
(940,776,cs),
(940,398,l),
(1170,262,l),
(1354,242,o),
(1502,164,o),
(1502,34,cs),
(1502,0,l),
(1798,0,l),
(1798,1174,l),
(1490,1174,l),
(1490,266,l),
(1534,296,l),
(1504,384,o),
(1356,442,o),
(1184,456,c),
(1232,370,l),
(1232,766,ls),
(1232,1008,o),
(1098,1168,o),
(866,1190,c),
(674,1056,l),
(664,1056,l),
(470,1190,l),
(254,1170,o),
(128,1012,o),
(128,766,cs),
(128,0,l)
);
},
{
closed = 1;
nodes = (
(586,474,o),
(560,506,o),
(560,554,cs),
(560,600,o),
(586,634,o),
(624,634,cs),
(660,634,o),
(686,600,o),
(686,554,cs),
(686,508,o),
(660,474,o),
(624,474,cs)
);
},
{
closed = 1;
nodes = (
(1206,-16,o),
(1304,80,o),
(1304,214,cs),
(1304,344,o),
(1206,440,o),
(1072,440,cs),
(932,440,o),
(834,354,o),
(834,214,cs),
(834,80,o),
(932,-16,o),
(1072,-16,cs)
);
},
{
closed = 1;
nodes = (
(1036,128,o),
(1008,164,o),
(1008,214,cs),
(1008,264,o),
(1036,302,o),
(1076,302,cs),
(1114,302,o),
(1144,264,o),
(1144,214,cs),
(1144,164,o),
(1114,128,o),
(1076,128,cs)
);
}
);
width = 1997;
},
{
anchors = (
{
name = bottom;
pos = (1844,0);
},
{
name = top;
pos = (1844,1174);
}
);
associatedMasterId = "5C20EF92-B63D-42A8-8878-93C2863E0093";
attr = {
coordinates = (
800
);
};
layerId = "975D8163-591E-42F7-8236-9A58EB4D0D58";
name = "ExtraBold{800,0}";
shapes = (
{
closed = 1;
nodes = (
(416,0,l),
(694,92,o),
(846,280,o),
(846,524,cs),
(846,672,o),
(762,760,o),
(628,760,cs),
(496,760,o),
(400,666,o),
(400,536,cs),
(400,420,o),
(476,336,o),
(598,336,cs),
(666,336,o),
(722,362,o),
(754,410,c),
(598,430,l),
(556,278,o),
(488,204,o),
(370,176,c),
(428,128,l),
(428,760,ls),
(428,840,o),
(472,892,o),
(536,902,c),
(668,814,l),
(710,814,l),
(840,902,l),
(902,892,o),
(944,840,o),
(944,760,cs),
(944,402,l),
(1204,244,l),
(1366,226,o),
(1506,152,o),
(1506,30,cs),
(1506,0,l),
(1846,0,l),
(1846,1174,l),
(1494,1174,l),
(1494,280,l),
(1544,316,l),
(1514,396,o),
(1380,448,o),
(1228,462,c),
(1276,366,l),
(1276,752,ls),
(1276,1006,o),
(1134,1168,o),
(886,1192,c),
(694,1060,l),
(682,1060,l),
(488,1192,l),
(258,1170,o),
(128,1010,o),
(128,752,cs),
(128,0,l)
);
},
{
closed = 1;
nodes = (
(578,468,o),
(554,498,o),
(554,544,cs),
(554,586,o),
(578,620,o),
(612,620,cs),
(646,620,o),
(670,586,o),
(670,544,cs),
(670,498,o),
(646,468,o),
(612,468,cs)
);
},
{
closed = 1;
nodes = (
(1214,-18,o),
(1314,82,o),
(1314,218,cs),
(1314,352,o),
(1214,450,o),
(1076,450,cs),
(932,450,o),
(830,364,o),
(830,218,cs),
(830,82,o),
(932,-18,o),
(1076,-18,cs)
);
},
{
closed = 1;
nodes = (
(1046,138,o),
(1020,170,o),
(1020,218,cs),
(1020,264,o),
(1046,300,o),
(1082,300,cs),
(1118,300,o),
(1144,264,o),
(1144,218,cs),
(1144,172,o),
(1116,138,o),
(1082,138,cs)
);
}
);
width = 2045;
}
);
metricLeft = "toTao-thai";
metricRight = "moMa-thai";
unicode = 3602;
}
{
glyphname = "noNen-thai";
kernLeft = "koKai-thai";
kernRight = "noNu-thai";
layers = (
{
anchors = (
{
name = bottom;
pos = (1592,0);
},
{
name = top;
pos = (1578,1174);
}
);
layerId = "B1F27B51-9973-4381-9301-4FE46FE1CA59";
shapes = (
{
closed = 1;
nodes = (
(446,-14,o),
(510,58,o),
(510,162,cs),
(510,266,o),
(450,340,o),
(364,340,cs),
(308,340,o),
(256,304,o),
(240,252,c),
(254,252,l),
(254,472,ls),
(254,632,o),
(318,714,o),
(424,698,cs),
(474,690,l),
(474,736,l),
(162,782,l),
(198,738,l),
(198,790,ls),
(198,1008,o),
(342,1146,o),
(566,1146,cs),
(792,1146,o),
(936,1008,o),
(936,790,cs),
(936,0,l),
(982,0,l),
(982,62,ls),
(982,184,o),
(1176,282,o),
(1484,316,c),
(1484,324,l),
(1578,336,l),
(1578,1174,l),
(1532,1174,l),
(1532,338,l),
(1544,360,l),
(1226,338,o),
(994,248,o),
(962,132,c),
(982,132,l),
(982,790,ls),
(982,1036,o),
(820,1192,o),
(566,1192,cs),
(314,1192,o),
(152,1036,o),
(152,790,cs),
(152,738,l),
(312,714,l),
(312,706,l),
(246,680,o),
(208,598,o),
(208,472,cs),
(208,162,ls),
(208,58,o),
(272,-14,o),
(360,-14,cs)
);
},
{
closed = 1;
nodes = (
(298,30,o),
(254,84,o),
(254,162,cs),
(254,240,o),
(298,296,o),
(360,296,cs),
(422,296,o),
(466,240,o),
(466,162,cs),
(466,84,o),
(422,30,o),
(360,30,cs)
);
},
{
closed = 1;
nodes = (
(1636,-14,o),
(1700,62,o),
(1700,172,cs),
(1700,278,o),
(1638,354,o),
(1546,354,cs),
(1452,354,o),
(1390,278,o),
(1390,172,cs),
(1390,62,o),
(1454,-14,o),
(1546,-14,cs)
);
},
{
closed = 1;
nodes = (
(1482,30,o),
(1434,90,o),
(1434,172,cs),
(1434,254,o),
(1482,312,o),
(1546,312,cs),
(1610,312,o),
(1656,254,o),
(1656,172,cs),
(1656,90,o),
(1610,30,o),
(1546,30,cs)
);
}
);
width = 1810;
},
{
anchors = (
{
name = bottom;
pos = (1658,0);
},
{
name = top;
pos = (1644,1174);
}
);
layerId = "C698F293-3EC0-4A5A-A3A0-0FDB1F5CF265";
shapes = (
{
closed = 1;
nodes = (
(500,-14,o),
(584,72,o),
(584,190,cs),
(584,308,o),
(500,392,o),
(384,392,cs),
(312,392,o),
(252,362,o),
(222,310,c),
(348,310,l),
(348,400,ls),
(348,550,o),
(408,628,o),
(514,616,cs),
(568,610,l),
(568,744,l),
(254,782,l),
(276,680,l),
(276,726,ls),
(276,920,o),
(398,1042,o),
(590,1042,cs),
(772,1042,o),
(886,936,o),
(886,768,cs),
(886,0,l),
(1058,0,l),
(1058,62,ls),
(1058,206,o),
(1230,306,o),
(1502,324,c),
(1502,350,l),
(1644,384,l),
(1644,1174,l),
(1472,1174,l),
(1472,386,l),
(1514,452,l),
(1250,436,o),
(1074,360,o),
(1034,246,c),
(1058,230,l),
(1058,766,ls),
(1058,1028,o),
(876,1198,o),
(590,1198,cs),
(294,1198,o),
(106,1012,o),
(106,718,cs),
(106,672,l),
(330,646,l),
(330,634,l),
(226,602,o),
(178,522,o),
(178,380,cs),
(178,196,ls),
(178,74,o),
(264,-14,o),
(384,-14,cs)
);
},
{
closed = 1;
nodes = (
(340,92,o),
(306,132,o),
(306,190,cs),
(306,248,o),
(340,290,o),
(386,290,cs),
(432,290,o),
(466,248,o),
(466,190,cs),
(466,132,o),
(432,92,o),
(386,92,cs)
);
},
{
closed = 1;
nodes = (
(1688,-14,o),
(1784,82,o),
(1784,216,cs),
(1784,340,o),
(1688,430,o),
(1556,430,cs),
(1428,430,o),
(1334,342,o),
(1334,216,cs),
(1334,82,o),
(1428,-14,o),
(1556,-14,cs)
);
},
{
closed = 1;
nodes = (
(1504,106,o),
(1468,152,o),
(1468,216,cs),
(1468,280,o),
(1504,326,o),
(1556,326,cs),
(1608,326,o),
(1646,280,o),
(1646,216,cs),
(1646,152,o),
(1608,106,o),
(1556,106,cs)
);
}
);
width = 1858;
},
{
anchors = (
{
name = bottom;
pos = (1832,0);
},
{
name = top;
pos = (1816,1174);
}
);
layerId = "5C20EF92-B63D-42A8-8878-93C2863E0093";
shapes = (
{
closed = 1;
nodes = (
(522,-18,o),
(632,80,o),
(632,216,cs),
(632,344,o),
(532,438,o),
(394,438,cs),
(320,438,o),
(250,406,o),
(232,360,c),
(478,360,l),
(478,456,ls),
(478,506,o),
(504,534,o),
(552,534,cs),
(628,534,l),
(628,752,l),
(376,752,l),
(454,682,l),
(454,728,ls),
(454,834,o),
(518,892,o),
(636,892,cs),
(756,892,o),
(822,834,o),
(822,728,cs),
(822,0,l),
(1218,0,l),
(1218,24,ls),
(1218,132,o),
(1316,208,o),
(1474,226,c),
(1474,322,l),
(1816,414,l),
(1816,1174,l),
(1422,1174,l),
(1422,360,l),
(1474,466,l),
(1306,454,o),
(1184,404,o),
(1160,334,c),
(1218,296,l),
(1218,756,ls),
(1218,1028,o),
(1000,1198,o),
(650,1198,cs),
(292,1198,o),
(66,1012,o),
(66,722,cs),
(66,636,l),
(270,636,l),
(270,624,l),
(160,592,o),
(104,518,o),
(104,400,cs),
(104,238,ls),
(104,90,o),
(216,-18,o),
(372,-18,cs)
);
},
{
closed = 1;
nodes = (
(356,140,o),
(332,172,o),
(332,216,cs),
(332,258,o),
(356,290,o),
(388,290,cs),
(420,290,o),
(446,258,o),
(446,216,cs),
(446,172,o),
(420,140,o),
(388,140,cs)
);
},
{
closed = 1;
nodes = (
(1798,-18,o),
(1918,94,o),
(1918,246,cs),
(1918,392,o),
(1798,498,o),
(1634,498,cs),
(1476,498,o),
(1362,392,o),
(1362,246,cs),
(1362,92,o),
(1476,-18,o),
(1634,-18,cs)
);
},
{
closed = 1;
nodes = (
(1598,162,o),
(1570,198,o),
(1570,246,cs),
(1570,294,o),
(1598,328,o),
(1634,328,cs),
(1670,328,o),
(1696,292,o),
(1696,246,cs),
(1696,198,o),
(1670,162,o),
(1634,162,cs)
);
}
);
width = 1962;
}
);
metricLeft = "thoThung-thai";
metricRight = "noNu-thai";
unicode = 3603;
}
{
glyphname = "doDek-thai";
kernLeft = "khoKhwai-thai";
kernRight = "khoKhwai-thai";
layers = (
{
anchors = (
{
name = bottom;
pos = (1062,0);
},
{
name = top;
pos = (1048,1174);
}
);
layerId = "B1F27B51-9973-4381-9301-4FE46FE1CA59";
shapes = (
{
closed = 1;
nodes = (
(240,0,l),
(530,130,o),
(766,402,o),
(766,602,cs),
(766,700,o),
(706,770,o),
(622,770,cs),
(538,770,o),
(482,700,o),
(482,602,cs),
(482,504,o),
(538,434,o),
(622,434,cs),
(664,434,o),
(690,448,o),
(720,488,c),
(698,482,l),
(606,298,o),
(430,134,o),
(222,40,c),
(240,24,l),
(240,750,ls),
(240,992,o),
(394,1146,o),
(634,1146,cs),
(866,1146,o),
(1016,992,o),
(1016,750,cs),
(1016,0,l),
(1062,0,l),
(1062,750,ls),
(1062,1020,o),
(896,1192,o),
(634,1192,cs),
(364,1192,o),
(194,1020,o),
(194,750,cs),
(194,0,l)
);
},
{
closed = 1;
nodes = (
(566,478,o),
(526,530,o),
(526,602,cs),
(526,674,o),
(566,728,o),
(622,728,cs),
(680,728,o),
(722,674,o),
(722,602,cs),
(722,530,o),
(680,478,o),
(622,478,cs)
);
}
);
width = 1256;
},
{
anchors = (
{
name = bottom;
pos = (1138,0);
},
{
name = top;
pos = (1122,1174);
}
);
layerId = "C698F293-3EC0-4A5A-A3A0-0FDB1F5CF265";
shapes = (
{
closed = 1;
nodes = (
(328,0,l),
(638,72,o),
(826,296,o),
(826,588,cs),
(826,714,o),
(750,794,o),
(636,794,cs),
(524,794,o),
(446,714,o),
(446,600,cs),
(446,492,o),
(524,414,o),
(632,414,cs),
(700,414,o),
(756,442,o),
(788,492,c),
(672,492,l),
(650,310,o),
(508,178,o),
(270,122,c),
(332,62,l),
(332,750,ls),
(332,928,o),
(456,1042,o),
(650,1042,cs),
(844,1042,o),
(968,928,o),
(968,750,cs),
(968,0,l),
(1138,0,l),
(1138,768,ls),
(1138,1030,o),
(948,1198,o),
(650,1198,cs),
(354,1198,o),
(164,1030,o),
(164,768,cs),
(164,0,l)
);
},
{
closed = 1;
nodes = (
(586,506,o),
(556,546,o),
(556,600,cs),
(556,654,o),
(586,690,o),
(632,690,cs),
(676,690,o),
(708,654,o),
(708,600,cs),
(708,546,o),
(676,506,o),
(632,506,cs)
);
}
);
width = 1302;
},
{
anchors = (
{
name = bottom;
pos = (1288,0);
},
{
name = top;
pos = (1272,1174);
}
);
layerId = "5C20EF92-B63D-42A8-8878-93C2863E0093";
shapes = (
{
closed = 1;
nodes = (
(414,0,l),
(692,100,o),
(884,318,o),
(884,532,cs),
(884,678,o),
(788,774,o),
(642,774,cs),
(506,774,o),
(408,676,o),
(408,544,cs),
(408,422,o),
(488,340,o),
(608,340,cs),
(676,340,o),
(732,366,o),
(764,414,c),
(598,430,l),
(558,304,o),
(480,224,o),
(372,190,c),
(428,144,l),
(428,690,ls),
(428,820,o),
(522,898,o),
(676,898,cs),
(826,898,o),
(914,822,o),
(914,690,cs),
(914,0,l),
(1288,0,l),
(1288,702,ls),
(1288,1010,o),
(1064,1198,o),
(696,1198,cs),
(324,1198,o),
(96,1008,o),
(96,702,cs),
(96,0,l)
);
},
{
closed = 1;
nodes = (
(594,482,o),
(572,512,o),
(572,554,cs),
(572,594,o),
(596,626,o),
(626,626,cs),
(656,626,o),
(680,594,o),
(680,554,cs),
(680,512,o),
(658,482,o),
(626,482,cs)
);
}
);
width = 1384;
},
{
anchors = (
{
name = bottom;
pos = (1228,0);
},
{
name = top;
pos = (1214,1174);
}
);
associatedMasterId = "5C20EF92-B63D-42A8-8878-93C2863E0093";
attr = {
coordinates = (
700
);
};
background = {
shapes = (
{
closed = 0;
nodes = (
(340,174,l),
(506,234,o),
(598,340,o),
(598,448,cs)
);
}
);
};
layerId = "81E7333C-6CA6-4187-930F-D50A1387B928";
name = "Bold{700,0}";
shapes = (
{
closed = 1;
nodes = (
(380,0,l),
(688,96,o),
(862,322,o),
(862,554,cs),
(862,698,o),
(770,782,o),
(642,782,cs),
(514,782,o),
(424,692,o),
(424,566,cs),
(424,452,o),
(500,370,o),
(618,370,cs),
(686,370,o),
(742,398,o),
(774,446,c),
(628,456,l),
(598,318,o),
(502,208,o),
(330,162,c),
(390,110,l),
(390,714,ls),
(390,866,o),
(498,956,o),
(666,956,cs),
(832,956,o),
(936,866,o),
(936,714,cs),
(936,0,l),
(1228,0,l),
(1228,728,ls),
(1228,1018,o),
(1020,1198,o),
(678,1198,cs),
(336,1198,o),
(124,1018,o),
(124,728,cs),
(124,0,l)
);
},
{
closed = 1;
nodes = (
(590,492,o),
(566,524,o),
(566,572,cs),
(566,618,o),
(590,652,o),
(628,652,cs),
(664,652,o),
(690,618,o),
(690,572,cs),
(690,524,o),
(664,492,o),
(628,492,cs)
);
}
);
width = 1352;
},
{
anchors = (
{
name = bottom;
pos = (1258,0);
},
{
name = top;
pos = (1242,1174);
}
);
associatedMasterId = "5C20EF92-B63D-42A8-8878-93C2863E0093";
attr = {
coordinates = (
800
);
};
background = {
shapes = (
{
closed = 0;
nodes = (
(340,174,l),
(506,234,o),
(598,340,o),
(598,448,cs)
);
}
);
};
layerId = "98DB0A81-3398-4F07-93CB-A2A617BF6647";
name = "ExtraBold{800,0}";
shapes = (
{
closed = 1;
nodes = (
(398,0,l),
(702,104,o),
(894,330,o),
(894,544,cs),
(894,692,o),
(798,778,o),
(664,778,cs),
(532,778,o),
(438,684,o),
(438,556,cs),
(438,438,o),
(512,354,o),
(634,354,cs),
(702,354,o),
(758,382,o),
(790,430,c),
(634,444,l),
(600,318,o),
(498,218,o),
(352,176,c),
(408,128,l),
(408,702,ls),
(408,846,o),
(514,928,o),
(672,928,cs),
(828,928,o),
(924,846,o),
(924,702,cs),
(924,0,l),
(1258,0,l),
(1258,716,ls),
(1258,1014,o),
(1040,1198,o),
(686,1198,cs),
(328,1198,o),
(110,1014,o),
(110,716,cs),
(110,0,l)
);
},
{
closed = 1;
nodes = (
(614,488,o),
(590,518,o),
(590,564,cs),
(590,606,o),
(614,638,o),
(648,638,cs),
(682,638,o),
(706,606,o),
(706,564,cs),
(706,518,o),
(682,488,o),
(648,488,cs)
);
}
);
width = 1368;
}
);
metricRight = "=|";
unicode = 3604;
}
{
glyphname = "toTao-thai";
kernLeft = "khoKhon-thai";
kernRight = "khoKhon-thai";
layers = (
{
anchors = (
{
name = bottom;
pos = (1080,0);
},
{
name = top;
pos = (1064,1174);
}
);
layerId = "B1F27B51-9973-4381-9301-4FE46FE1CA59";
shapes = (
{
closed = 1;
nodes = (
(242,0,l),
(532,128,o),
(776,396,o),
(776,588,cs),
(776,686,o),
(716,756,o),
(632,756,cs),
(548,756,o),
(492,686,o),
(492,588,cs),
(492,490,o),
(548,420,o),
(632,420,cs),
(674,420,o),
(700,434,o),
(730,474,c),
(708,466,l),
(610,288,o),
(430,128,o),
(224,40,c),
(242,24,l),
(242,882,ls),
(242,1032,o),
(300,1114,o),
(418,1138,c),
(626,978,l),
(650,978,l),
(860,1138,l),
(978,1114,o),
(1032,1030,o),
(1032,882,cs),
(1032,0,l),
(1080,0,l),
(1080,882,ls),
(1080,1056,o),
(1008,1152,o),
(854,1188,c),
(642,1024,l),
(636,1024,l),
(422,1188,l),
(268,1152,o),
(196,1056,o),
(196,882,cs),
(196,0,l)
);
},
{
closed = 1;
nodes = (
(576,462,o),
(536,516,o),
(536,588,cs),
(536,660,o),
(576,712,o),
(632,712,cs),
(690,712,o),
(732,660,o),
(732,588,cs),
(732,516,o),
(690,462,o),
(632,462,cs)
);
}
);
width = 1276;
},
{
anchors = (
{
name = bottom;
pos = (1160,0);
},
{
name = top;
pos = (1144,1174);
}
);
layerId = "C698F293-3EC0-4A5A-A3A0-0FDB1F5CF265";
shapes = (
{
closed = 1;
nodes = (
(332,0,l),
(650,74,o),
(834,286,o),
(834,576,cs),
(834,702,o),
(756,782,o),
(642,782,cs),
(530,782,o),
(454,702,o),
(454,588,cs),
(454,480,o),
(532,402,o),
(640,402,cs),
(708,402,o),
(764,430,o),
(796,480,c),
(680,480,l),
(658,304,o),
(518,180,o),
(272,122,c),
(334,62,l),
(334,822,ls),
(334,934,o),
(386,1002,o),
(476,1018,c),
(640,898,l),
(686,898,l),
(850,1018,l),
(938,1004,o),
(990,934,o),
(990,822,cs),
(990,0,l),
(1160,0,l),
(1160,804,ls),
(1160,1018,o),
(1044,1168,o),
(862,1188,c),
(670,1042,l),
(658,1042,l),
(466,1188,l),
(284,1168,o),
(168,1018,o),
(168,804,cs),
(168,0,l)
);
},
{
closed = 1;
nodes = (
(594,494,o),
(562,534,o),
(562,588,cs),
(562,642,o),
(594,680,o),
(640,680,cs),
(684,680,o),
(716,642,o),
(716,588,cs),
(716,534,o),
(684,494,o),
(640,494,cs)
);
}
);
width = 1328;
},
{
anchors = (
{
name = bottom;
pos = (1292,0);
},
{
name = top;
pos = (1278,1174);
}
);
layerId = "5C20EF92-B63D-42A8-8878-93C2863E0093";
shapes = (
{
closed = 1;
nodes = (
(418,0,l),
(704,102,o),
(888,302,o),
(888,510,cs),
(888,656,o),
(794,752,o),
(648,752,cs),
(512,752,o),
(414,656,o),
(414,522,cs),
(414,400,o),
(492,318,o),
(612,318,cs),
(680,318,o),
(736,344,o),
(768,392,c),
(602,416,l),
(566,308,o),
(496,238,o),
(376,190,c),
(432,144,l),
(432,744,ls),
(432,814,o),
(472,862,o),
(534,872,c),
(658,792,l),
(698,792,l),
(822,872,l),
(882,862,o),
(918,816,o),
(918,744,cs),
(918,0,l),
(1292,0,l),
(1292,736,ls),
(1292,1002,o),
(1144,1166,o),
(878,1192,c),
(684,1064,l),
(672,1064,l),
(478,1192,l),
(236,1170,o),
(100,1008,o),
(100,736,cs),
(100,0,l)
);
},
{
closed = 1;
nodes = (
(598,462,o),
(576,490,o),
(576,532,cs),
(576,572,o),
(598,604,o),
(630,604,cs),
(662,604,o),
(684,572,o),
(684,532,cs),
(684,490,o),
(662,462,o),
(630,462,cs)
);
}
);
width = 1392;
},
{
anchors = (
{
name = bottom;
pos = (1238,0);
},
{
name = top;
pos = (1224,1174);
}
);
associatedMasterId = "5C20EF92-B63D-42A8-8878-93C2863E0093";
attr = {
coordinates = (
700
);
};
background = {
shapes = (
{
closed = 1;
nodes = (
(392,0,l),
(694,88,o),
(882,294,o),
(882,522,cs),
(882,666,o),
(792,750,o),
(664,750,cs),
(536,750,o),
(444,654,o),
(444,534,cs),
(444,420,o),
(520,336,o),
(638,336,cs),
(708,336,o),
(762,366,o),
(794,414,c),
(650,422,l),
(612,286,o),
(510,202,o),
(338,166,c),
(396,110,l),
(396,704,ls),
(396,854,o),
(504,942,o),
(672,942,cs),
(838,942,o),
(942,854,o),
(942,704,cs),
(942,0,l),
(1234,0,l),
(1234,728,ls),
(1234,1018,o),
(1024,1198,o),
(682,1198,cs),
(340,1198,o),
(130,1018,o),
(130,728,cs),
(130,0,l)
);
},
{
closed = 1;
nodes = (
(612,460,o),
(586,492,o),
(586,540,cs),
(586,586,o),
(612,618,o),
(650,618,cs),
(686,618,o),
(712,586,o),
(712,540,cs),
(712,494,o),
(686,460,o),
(650,460,cs)
);
}
);
};
layerId = "791C63BF-19FF-4433-B20E-B872C36AE697";
name = "Bold{700,0}";
shapes = (
{
closed = 1;
nodes = (
(384,0,l),
(692,96,o),
(866,302,o),
(866,536,cs),
(866,678,o),
(776,764,o),
(648,764,cs),
(520,764,o),
(430,674,o),
(430,548,cs),
(430,434,o),
(506,352,o),
(624,352,cs),
(692,352,o),
(746,380,o),
(778,428,c),
(632,442,l),
(602,308,o),
(506,216,o),
(334,162,c),
(392,110,l),
(392,774,ls),
(392,864,o),
(440,918,o),
(510,930,c),
(650,834,l),
(694,834,l),
(834,930,l),
(904,920,o),
(946,864,o),
(946,774,cs),
(946,0,l),
(1238,0,l),
(1238,764,ls),
(1238,1010,o),
(1104,1168,o),
(872,1190,c),
(678,1056,l),
(666,1056,l),
(472,1190,l),
(254,1170,o),
(128,1012,o),
(128,764,cs),
(128,0,l)
);
},
{
closed = 1;
nodes = (
(596,474,o),
(570,506,o),
(570,554,cs),
(570,600,o),
(596,634,o),
(634,634,cs),
(670,634,o),
(696,600,o),
(696,554,cs),
(696,508,o),
(670,474,o),
(634,474,cs)
);
}
);
width = 1366;
},
{
anchors = (
{
name = bottom;
pos = (1266,0);
},
{
name = top;
pos = (1250,1174);
}
);
associatedMasterId = "5C20EF92-B63D-42A8-8878-93C2863E0093";
attr = {
coordinates = (
800
);
};
background = {
shapes = (
{
closed = 1;
nodes = (
(392,0,l),
(694,88,o),
(882,294,o),
(882,522,cs),
(882,666,o),
(792,750,o),
(664,750,cs),
(536,750,o),
(444,654,o),
(444,534,cs),
(444,420,o),
(520,336,o),
(638,336,cs),
(708,336,o),
(762,366,o),
(794,414,c),
(650,422,l),
(612,286,o),
(510,202,o),
(338,166,c),
(396,110,l),
(396,704,ls),
(396,854,o),
(504,942,o),
(672,942,cs),
(838,942,o),
(942,854,o),
(942,704,cs),
(942,0,l),
(1234,0,l),
(1234,728,ls),
(1234,1018,o),
(1024,1198,o),
(682,1198,cs),
(340,1198,o),
(130,1018,o),
(130,728,cs),
(130,0,l)
);
},
{
closed = 1;
nodes = (
(612,460,o),
(586,492,o),
(586,540,cs),
(586,586,o),
(612,618,o),
(650,618,cs),
(686,618,o),
(712,586,o),
(712,540,cs),
(712,494,o),
(686,460,o),
(650,460,cs)
);
}
);
};
layerId = "4D4AA632-68C0-4637-82F2-D0FB6F81F3AE";
name = "ExtraBold{800,0}";
shapes = (
{
closed = 1;
nodes = (
(402,0,l),
(708,102,o),
(898,310,o),
(898,524,cs),
(898,672,o),
(804,760,o),
(670,760,cs),
(538,760,o),
(442,666,o),
(442,536,cs),
(442,420,o),
(516,336,o),
(638,336,cs),
(706,336,o),
(762,362,o),
(794,410,c),
(638,430,l),
(604,310,o),
(500,226,o),
(356,176,c),
(414,128,l),
(414,760,ls),
(414,842,o),
(458,892,o),
(522,902,c),
(654,814,l),
(696,814,l),
(828,902,l),
(892,892,o),
(932,842,o),
(932,760,cs),
(932,0,l),
(1266,0,l),
(1266,750,ls),
(1266,1006,o),
(1124,1168,o),
(876,1192,c),
(680,1060,l),
(670,1060,l),
(476,1192,l),
(244,1170,o),
(114,1008,o),
(114,750,cs),
(114,0,l)
);
},
{
closed = 1;
nodes = (
(620,468,o),
(594,498,o),
(594,544,cs),
(594,586,o),
(620,620,o),
(654,620,cs),
(686,620,o),
(712,586,o),
(712,544,cs),
(712,498,o),
(686,468,o),
(654,468,cs)
);
}
);
width = 1378;
}
);
unicode = 3605;
}
{
glyphname = "thoThung-thai";
kernLeft = "koKai-thai";
kernRight = "koKai-thai";
layers = (
{
anchors = (
{
name = bottom;
pos = (1010,0);
},
{
name = top;
pos = (996,1174);
}
);
layerId = "B1F27B51-9973-4381-9301-4FE46FE1CA59";
shapes = (
{
closed = 1;
nodes = (
(446,-14,o),
(510,58,o),
(510,162,cs),
(510,266,o),
(450,340,o),
(364,340,cs),
(308,340,o),
(256,304,o),
(240,252,c),
(254,252,l),
(254,472,ls),
(254,632,o),
(318,718,o),
(424,702,cs),
(474,694,l),
(474,738,l),
(162,784,l),
(198,740,l),
(198,786,ls),
(198,1006,o),
(346,1146,o),
(580,1146,cs),
(814,1146,o),
(964,1006,o),
(964,786,cs),
(964,0,l),
(1010,0,l),
(1010,786,ls),
(1010,1034,o),
(844,1192,o),
(580,1192,cs),
(318,1192,o),
(152,1034,o),
(152,786,cs),
(152,740,l),
(312,718,l),
(312,710,l),
(246,684,o),
(208,598,o),
(208,472,cs),
(208,162,ls),
(208,58,o),
(272,-14,o),
(360,-14,cs)
);
},
{
closed = 1;
nodes = (
(298,30,o),
(254,84,o),
(254,162,cs),
(254,240,o),
(298,296,o),
(360,296,cs),
(422,296,o),
(466,240,o),
(466,162,cs),
(466,84,o),
(422,30,o),
(360,30,cs)
);
}
);
width = 1204;
},
{
anchors = (
{
name = bottom;
pos = (1086,0);
},
{
name = top;
pos = (1072,1174);
}
);
layerId = "C698F293-3EC0-4A5A-A3A0-0FDB1F5CF265";
shapes = (
{
closed = 1;
nodes = (
(500,-14,o),
(584,72,o),
(584,190,cs),
(584,308,o),
(500,392,o),
(384,392,cs),
(312,392,o),
(252,362,o),
(222,310,c),
(348,310,l),
(348,400,ls),
(348,550,o),
(408,628,o),
(514,616,cs),
(568,610,l),
(568,744,l),
(254,782,l),
(276,680,l),
(276,726,ls),
(276,920,o),
(404,1042,o),
(604,1042,cs),
(794,1042,o),
(914,934,o),
(914,768,cs),
(914,0,l),
(1086,0,l),
(1086,766,ls),
(1086,1028,o),
(898,1198,o),
(604,1198,cs),
(300,1198,o),
(106,1012,o),
(106,718,cs),
(106,672,l),
(330,646,l),
(330,634,l),
(226,602,o),
(178,522,o),
(178,380,cs),
(178,196,ls),
(178,74,o),
(264,-14,o),
(384,-14,cs)
);
},
{
closed = 1;
nodes = (
(340,92,o),
(306,132,o),
(306,190,cs),
(306,248,o),
(340,290,o),
(386,290,cs),
(432,290,o),
(466,248,o),
(466,190,cs),
(466,132,o),
(432,92,o),
(386,92,cs)
);
}
);
width = 1250;
},
{
anchors = (
{
name = bottom;
pos = (1240,0);
},
{
name = top;
pos = (1224,1174);
}
);
layerId = "5C20EF92-B63D-42A8-8878-93C2863E0093";
shapes = (
{
closed = 1;
nodes = (
(522,-18,o),
(632,80,o),
(632,216,cs),
(632,344,o),
(532,438,o),
(394,438,cs),
(322,438,o),
(252,404,o),
(232,362,c),
(478,362,l),
(478,456,ls),
(478,506,o),
(504,534,o),
(552,534,cs),
(628,534,l),
(628,752,l),
(376,752,l),
(454,682,l),
(454,728,ls),
(454,834,o),
(520,892,o),
(642,892,cs),
(766,892,o),
(836,834,o),
(836,728,cs),
(836,0,l),
(1240,0,l),
(1240,756,ls),
(1240,1026,o),
(1014,1198,o),
(658,1198,cs),
(296,1198,o),
(66,1012,o),
(66,722,cs),
(66,636,l),
(270,636,l),
(270,624,l),
(160,592,o),
(104,518,o),
(104,400,cs),
(104,238,ls),
(104,90,o),
(216,-18,o),
(372,-18,cs)
);
},
{
closed = 1;
nodes = (
(356,140,o),
(332,172,o),
(332,216,cs),
(332,258,o),
(356,290,o),
(388,290,cs),
(420,290,o),
(446,258,o),
(446,216,cs),
(446,172,o),
(420,140,o),
(388,140,cs)
);
}
);
width = 1336;
}
);
metricRight = "koKai-thai";
unicode = 3606;
}
{
glyphname = "thoThahan-thai";
kernLeft = "boBaimai-thai";
kernRight = "thoThahan-thai";
layers = (
{
anchors = (
{
name = bottom;
pos = (1048,0);
},
{
name = top;
pos = (1048,1174);
}
);
layerId = "B1F27B51-9973-4381-9301-4FE46FE1CA59";
shapes = (
{
closed = 1;
nodes = (
(366,0,l),
(366,148,ls),
(366,306,o),
(414,462,o),
(564,770,cs),
(698,1046,o),
(784,1144,o),
(890,1144,cs),
(962,1144,o),
(1002,1096,o),
(1002,1014,cs),
(1002,0,l),
(1048,0,l),
(1048,1014,ls),
(1048,1126,o),
(992,1188,o),
(890,1188,cs),
(760,1188,o),
(668,1088,o),
(526,792,cs),
(448,628,o),
(410,538,o),
(372,420,c),
(366,420,l),
(366,1010,ls),
(366,1114,o),
(302,1188,o),
(214,1188,cs),
(126,1188,o),
(66,1114,o),
(66,1010,cs),
(66,906,o),
(124,834,o),
(212,834,cs),
(272,834,o),
(318,866,o),
(334,924,c),
(320,924,l),
(320,0,l)
);
},
{
closed = 1;
nodes = (
(152,878,o),
(110,932,o),
(110,1010,cs),
(110,1088,o),
(152,1144,o),
(214,1144,cs),
(276,1144,o),
(320,1088,o),
(320,1010,cs),
(320,932,o),
(276,878,o),
(214,878,cs)
);
}
);
width = 1250;
},
{
anchors = (
{
name = bottom;
pos = (1138,0);
},
{
name = top;
pos = (1138,1174);
}
);
layerId = "C698F293-3EC0-4A5A-A3A0-0FDB1F5CF265";
shapes = (
{
closed = 1;
nodes = (
(474,0,l),
(474,148,ls),
(474,294,o),
(522,430,o),
(684,766,cs),
(784,972,o),
(832,1032,o),
(898,1032,cs),
(944,1032,o),
(968,1000,o),
(968,942,cs),
(968,0,l),
(1138,0,l),
(1138,956,ls),
(1138,1102,o),
(1058,1188,o),
(924,1188,cs),
(790,1188,o),
(698,1104,o),
(596,888,cs),
(562,818,o),
(528,730,o),
(482,606,c),
(470,606,l),
(470,968,ls),
(470,1098,o),
(382,1188,o),
(258,1188,cs),
(136,1188,o),
(48,1098,o),
(48,976,cs),
(48,850,o),
(136,760,o),
(258,760,cs),
(334,760,o),
(398,794,o),
(430,850,c),
(302,850,l),
(302,0,l)
);
},
{
closed = 1;
nodes = (
(206,868,o),
(170,912,o),
(170,974,cs),
(170,1036,o),
(206,1078,o),
(254,1078,cs),
(302,1078,o),
(338,1036,o),
(338,974,cs),
(338,912,o),
(302,868,o),
(254,868,cs)
);
}
);
width = 1310;
},
{
anchors = (
{
name = bottom;
pos = (1244,0);
},
{
name = top;
pos = (1244,1174);
}
);
layerId = "5C20EF92-B63D-42A8-8878-93C2863E0093";
shapes = (
{
closed = 1;
nodes = (
(568,0,l),
(568,338,ls),
(568,450,o),
(584,514,o),
(652,662,cs),
(710,792,o),
(748,842,o),
(794,842,cs),
(824,842,o),
(840,820,o),
(840,782,cs),
(840,0,l),
(1244,0,l),
(1244,914,ls),
(1244,1092,o),
(1136,1192,o),
(946,1192,cs),
(800,1192,o),
(694,1132,o),
(616,1006,cs),
(600,980,o),
(586,954,o),
(574,926,c),
(562,926,l),
(562,932,ls),
(562,1088,o),
(456,1192,o),
(296,1192,cs),
(142,1192,o),
(30,1086,o),
(30,940,cs),
(30,800,o),
(134,698,o),
(280,698,cs),
(352,698,o),
(414,732,o),
(436,782,c),
(178,782,l),
(178,0,l)
);
},
{
closed = 1;
nodes = (
(244,862,o),
(218,896,o),
(218,942,cs),
(218,988,o),
(244,1020,o),
(280,1020,cs),
(314,1020,o),
(338,988,o),
(338,942,cs),
(338,896,o),
(314,862,o),
(280,862,cs)
);
}
);
width = 1346;
}
);
metricLeft = "noNu-thai";
unicode = 3607;
}
{
glyphname = "thoThong-thai";
layers = (
{
anchors = (
{
name = bottom;
pos = (914,0);
},
{
name = top;
pos = (948,1174);
}
);
layerId = "B1F27B51-9973-4381-9301-4FE46FE1CA59";
shapes = (
{
closed = 1;
nodes = (
(834,-14,o),
(928,70,o),
(928,304,cs),
(928,600,ls),
(928,758,o),
(832,844,o),
(662,844,cs),
(164,844,l),
(194,814,l),
(194,880,ls),
(194,1052,o),
(278,1144,o),
(436,1144,cs),
(550,1144,o),
(688,1108,o),
(814,1108,cs),
(864,1108,o),
(910,1114,o),
(958,1130,c),
(948,1176,l),
(900,1160,o),
(856,1154,o),
(814,1154,cs),
(700,1154,o),
(558,1188,o),
(436,1188,cs),
(246,1188,o),
(148,1078,o),
(148,880,cs),
(148,798,l),
(662,798,ls),
(804,798,o),
(882,728,o),
(882,600,cs),
(882,304,ls),
(882,102,o),
(800,30,o),
(570,30,cs),
(340,30,o),
(258,102,o),
(258,304,cs),
(258,682,l),
(212,682,l),
(212,304,ls),
(212,70,o),
(306,-14,o),
(570,-14,cs)
);
}
);
width = 1112;
},
{
anchors = (
{
name = bottom;
pos = (980,0);
},
{
name = top;
pos = (1024,1174);
}
);
layerId = "C698F293-3EC0-4A5A-A3A0-0FDB1F5CF265";
shapes = (
{
closed = 1;
nodes = (
(886,-14,o),
(994,68,o),
(994,306,cs),
(994,568,ls),
(994,744,o),
(876,842,o),
(662,842,cs),
(222,842,l),
(296,792,l),
(296,852,ls),
(296,972,o),
(358,1038,o),
(472,1038,cs),
(578,1038,o),
(726,1008,o),
(852,1008,cs),
(934,1008,o),
(988,1020,o),
(1038,1040,c),
(1010,1180,l),
(966,1164,o),
(920,1156,o),
(856,1156,cs),
(748,1156,o),
(594,1188,o),
(466,1188,cs),
(256,1188,o),
(120,1050,o),
(120,830,cs),
(120,700,l),
(662,700,ls),
(772,700,o),
(824,650,o),
(824,548,cs),
(824,322,ls),
(824,178,o),
(768,136,o),
(582,136,cs),
(406,136,o),
(354,178,o),
(354,322,cs),
(354,554,l),
(182,554,l),
(182,306,ls),
(182,68,o),
(286,-14,o),
(582,-14,cs)
);
}
);
width = 1154;
},
{
anchors = (
{
name = bottom;
pos = (1132,0);
},
{
name = top;
pos = (1132,1174);
}
);
layerId = "5C20EF92-B63D-42A8-8878-93C2863E0093";
shapes = (
{
closed = 1;
nodes = (
(1008,-18,o),
(1146,78,o),
(1146,344,cs),
(1146,450,ls),
(1146,682,o),
(1020,778,o),
(722,778,cs),
(374,778,l),
(448,728,l),
(448,802,ls),
(448,868,o),
(490,900,o),
(578,900,cs),
(716,900,o),
(880,868,o),
(996,868,cs),
(1066,868,o),
(1112,876,o),
(1160,892,c),
(1160,1182,l),
(1108,1166,o),
(1056,1160,o),
(980,1160,cs),
(852,1160,o),
(674,1192,o),
(524,1192,cs),
(234,1192,o),
(74,1040,o),
(74,766,cs),
(74,574,l),
(568,574,ls),
(704,574,o),
(750,538,o),
(750,434,cs),
(750,366,ls),
(750,294,o),
(718,266,o),
(622,266,cs),
(532,266,o),
(498,294,o),
(498,366,cs),
(498,502,l),
(104,502,l),
(104,344,ls),
(104,78,o),
(240,-18,o),
(622,-18,cs)
);
}
);
width = 1234;
}
);
unicode = 3608;
}
{
glyphname = "noNu-thai";
kernLeft = "boBaimai-thai";
kernRight = "noNu-thai";
layers = (
{
anchors = (
{
name = bottom;
pos = (1022,0);
},
{
name = top;
pos = (1006,1174);
}
);
layerId = "B1F27B51-9973-4381-9301-4FE46FE1CA59";
shapes = (
{
closed = 1;
nodes = (
(366,0,l),
(366,62,ls),
(366,190,o),
(572,286,o),
(912,318,c),
(912,326,l),
(1006,336,l),
(1006,1174,l),
(960,1174,l),
(960,338,l),
(974,360,l),
(622,338,o),
(380,252,o),
(348,132,c),
(366,132,l),
(366,1010,ls),
(366,1114,o),
(302,1188,o),
(214,1188,cs),
(126,1188,o),
(66,1114,o),
(66,1010,cs),
(66,906,o),
(124,834,o),
(212,834,cs),
(272,834,o),
(318,866,o),
(334,924,c),
(320,924,l),
(320,0,l)
);
},
{
closed = 1;
nodes = (
(152,878,o),
(110,932,o),
(110,1010,cs),
(110,1088,o),
(152,1144,o),
(214,1144,cs),
(276,1144,o),
(320,1088,o),
(320,1010,cs),
(320,932,o),
(276,878,o),
(214,878,cs)
);
},
{
closed = 1;
nodes = (
(1064,-14,o),
(1128,62,o),
(1128,172,cs),
(1128,278,o),
(1066,354,o),
(974,354,cs),
(880,354,o),
(818,278,o),
(818,172,cs),
(818,62,o),
(882,-14,o),
(974,-14,cs)
);
},
{
closed = 1;
nodes = (
(908,30,o),
(862,90,o),
(862,172,cs),
(862,254,o),
(910,312,o),
(974,312,cs),
(1038,312,o),
(1086,254,o),
(1086,172,cs),
(1086,90,o),
(1038,30,o),
(974,30,cs)
);
}
);
width = 1238;
},
{
anchors = (
{
name = bottom;
pos = (1110,0);
},
{
name = top;
pos = (1096,1174);
}
);
layerId = "C698F293-3EC0-4A5A-A3A0-0FDB1F5CF265";
shapes = (
{
closed = 1;
nodes = (
(472,0,l),
(472,62,ls),
(472,204,o),
(658,306,o),
(954,324,c),
(954,356,l),
(1096,384,l),
(1096,1174,l),
(924,1174,l),
(924,386,l),
(964,452,l),
(682,434,o),
(492,360,o),
(450,246,c),
(472,230,l),
(472,968,ls),
(472,1096,o),
(384,1188,o),
(258,1188,cs),
(136,1188,o),
(48,1098,o),
(48,976,cs),
(48,850,o),
(136,760,o),
(258,760,cs),
(334,760,o),
(398,794,o),
(430,850,c),
(302,850,l),
(302,0,l)
);
},
{
closed = 1;
nodes = (
(206,868,o),
(170,912,o),
(170,974,cs),
(170,1036,o),
(206,1078,o),
(254,1078,cs),
(302,1078,o),
(338,1036,o),
(338,974,cs),
(338,912,o),
(302,868,o),
(254,868,cs)
);
},
{
closed = 1;
nodes = (
(1140,-14,o),
(1236,82,o),
(1236,216,cs),
(1236,340,o),
(1140,430,o),
(1008,430,cs),
(880,430,o),
(786,340,o),
(786,216,cs),
(786,82,o),
(878,-14,o),
(1008,-14,cs)
);
},
{
closed = 1;
nodes = (
(956,104,o),
(920,152,o),
(920,216,cs),
(920,280,o),
(956,324,o),
(1008,324,cs),
(1060,324,o),
(1096,280,o),
(1096,216,cs),
(1096,152,o),
(1060,104,o),
(1008,104,cs)
);
}
);
width = 1310;
},
{
anchors = (
{
name = bottom;
pos = (1220,0);
},
{
name = top;
pos = (1206,1174);
}
);
layerId = "5C20EF92-B63D-42A8-8878-93C2863E0093";
shapes = (
{
closed = 1;
nodes = (
(570,0,l),
(570,24,ls),
(570,130,o),
(680,208,o),
(856,226,c),
(856,322,l),
(1206,414,l),
(1206,1174,l),
(802,1174,l),
(802,360,l),
(856,466,l),
(670,454,o),
(538,404,o),
(514,334,c),
(570,296,l),
(570,926,ls),
(570,1086,o),
(460,1192,o),
(296,1192,cs),
(142,1192,o),
(30,1086,o),
(30,940,cs),
(30,800,o),
(134,698,o),
(280,698,cs),
(352,698,o),
(414,732,o),
(436,782,c),
(178,782,l),
(178,0,l)
);
},
{
closed = 1;
nodes = (
(244,862,o),
(218,896,o),
(218,942,cs),
(218,988,o),
(244,1020,o),
(280,1020,cs),
(314,1020,o),
(338,988,o),
(338,942,cs),
(338,896,o),
(314,862,o),
(280,862,cs)
);
},
{
closed = 1;
nodes = (
(1188,-18,o),
(1308,94,o),
(1308,246,cs),
(1308,392,o),
(1188,498,o),
(1024,498,cs),
(866,498,o),
(752,392,o),
(752,246,cs),
(752,92,o),
(866,-18,o),
(1024,-18,cs)
);
},
{
closed = 1;
nodes = (
(986,162,o),
(960,198,o),
(960,246,cs),
(960,294,o),
(986,328,o),
(1022,328,cs),
(1058,328,o),
(1086,292,o),
(1086,246,cs),
(1086,198,o),
(1058,162,o),
(1022,162,cs)
);
}
);
width = 1352;
}
);
unicode = 3609;
}
{
glyphname = "poPla-thai";
kernLeft = "boBaimai-thai";
layers = (
{
anchors = (
{
name = bottom;
pos = (1046,0);
},
{
name = top;
pos = (868,1174);
}
);
layerId = "B1F27B51-9973-4381-9301-4FE46FE1CA59";
shapes = (
{
closed = 1;
nodes = (
(958,-14,o),
(1060,76,o),
(1060,318,cs),
(1060,1566,l),
(1014,1566,l),
(1014,318,ls),
(1014,106,o),
(928,30,o),
(688,30,cs),
(448,30,o),
(362,106,o),
(362,318,cs),
(362,1010,ls),
(362,1114,o),
(298,1188,o),
(210,1188,cs),
(122,1188,o),
(62,1114,o),
(62,1010,cs),
(62,906,o),
(120,834,o),
(208,834,cs),
(268,834,o),
(314,866,o),
(330,924,c),
(316,924,l),
(316,318,ls),
(316,76,o),
(418,-14,o),
(688,-14,cs)
);
},
{
closed = 1;
nodes = (
(148,878,o),
(104,932,o),
(104,1010,cs),
(104,1088,o),
(148,1144,o),
(210,1144,cs),
(272,1144,o),
(316,1088,o),
(316,1010,cs),
(316,932,o),
(272,878,o),
(210,878,cs)
);
}
);
width = 1258;
},
{
anchors = (
{
name = bottom;
pos = (1150,0);
},
{
name = top;
pos = (854,1174);
}
);
layerId = "C698F293-3EC0-4A5A-A3A0-0FDB1F5CF265";
shapes = (
{
closed = 1;
nodes = (
(1036,-14,o),
(1150,76,o),
(1150,332,cs),
(1150,1566,l),
(978,1566,l),
(978,350,ls),
(978,186,o),
(918,136,o),
(722,136,cs),
(526,136,o),
(468,186,o),
(468,350,cs),
(468,968,ls),
(468,1096,o),
(380,1188,o),
(254,1188,cs),
(132,1188,o),
(44,1098,o),
(44,976,cs),
(44,850,o),
(132,760,o),
(254,760,cs),
(330,760,o),
(392,794,o),
(424,850,c),
(298,850,l),
(298,332,ls),
(298,76,o),
(410,-14,o),
(722,-14,cs)
);
},
{
closed = 1;
nodes = (
(202,868,o),
(166,912,o),
(166,974,cs),
(166,1036,o),
(202,1078,o),
(250,1078,cs),
(298,1078,o),
(334,1036,o),
(334,974,cs),
(334,912,o),
(298,868,o),
(250,868,cs)
);
}
);
width = 1316;
},
{
anchors = (
{
name = bottom;
pos = (1248,0);
},
{
name = top;
pos = (772,1174);
}
);
layerId = "5C20EF92-B63D-42A8-8878-93C2863E0093";
shapes = (
{
closed = 1;
nodes = (
(1114,-18,o),
(1262,94,o),
(1262,398,cs),
(1262,1566,l),
(860,1566,l),
(860,426,ls),
(860,324,o),
(820,288,o),
(712,288,cs),
(604,288,o),
(566,324,o),
(566,426,cs),
(566,926,ls),
(566,1086,o),
(454,1192,o),
(290,1192,cs),
(136,1192,o),
(24,1086,o),
(24,940,cs),
(24,800,o),
(130,698,o),
(276,698,cs),
(348,698,o),
(410,732,o),
(432,782,c),
(174,782,l),
(174,398,ls),
(174,94,o),
(318,-18,o),
(712,-18,cs)
);
},
{
closed = 1;
nodes = (
(238,862,o),
(214,896,o),
(214,942,cs),
(214,988,o),
(238,1020,o),
(274,1020,cs),
(308,1020,o),
(334,988,o),
(334,942,cs),
(334,896,o),
(308,862,o),
(274,862,cs)
);
}
);
width = 1362;
}
);
metricLeft = "boBaimai-thai";
metricRight = "boBaimai-thai";
unicode = 3611;
}
{
glyphname = "phoPhung-thai";
kernRight = "moMa-thai";
layers = (
{
anchors = (
{
name = bottom;
pos = (1064,0);
},
{
name = top;
pos = (1064,1174);
}
);
layerId = "B1F27B51-9973-4381-9301-4FE46FE1CA59";
shapes = (
{
closed = 1;
nodes = (
(256,0,l),
(632,530,l),
(638,530,l),
(1010,0,l),
(1064,0,l),
(1064,1174,l),
(1018,1174,l),
(1018,78,l),
(1012,78,l),
(656,578,l),
(610,578,l),
(254,78,l),
(248,78,l),
(248,924,l),
(234,924,l),
(250,866,o),
(298,834,o),
(358,834,cs),
(444,834,o),
(504,906,o),
(504,1010,cs),
(504,1114,o),
(442,1188,o),
(354,1188,cs),
(266,1188,o),
(202,1114,o),
(202,1010,cs),
(202,0,l)
);
},
{
closed = 1;
nodes = (
(292,878,o),
(248,932,o),
(248,1010,cs),
(248,1088,o),
(292,1144,o),
(354,1144,cs),
(416,1144,o),
(460,1088,o),
(460,1010,cs),
(460,932,o),
(416,878,o),
(354,878,cs)
);
}
);
width = 1266;
},
{
anchors = (
{
name = bottom;
pos = (1134,0);
},
{
name = top;
pos = (1134,1174);
}
);
layerId = "C698F293-3EC0-4A5A-A3A0-0FDB1F5CF265";
shapes = (
{
closed = 1;
nodes = (
(378,0,l),
(644,384,l),
(662,384,l),
(926,0,l),
(1134,0,l),
(1134,1174,l),
(966,1174,l),
(966,210,l),
(954,210,l),
(720,540,l),
(586,540,l),
(350,210,l),
(338,210,l),
(338,850,l),
(212,850,l),
(244,794,o),
(308,760,o),
(384,760,cs),
(506,760,o),
(594,850,o),
(594,976,cs),
(594,1098,o),
(506,1188,o),
(384,1188,cs),
(260,1188,o),
(172,1098,o),
(172,968,cs),
(172,0,l)
);
},
{
closed = 1;
nodes = (
(338,868,o),
(302,912,o),
(302,974,cs),
(302,1036,o),
(338,1078,o),
(386,1078,cs),
(434,1078,o),
(472,1036,o),
(472,974,cs),
(472,912,o),
(434,868,o),
(386,868,cs)
);
}
);
width = 1306;
},
{
anchors = (
{
name = bottom;
pos = (1260,0);
},
{
name = top;
pos = (1260,1174);
}
);
layerId = "5C20EF92-B63D-42A8-8878-93C2863E0093";
shapes = (
{
closed = 1;
nodes = (
(494,0,l),
(670,232,l),
(680,232,l),
(856,0,l),
(1260,0,l),
(1260,1174,l),
(878,1174,l),
(878,372,l),
(866,372,l),
(728,550,l),
(622,550,l),
(482,372,l),
(470,372,l),
(470,782,l),
(226,782,l),
(248,732,o),
(308,698,o),
(382,698,cs),
(528,698,o),
(632,800,o),
(632,940,cs),
(632,1086,o),
(524,1192,o),
(374,1192,cs),
(208,1192,o),
(104,1090,o),
(104,926,cs),
(104,0,l)
);
},
{
closed = 1;
nodes = (
(348,862,o),
(324,896,o),
(324,942,cs),
(324,988,o),
(348,1020,o),
(382,1020,cs),
(418,1020,o),
(444,988,o),
(444,942,cs),
(444,896,o),
(418,862,o),
(382,862,cs)
);
}
);
width = 1362;
}
);
unicode = 3612;
}
{
glyphname = "foFan-thai";
kernLeft = "boBaimai-thai";
layers = (
{
anchors = (
{
name = bottom;
pos = (1212,0);
},
{
name = top;
pos = (1020,1174);
}
);
layerId = "B1F27B51-9973-4381-9301-4FE46FE1CA59";
shapes = (
{
closed = 1;
nodes = (
(378,0,l),
(764,1102,l),
(770,1102,l),
(1154,0,l),
(1212,0,l),
(1212,1566,l),
(1166,1566,l),
(1166,122,l),
(1160,122,l),
(800,1152,l),
(734,1152,l),
(372,122,l),
(366,122,l),
(366,1010,ls),
(366,1114,o),
(302,1188,o),
(214,1188,cs),
(126,1188,o),
(66,1114,o),
(66,1010,cs),
(66,906,o),
(124,834,o),
(212,834,cs),
(272,834,o),
(318,866,o),
(334,924,c),
(320,924,l),
(320,0,l)
);
},
{
closed = 1;
nodes = (
(152,878,o),
(110,932,o),
(110,1010,cs),
(110,1088,o),
(152,1144,o),
(214,1144,cs),
(276,1144,o),
(320,1088,o),
(320,1010,cs),
(320,932,o),
(276,878,o),
(214,878,cs)
);
}
);
width = 1414;
},
{
anchors = (
{
name = bottom;
pos = (1288,0);
},
{
name = top;
pos = (996,1174);
}
);
layerId = "C698F293-3EC0-4A5A-A3A0-0FDB1F5CF265";
shapes = (
{
closed = 1;
nodes = (
(554,0,l),
(786,926,l),
(802,926,l),
(1034,0,l),
(1288,0,l),
(1288,1566,l),
(1120,1566,l),
(1120,254,l),
(1108,254,l),
(890,1116,l),
(698,1116,l),
(480,254,l),
(468,254,l),
(468,968,ls),
(468,1098,o),
(382,1188,o),
(258,1188,cs),
(136,1188,o),
(48,1098,o),
(48,976,cs),
(48,850,o),
(136,760,o),
(258,760,cs),
(334,760,o),
(398,794,o),
(430,850,c),
(302,850,l),
(302,0,l)
);
},
{
closed = 1;
nodes = (
(206,868,o),
(170,912,o),
(170,974,cs),
(170,1036,o),
(206,1078,o),
(254,1078,cs),
(302,1078,o),
(338,1036,o),
(338,974,cs),
(338,912,o),
(302,868,o),
(254,868,cs)
);
}
);
width = 1460;
},
{
anchors = (
{
name = bottom;
pos = (1392,0);
},
{
name = top;
pos = (938,1174);
}
);
layerId = "5C20EF92-B63D-42A8-8878-93C2863E0093";
shapes = (
{
closed = 1;
nodes = (
(610,0,l),
(776,696,l),
(786,696,l),
(952,0,l),
(1392,0,l),
(1392,1566,l),
(1026,1566,l),
(1026,528,l),
(1014,528,l),
(888,1050,l),
(674,1050,l),
(548,528,l),
(536,528,l),
(536,926,ls),
(536,1092,o),
(444,1192,o),
(286,1192,cs),
(134,1192,o),
(30,1090,o),
(30,940,cs),
(30,796,o),
(126,698,o),
(270,698,cs),
(342,698,o),
(402,732,o),
(426,782,c),
(192,782,l),
(192,0,l)
);
},
{
closed = 1;
nodes = (
(234,862,o),
(208,896,o),
(208,942,cs),
(208,988,o),
(234,1020,o),
(268,1020,cs),
(302,1020,o),
(328,988,o),
(328,942,cs),
(328,896,o),
(302,862,o),
(268,862,cs)
);
}
);
width = 1494;
}
);
metricLeft = "phoPhan-thai";
metricRight = "phoPhan-thai";
unicode = 3615;
}
{
glyphname = "phoSamphao-thai";
kernLeft = "phoSamphao-thai";
kernRight = "koKai-thai";
layers = (
{
anchors = (
{
name = bottom;
pos = (1096,0);
},
{
name = top;
pos = (1082,1174);
}
);
layerId = "B1F27B51-9973-4381-9301-4FE46FE1CA59";
shapes = (
{
closed = 1;
nodes = (
(316,-14,o),
(376,58,o),
(376,156,cs),
(376,472,ls),
(376,650,o),
(420,716,o),
(528,700,cs),
(570,694,l),
(570,738,l),
(252,784,l),
(288,740,l),
(288,786,ls),
(288,1008,o),
(436,1146,o),
(670,1146,cs),
(902,1146,o),
(1050,1006,o),
(1050,786,cs),
(1050,0,l),
(1096,0,l),
(1096,786,ls),
(1096,1034,o),
(932,1192,o),
(670,1192,cs),
(408,1192,o),
(242,1034,o),
(242,786,cs),
(242,740,l),
(416,716,l),
(416,708,l),
(356,684,o),
(330,614,o),
(330,472,cs),
(330,238,l),
(346,238,l),
(332,288,o),
(286,324,o),
(230,324,cs),
(150,324,o),
(90,254,o),
(90,156,cs),
(90,58,o),
(150,-14,o),
(232,-14,cs)
);
},
{
closed = 1;
nodes = (
(176,30,o),
(134,82,o),
(134,156,cs),
(134,228,o),
(176,280,o),
(232,280,cs),
(290,280,o),
(330,228,o),
(330,156,cs),
(330,82,o),
(290,30,o),
(232,30,cs)
);
}
);
width = 1290;
},
{
anchors = (
{
name = bottom;
pos = (1172,0);
},
{
name = top;
pos = (1158,1174);
}
);
layerId = "C698F293-3EC0-4A5A-A3A0-0FDB1F5CF265";
shapes = (
{
closed = 1;
nodes = (
(392,-14,o),
(478,74,o),
(478,196,cs),
(478,426,ls),
(478,564,o),
(522,626,o),
(610,616,cs),
(658,610,l),
(658,742,l),
(316,784,l),
(352,680,l),
(352,726,ls),
(352,920,o),
(480,1042,o),
(686,1042,cs),
(878,1042,o),
(1000,936,o),
(1000,768,cs),
(1000,0,l),
(1172,0,l),
(1172,766,ls),
(1172,1028,o),
(982,1198,o),
(686,1198,cs),
(376,1198,o),
(182,1012,o),
(182,718,cs),
(182,672,l),
(440,642,l),
(440,630,l),
(350,602,o),
(308,532,o),
(308,406,cs),
(308,310,l),
(436,310,l),
(406,362,o),
(344,392,o),
(272,392,cs),
(156,392,o),
(72,308,o),
(72,190,cs),
(72,72,o),
(156,-14,o),
(272,-14,cs)
);
},
{
closed = 1;
nodes = (
(224,92,o),
(190,132,o),
(190,190,cs),
(190,248,o),
(224,290,o),
(270,290,cs),
(316,290,o),
(350,248,o),
(350,190,cs),
(350,132,o),
(316,92,o),
(270,92,cs)
);
}
);
width = 1336;
},
{
anchors = (
{
name = bottom;
pos = (1270,0);
},
{
name = top;
pos = (1256,1174);
}
);
layerId = "5C20EF92-B63D-42A8-8878-93C2863E0093";
shapes = (
{
closed = 1;
nodes = (
(456,-18,o),
(566,90,o),
(566,238,cs),
(566,456,ls),
(566,510,o),
(588,534,o),
(634,534,cs),
(666,534,l),
(666,752,l),
(414,752,l),
(484,696,l),
(484,728,ls),
(484,834,o),
(552,892,o),
(674,892,cs),
(798,892,o),
(866,834,o),
(866,728,cs),
(866,0,l),
(1270,0,l),
(1270,756,ls),
(1270,1026,o),
(1044,1198,o),
(688,1198,cs),
(326,1198,o),
(96,1018,o),
(96,736,cs),
(96,636,l),
(328,636,l),
(328,624,l),
(230,596,o),
(184,530,o),
(184,422,cs),
(184,360,l),
(440,360,l),
(418,408,o),
(358,438,o),
(290,438,cs),
(150,438,o),
(50,344,o),
(50,216,cs),
(50,80,o),
(158,-18,o),
(304,-18,cs)
);
},
{
closed = 1;
nodes = (
(256,140,o),
(232,172,o),
(232,216,cs),
(232,258,o),
(256,290,o),
(288,290,cs),
(320,290,o),
(344,258,o),
(344,216,cs),
(344,172,o),
(320,140,o),
(288,140,cs)
);
}
);
width = 1366;
}
);
metricRight = "koKai-thai";
unicode = 3616;
}
{
glyphname = "moMa-thai";
kernRight = "moMa-thai";
layers = (
{
anchors = (
{
name = bottom;
pos = (1028,0);
},
{
name = top;
pos = (1028,1174);
}
);
layerId = "B1F27B51-9973-4381-9301-4FE46FE1CA59";
shapes = (
{
closed = 1;
nodes = (
(1028,0,l),
(1028,1174,l),
(982,1174,l),
(982,126,l),
(1004,126,l),
(974,236,o),
(778,302,o),
(404,326,c),
(418,304,l),
(418,1010,ls),
(418,1114,o),
(352,1188,o),
(264,1188,cs),
(176,1188,o),
(116,1114,o),
(116,1010,cs),
(116,906,o),
(176,834,o),
(264,834,cs),
(324,834,o),
(370,866,o),
(386,924,c),
(370,924,l),
(370,298,l),
(402,280,l),
(800,252,o),
(982,186,o),
(982,62,cs),
(982,0,l)
);
},
{
closed = 1;
nodes = (
(202,878,o),
(160,932,o),
(160,1010,cs),
(160,1088,o),
(202,1144,o),
(264,1144,cs),
(326,1144,o),
(370,1088,o),
(370,1010,cs),
(370,932,o),
(326,878,o),
(264,878,cs)
);
},
{
closed = 1;
nodes = (
(382,-14,o),
(446,64,o),
(446,172,cs),
(446,280,o),
(382,356,o),
(290,356,cs),
(196,356,o),
(130,280,o),
(130,172,cs),
(130,62,o),
(196,-14,o),
(290,-14,cs)
);
},
{
closed = 1;
nodes = (
(224,30,o),
(174,88,o),
(174,172,cs),
(174,254,o),
(224,312,o),
(290,312,cs),
(356,312,o),
(402,254,o),
(402,172,cs),
(402,90,o),
(356,30,o),
(290,30,cs)
);
}
);
width = 1230;
},
{
anchors = (
{
name = bottom;
pos = (1112,0);
},
{
name = top;
pos = (1112,1174);
}
);
layerId = "C698F293-3EC0-4A5A-A3A0-0FDB1F5CF265";
shapes = (
{
closed = 1;
nodes = (
(1112,0,l),
(1112,1174,l),
(942,1174,l),
(942,216,l),
(966,236,l),
(928,344,o),
(740,422,o),
(478,440,c),
(520,370,l),
(520,968,ls),
(520,1096,o),
(430,1188,o),
(304,1188,cs),
(182,1188,o),
(94,1098,o),
(94,976,cs),
(94,850,o),
(182,760,o),
(304,760,cs),
(380,760,o),
(444,794,o),
(476,850,c),
(350,850,l),
(350,370,l),
(488,312,l),
(772,288,o),
(942,188,o),
(942,46,cs),
(942,0,l)
);
},
{
closed = 1;
nodes = (
(252,866,o),
(214,912,o),
(214,974,cs),
(214,1036,o),
(252,1080,o),
(302,1080,cs),
(352,1080,o),
(386,1036,o),
(386,974,cs),
(386,912,o),
(352,866,o),
(302,866,cs)
);
},
{
closed = 1;
nodes = (
(460,-14,o),
(550,76,o),
(550,208,cs),
(550,338,o),
(460,428,o),
(326,428,cs),
(192,428,o),
(102,338,o),
(102,208,cs),
(102,76,o),
(192,-14,o),
(326,-14,cs)
);
},
{
closed = 1;
nodes = (
(272,96,o),
(234,142,o),
(234,208,cs),
(234,272,o),
(274,320,o),
(326,320,cs),
(380,320,o),
(418,272,o),
(418,208,cs),
(418,142,o),
(380,96,o),
(326,96,cs)
);
}
);
width = 1284;
},
{
anchors = (
{
name = bottom;
pos = (1212,0);
},
{
name = top;
pos = (1212,1174);
}
);
layerId = "5C20EF92-B63D-42A8-8878-93C2863E0093";
shapes = (
{
closed = 1;
nodes = (
(1212,0,l),
(1212,1174,l),
(810,1174,l),
(810,296,l),
(866,334,l),
(842,404,o),
(722,454,o),
(556,466,c),
(606,360,l),
(606,926,ls),
(606,1086,o),
(496,1192,o),
(332,1192,cs),
(178,1192,o),
(66,1086,o),
(66,940,cs),
(66,800,o),
(172,698,o),
(318,698,cs),
(390,698,o),
(450,732,o),
(472,782,c),
(222,782,l),
(222,436,l),
(494,226,l),
(698,208,o),
(824,130,o),
(824,24,cs),
(824,0,l)
);
},
{
closed = 1;
nodes = (
(280,862,o),
(254,896,o),
(254,942,cs),
(254,988,o),
(280,1020,o),
(316,1020,cs),
(350,1020,o),
(374,988,o),
(374,942,cs),
(374,896,o),
(350,862,o),
(316,862,cs)
);
},
{
closed = 1;
nodes = (
(486,-18,o),
(600,94,o),
(600,246,cs),
(600,392,o),
(486,498,o),
(328,498,cs),
(162,498,o),
(44,392,o),
(44,246,cs),
(44,94,o),
(162,-18,o),
(328,-18,cs)
);
},
{
closed = 1;
nodes = (
(292,162,o),
(266,198,o),
(266,246,cs),
(266,294,o),
(292,328,o),
(330,328,cs),
(364,328,o),
(392,294,o),
(392,246,cs),
(392,198,o),
(366,162,o),
(330,162,cs)
);
}
);
width = 1314;
}
);
unicode = 3617;
}
{
glyphname = "yoYak-thai";
kernRight = "boBaimai-thai";
layers = (
{
anchors = (
{
name = bottom;
pos = (962,0);
},
{
name = top;
pos = (978,1174);
}
);
layerId = "B1F27B51-9973-4381-9301-4FE46FE1CA59";
shapes = (
{
closed = 1;
nodes = (
(872,-14,o),
(978,80,o),
(978,350,cs),
(978,1174,l),
(930,1174,l),
(930,350,ls),
(930,114,o),
(838,30,o),
(580,30,cs),
(338,30,o),
(238,102,o),
(238,306,cs),
(238,472,o),
(344,578,o),
(512,578,cs),
(656,578,l),
(656,622,l),
(512,622,ls),
(318,622,o),
(202,730,o),
(202,908,cs),
(202,950,o),
(202,964,o),
(210,1006,c),
(200,1006,l),
(200,900,o),
(254,834,o),
(344,834,cs),
(432,834,o),
(492,906,o),
(492,1010,cs),
(492,1114,o),
(432,1186,o),
(344,1186,cs),
(226,1186,o),
(156,1092,o),
(156,912,cs),
(156,766,o),
(224,644,o),
(370,600,c),
(370,594,l),
(252,546,o),
(190,442,o),
(190,306,cs),
(190,68,o),
(304,-14,o),
(580,-14,cs)
);
},
{
closed = 1;
nodes = (
(282,878,o),
(238,932,o),
(238,1010,cs),
(238,1088,o),
(282,1144,o),
(344,1144,cs),
(404,1144,o),
(448,1088,o),
(448,1010,cs),
(448,932,o),
(404,878,o),
(344,878,cs)
);
}
);
width = 1176;
},
{
anchors = (
{
name = bottom;
pos = (1054,0);
},
{
name = top;
pos = (1054,1174);
}
);
layerId = "C698F293-3EC0-4A5A-A3A0-0FDB1F5CF265";
shapes = (
{
closed = 1;
nodes = (
(936,-14,o),
(1054,80,o),
(1054,350,cs),
(1054,1174,l),
(882,1174,l),
(882,360,ls),
(882,186,o),
(816,136,o),
(600,136,cs),
(392,136,o),
(328,178,o),
(328,320,cs),
(328,438,o),
(398,504,o),
(520,504,cs),
(678,504,l),
(678,648,l),
(546,648,ls),
(384,648,o),
(268,726,o),
(268,832,cs),
(268,846,o),
(268,856,o),
(268,864,c),
(200,864,l),
(232,800,o),
(300,766,o),
(378,766,cs),
(504,766,o),
(588,850,o),
(588,976,cs),
(588,1104,o),
(500,1188,o),
(366,1188,cs),
(210,1188,o),
(112,1074,o),
(112,894,cs),
(112,742,o),
(182,644,o),
(328,588,c),
(328,576,l),
(214,544,o),
(154,450,o),
(154,302,cs),
(154,70,o),
(272,-14,o),
(602,-14,cs)
);
},
{
closed = 1;
nodes = (
(326,868,o),
(290,912,o),
(290,974,cs),
(290,1036,o),
(326,1078,o),
(376,1078,cs),
(424,1078,o),
(460,1034,o),
(460,974,cs),
(460,914,o),
(424,868,o),
(376,868,cs)
);
}
);
width = 1220;
},
{
anchors = (
{
name = bottom;
pos = (1204,0);
},
{
name = top;
pos = (1218,1174);
}
);
layerId = "5C20EF92-B63D-42A8-8878-93C2863E0093";
shapes = (
{
closed = 1;
nodes = (
(1076,-18,o),
(1218,76,o),
(1218,354,cs),
(1218,1174,l),
(824,1174,l),
(824,394,ls),
(824,308,o),
(774,274,o),
(652,274,cs),
(540,274,o),
(494,302,o),
(494,370,cs),
(494,436,o),
(534,470,o),
(614,470,cs),
(706,470,l),
(706,688,l),
(588,688,ls),
(498,688,o),
(440,716,o),
(440,760,cs),
(440,792,o),
(446,818,o),
(456,838,c),
(234,838,l),
(256,778,o),
(312,744,o),
(390,744,cs),
(528,744,o),
(628,836,o),
(628,964,cs),
(628,1096,o),
(522,1192,o),
(372,1192,cs),
(190,1192,o),
(70,1076,o),
(70,904,cs),
(70,758,o),
(144,660,o),
(282,622,c),
(282,610,l),
(158,590,o),
(98,502,o),
(98,338,cs),
(98,82,o),
(254,-18,o),
(652,-18,cs)
);
},
{
closed = 1;
nodes = (
(354,888,o),
(332,920,o),
(332,964,cs),
(332,1008,o),
(354,1038,o),
(388,1038,cs),
(422,1038,o),
(446,1006,o),
(446,964,cs),
(446,920,o),
(422,888,o),
(388,888,cs)
);
}
);
width = 1318;
}
);
metricRight = "boBaimai-thai";
unicode = 3618;
}
{
glyphname = "roRua-thai";
layers = (
{
anchors = (
{
name = bottom;
pos = (698,0);
},
{
name = top;
pos = (824,1174);
}
);
layerId = "B1F27B51-9973-4381-9301-4FE46FE1CA59";
shapes = (
{
closed = 1;
nodes = (
(634,-14,o),
(698,58,o),
(698,162,cs),
(698,584,ls),
(698,742,o),
(602,830,o),
(432,830,cs),
(104,830,l),
(134,798,l),
(134,880,ls),
(134,1050,o),
(214,1144,o),
(360,1144,cs),
(474,1144,o),
(570,1108,o),
(680,1108,cs),
(726,1108,o),
(774,1114,o),
(824,1130,c),
(814,1176,l),
(764,1160,o),
(718,1154,o),
(680,1154,cs),
(580,1154,o),
(482,1188,o),
(360,1188,cs),
(184,1188,o),
(88,1078,o),
(88,880,cs),
(88,784,l),
(432,784,ls),
(574,784,o),
(652,712,o),
(652,584,cs),
(652,252,l),
(666,252,l),
(648,310,o),
(602,340,o),
(544,340,cs),
(456,340,o),
(398,266,o),
(398,162,cs),
(398,58,o),
(458,-14,o),
(546,-14,cs)
);
},
{
closed = 1;
nodes = (
(484,30,o),
(440,84,o),
(440,162,cs),
(440,240,o),
(484,296,o),
(546,296,cs),
(608,296,o),
(652,240,o),
(652,162,cs),
(652,84,o),
(608,30,o),
(546,30,cs)
);
}
);
width = 910;
},
{
anchors = (
{
name = bottom;
pos = (792,0);
},
{
name = top;
pos = (872,1174);
}
);
layerId = "C698F293-3EC0-4A5A-A3A0-0FDB1F5CF265";
shapes = (
{
closed = 1;
nodes = (
(702,-14,o),
(792,78,o),
(792,206,cs),
(792,546,ls),
(792,722,o),
(672,820,o),
(458,820,cs),
(178,820,l),
(264,724,l),
(264,862,ls),
(264,976,o),
(322,1038,o),
(424,1038,cs),
(516,1038,o),
(596,1008,o),
(706,1008,cs),
(772,1008,o),
(828,1020,o),
(878,1040,c),
(850,1180,l),
(806,1164,o),
(762,1156,o),
(712,1156,cs),
(610,1156,o),
(522,1188,o),
(412,1188,cs),
(214,1188,o),
(88,1054,o),
(88,844,cs),
(88,678,l),
(458,678,ls),
(568,678,o),
(620,628,o),
(620,526,cs),
(620,326,l),
(748,326,l),
(718,380,o),
(654,414,o),
(576,414,cs),
(454,414,o),
(366,324,o),
(366,200,cs),
(366,76,o),
(454,-14,o),
(576,-14,cs)
);
},
{
closed = 1;
nodes = (
(526,96,o),
(488,138,o),
(488,200,cs),
(488,262,o),
(526,306,o),
(574,306,cs),
(622,306,o),
(658,262,o),
(658,200,cs),
(658,138,o),
(622,96,o),
(574,96,cs)
);
}
);
width = 966;
},
{
anchors = (
{
name = bottom;
pos = (942,0);
},
{
name = top;
pos = (1014,1174);
}
);
layerId = "5C20EF92-B63D-42A8-8878-93C2863E0093";
shapes = (
{
closed = 1;
nodes = (
(826,-18,o),
(942,90,o),
(942,242,cs),
(942,470,ls),
(942,682,o),
(816,784,o),
(554,784,cs),
(344,784,l),
(418,726,l),
(418,808,ls),
(418,874,o),
(456,908,o),
(534,908,cs),
(638,908,o),
(750,876,o),
(852,876,cs),
(904,876,o),
(952,882,o),
(1000,898,c),
(1000,1182,l),
(942,1166,o),
(882,1160,o),
(816,1160,cs),
(682,1160,o),
(566,1192,o),
(420,1192,cs),
(178,1192,o),
(44,1046,o),
(44,786,cs),
(44,580,l),
(370,580,ls),
(504,580,o),
(550,552,o),
(550,472,cs),
(550,380,l),
(808,380,l),
(782,430,o),
(724,462,o),
(644,462,cs),
(502,462,o),
(400,362,o),
(400,228,cs),
(400,86,o),
(512,-18,o),
(666,-18,cs)
);
},
{
closed = 1;
nodes = (
(614,146,o),
(590,180,o),
(590,226,cs),
(590,272,o),
(614,304,o),
(650,304,cs),
(684,304,o),
(708,272,o),
(708,226,cs),
(708,180,o),
(684,146,o),
(650,146,cs)
);
}
);
width = 1050;
}
);
unicode = 3619;
}
{
glyphname = "loLing-thai";
kernLeft = "loLing-thai";
layers = (
{
anchors = (
{
name = bottom;
pos = (996,0);
},
{
name = top;
pos = (982,1174);
}
);
layerId = "B1F27B51-9973-4381-9301-4FE46FE1CA59";
shapes = (
{
closed = 1;
nodes = (
(460,-14,o),
(520,58,o),
(520,162,cs),
(520,266,o),
(462,340,o),
(376,340,cs),
(292,340,o),
(238,272,o),
(238,168,c),
(254,168,l),
(244,224,o),
(238,268,o),
(238,316,cs),
(238,542,o),
(358,686,o),
(550,686,cs),
(772,686,o),
(950,504,o),
(950,280,cs),
(950,0,l),
(996,0,l),
(996,782,ls),
(996,1034,o),
(834,1192,o),
(580,1192,cs),
(380,1192,o),
(222,1092,o),
(162,930,c),
(206,914,l),
(256,1056,o),
(400,1146,o),
(580,1146,cs),
(806,1146,o),
(950,1006,o),
(950,782,cs),
(950,482,l),
(944,482,l),
(866,636,o),
(720,730,o),
(550,730,cs),
(330,730,o),
(192,570,o),
(192,316,cs),
(192,224,o),
(208,140,o),
(236,80,cs),
(264,18,o),
(312,-14,o),
(372,-14,cs)
);
},
{
closed = 1;
nodes = (
(310,30,o),
(266,84,o),
(266,162,cs),
(266,240,o),
(310,296,o),
(372,296,cs),
(434,296,o),
(478,240,o),
(478,162,cs),
(478,84,o),
(434,30,o),
(372,30,cs)
);
}
);
width = 1192;
},
{
anchors = (
{
name = bottom;
pos = (1040,0);
},
{
name = top;
pos = (1024,1174);
}
);
layerId = "C698F293-3EC0-4A5A-A3A0-0FDB1F5CF265";
shapes = (
{
closed = 1;
nodes = (
(518,-14,o),
(606,78,o),
(606,200,cs),
(606,328,o),
(522,412,o),
(398,412,cs),
(338,412,o),
(288,372,o),
(272,314,c),
(320,314,l),
(320,330,o),
(320,346,o),
(320,368,cs),
(320,514,o),
(398,598,o),
(536,598,cs),
(732,598,o),
(868,442,o),
(868,216,cs),
(868,0,l),
(1040,0,l),
(1040,782,ls),
(1040,1036,o),
(858,1198,o),
(580,1198,cs),
(412,1198,o),
(210,1138,o),
(124,920,c),
(280,862,l),
(318,956,o),
(410,1042,o),
(580,1042,cs),
(756,1042,o),
(874,952,o),
(874,790,cs),
(874,546,l),
(862,546,l),
(800,674,o),
(688,744,o),
(530,744,cs),
(292,744,o),
(152,584,o),
(152,318,cs),
(152,212,o),
(176,116,o),
(230,58,cs),
(270,12,o),
(330,-14,o),
(404,-14,cs)
);
},
{
closed = 1;
nodes = (
(350,96,o),
(314,138,o),
(314,200,cs),
(314,262,o),
(350,306,o),
(398,306,cs),
(446,306,o),
(482,262,o),
(482,200,cs),
(482,138,o),
(446,96,o),
(398,96,cs)
);
}
);
width = 1204;
},
{
anchors = (
{
name = bottom;
pos = (1144,0);
},
{
name = top;
pos = (1130,1174);
}
);
layerId = "5C20EF92-B63D-42A8-8878-93C2863E0093";
shapes = (
{
closed = 1;
nodes = (
(530,-18,o),
(626,70,o),
(626,216,cs),
(626,346,o),
(532,436,o),
(396,436,cs),
(318,436,o),
(244,404,o),
(226,360,c),
(434,318,l),
(432,332,o),
(432,344,o),
(432,366,cs),
(432,452,o),
(476,494,o),
(564,494,cs),
(676,494,o),
(750,400,o),
(750,250,cs),
(750,0,l),
(1144,0,l),
(1144,806,ls),
(1144,1046,o),
(936,1198,o),
(606,1198,cs),
(278,1198,o),
(86,1052,o),
(68,792,c),
(456,792,l),
(466,862,o),
(520,898,o),
(610,898,cs),
(706,898,o),
(756,856,o),
(756,776,cs),
(756,598,l),
(744,598,l),
(682,682,o),
(584,728,o),
(456,728,cs),
(216,728,o),
(68,574,o),
(68,322,cs),
(68,212,o),
(100,124,o),
(158,64,cs),
(210,10,o),
(278,-18,o),
(366,-18,cs)
);
},
{
closed = 1;
nodes = (
(390,140,o),
(368,172,o),
(368,216,cs),
(368,260,o),
(390,290,o),
(424,290,cs),
(456,290,o),
(482,258,o),
(482,216,cs),
(482,172,o),
(456,140,o),
(424,140,cs)
);
}
);
width = 1240;
}
);
unicode = 3621;
}
{
glyphname = "woWaen-thai";
layers = (
{
anchors = (
{
name = bottom;
pos = (752,0);
},
{
name = top;
pos = (766,1174);
}
);
layerId = "B1F27B51-9973-4381-9301-4FE46FE1CA59";
shapes = (
{
closed = 1;
nodes = (
(688,-14,o),
(752,58,o),
(752,162,cs),
(752,830,ls),
(752,1050,o),
(620,1192,o),
(414,1192,cs),
(232,1192,o),
(104,1082,o),
(66,896,c),
(110,880,l),
(140,1048,o),
(254,1146,o),
(414,1146,cs),
(592,1146,o),
(706,1022,o),
(706,830,cs),
(706,252,l),
(720,252,l),
(704,308,o),
(656,340,o),
(598,340,cs),
(510,340,o),
(450,266,o),
(450,162,cs),
(450,58,o),
(512,-14,o),
(600,-14,cs)
);
},
{
closed = 1;
nodes = (
(538,30,o),
(494,84,o),
(494,162,cs),
(494,240,o),
(538,296,o),
(600,296,cs),
(662,296,o),
(706,240,o),
(706,162,cs),
(706,84,o),
(662,30,o),
(600,30,cs)
);
}
);
width = 946;
},
{
anchors = (
{
name = bottom;
pos = (844,0);
},
{
name = top;
pos = (858,1174);
}
);
layerId = "C698F293-3EC0-4A5A-A3A0-0FDB1F5CF265";
shapes = (
{
closed = 1;
nodes = (
(754,-14,o),
(844,78,o),
(844,206,cs),
(844,786,ls),
(844,1026,o),
(674,1198,o),
(440,1198,cs),
(240,1198,o),
(88,1074,o),
(50,882,c),
(206,834,l),
(230,962,o),
(322,1042,o),
(440,1042,cs),
(574,1042,o),
(672,936,o),
(672,788,cs),
(672,326,l),
(800,326,l),
(768,380,o),
(704,414,o),
(628,414,cs),
(506,414,o),
(418,324,o),
(418,200,cs),
(418,76,o),
(506,-14,o),
(628,-14,cs)
);
},
{
closed = 1;
nodes = (
(578,96,o),
(542,138,o),
(542,200,cs),
(542,262,o),
(578,306,o),
(626,306,cs),
(674,306,o),
(710,262,o),
(710,200,cs),
(710,138,o),
(674,96,o),
(626,96,cs)
);
}
);
width = 1008;
},
{
anchors = (
{
name = bottom;
pos = (1028,0);
},
{
name = top;
pos = (1042,1174);
}
);
layerId = "5C20EF92-B63D-42A8-8878-93C2863E0093";
shapes = (
{
closed = 1;
nodes = (
(914,-18,o),
(1028,90,o),
(1028,250,cs),
(1028,796,ls),
(1028,1038,o),
(840,1198,o),
(550,1198,cs),
(256,1198,o),
(56,1032,o),
(44,776,c),
(432,776,l),
(438,848,o),
(474,892,o),
(530,892,cs),
(588,892,o),
(626,844,o),
(626,772,cs),
(626,394,l),
(880,394,l),
(856,444,o),
(796,476,o),
(724,476,cs),
(578,476,o),
(472,376,o),
(472,232,cs),
(472,82,o),
(582,-18,o),
(744,-18,cs)
);
},
{
closed = 1;
nodes = (
(694,154,o),
(670,186,o),
(670,232,cs),
(670,278,o),
(694,312,o),
(728,312,cs),
(762,312,o),
(788,278,o),
(788,232,cs),
(788,186,o),
(762,154,o),
(728,154,cs)
);
}
);
width = 1124;
}
);
unicode = 3623;
}
{
glyphname = "soSala-thai";
kernLeft = "khoKhwai-thai";
layers = (
{
anchors = (
{
name = bottom;
pos = (1062,0);
},
{
name = top;
pos = (1048,1174);
}
);
layerId = "B1F27B51-9973-4381-9301-4FE46FE1CA59";
shapes = (
{
closed = 1;
nodes = (
(240,0,l),
(240,152,ls),
(240,370,o),
(390,634,o),
(548,696,c),
(554,712,l),
(512,680,o),
(496,642,o),
(496,586,cs),
(496,488,o),
(552,418,o),
(638,418,cs),
(722,418,o),
(780,488,o),
(780,586,cs),
(780,686,o),
(724,754,o),
(638,754,cs),
(482,754,o),
(328,610,o),
(246,378,c),
(240,378,l),
(240,750,ls),
(240,992,o),
(394,1146,o),
(634,1146,cs),
(866,1146,o),
(1016,992,o),
(1016,750,cs),
(1016,0,l),
(1062,0,l),
(1062,750,ls),
(1062,868,o),
(1028,972,o),
(966,1050,c),
(890,1142,o),
(774,1192,o),
(634,1192,cs),
(364,1192,o),
(194,1020,o),
(194,750,cs),
(194,0,l)
);
},
{
closed = 1;
nodes = (
(580,462,o),
(540,514,o),
(540,586,cs),
(540,658,o),
(580,712,o),
(638,712,cs),
(694,712,o),
(736,658,o),
(736,586,cs),
(736,512,o),
(694,462,o),
(638,462,cs)
);
},
{
closed = 1;
nodes = (
(1170,1240,l),
(1108,1240,l),
(942,1054,l),
(970,1020,l)
);
}
);
width = 1262;
},
{
anchors = (
{
name = bottom;
pos = (1138,0);
},
{
name = top;
pos = (1122,1174);
}
);
layerId = "C698F293-3EC0-4A5A-A3A0-0FDB1F5CF265";
shapes = (
{
closed = 1;
nodes = (
(334,0,l),
(334,140,ls),
(334,320,o),
(404,486,o),
(520,578,c),
(504,642,l),
(490,626,o),
(482,606,o),
(482,584,cs),
(482,476,o),
(560,398,o),
(664,398,cs),
(770,398,o),
(846,476,o),
(846,584,cs),
(846,696,o),
(764,780,o),
(654,780,cs),
(538,780,o),
(426,688,o),
(344,528,c),
(332,528,l),
(332,750,ls),
(332,928,o),
(456,1042,o),
(650,1042,cs),
(844,1042,o),
(968,928,o),
(968,750,cs),
(968,0,l),
(1138,0,l),
(1138,768,ls),
(1138,912,o),
(1078,1020,o),
(972,1070,c),
(916,1152,o),
(800,1198,o),
(650,1198,cs),
(354,1198,o),
(164,1030,o),
(164,768,cs),
(164,0,l)
);
},
{
closed = 1;
nodes = (
(614,492,o),
(584,530,o),
(584,584,cs),
(584,638,o),
(614,676,o),
(660,676,cs),
(704,676,o),
(736,638,o),
(736,584,cs),
(736,530,o),
(704,492,o),
(660,492,cs)
);
},
{
closed = 1;
nodes = (
(1242,1234,l),
(1044,1234,l),
(862,1030,l),
(1006,972,l)
);
}
);
width = 1310;
},
{
anchors = (
{
name = bottom;
pos = (1272,0);
},
{
name = top;
pos = (1258,1174);
}
);
layerId = "5C20EF92-B63D-42A8-8878-93C2863E0093";
shapes = (
{
closed = 1;
nodes = (
(484,0,l),
(484,68,ls),
(484,238,o),
(516,362,o),
(578,432,c),
(562,484,l),
(548,466,o),
(538,436,o),
(538,414,cs),
(538,344,o),
(616,290,o),
(716,290,cs),
(838,290,o),
(928,384,o),
(928,510,cs),
(928,642,o),
(836,738,o),
(710,738,cs),
(590,738,o),
(502,658,o),
(474,526,c),
(462,526,l),
(462,686,ls),
(462,812,o),
(548,892,o),
(682,892,cs),
(814,892,o),
(898,812,o),
(898,686,cs),
(898,0,l),
(1272,0,l),
(1272,752,ls),
(1272,928,o),
(1206,1000,o),
(1030,1016,c),
(978,1136,o),
(858,1198,o),
(674,1198,cs),
(320,1198,o),
(96,1006,o),
(96,702,cs),
(96,0,l)
);
},
{
closed = 1;
nodes = (
(664,440,o),
(642,468,o),
(642,510,cs),
(642,552,o),
(664,582,o),
(696,582,cs),
(728,582,o),
(750,552,o),
(750,510,cs),
(750,468,o),
(728,440,o),
(696,440,cs)
);
},
{
closed = 1;
nodes = (
(1368,1234,l),
(980,1234,l),
(834,978,l),
(1160,920,l)
);
}
);
width = 1368;
},
{
anchors = (
{
name = bottom;
pos = (1218,0);
},
{
name = top;
pos = (1204,1174);
}
);
associatedMasterId = "5C20EF92-B63D-42A8-8878-93C2863E0093";
attr = {
coordinates = (
700
);
};
layerId = "45AC5CB1-7971-4FA5-ADA8-03DED77F6860";
name = "Bold{700,0}";
shapes = (
{
closed = 1;
nodes = (
(424,0,l),
(424,96,ls),
(424,270,o),
(474,412,o),
(556,490,c),
(538,546,l),
(522,528,o),
(516,502,o),
(516,482,cs),
(516,394,o),
(596,334,o),
(694,334,cs),
(808,334,o),
(894,420,o),
(894,540,cs),
(894,662,o),
(808,754,o),
(688,754,cs),
(576,754,o),
(474,678,o),
(422,528,c),
(410,528,l),
(410,712,ls),
(410,858,o),
(512,952,o),
(670,952,cs),
(828,952,o),
(926,858,o),
(926,712,cs),
(926,0,l),
(1218,0,l),
(1218,758,ls),
(1218,920,o),
(1156,1008,o),
(1006,1038,c),
(952,1140,o),
(836,1198,o),
(664,1198,cs),
(334,1198,o),
(124,1014,o),
(124,728,cs),
(124,0,l)
);
},
{
closed = 1;
nodes = (
(644,460,o),
(618,494,o),
(618,540,cs),
(618,586,o),
(644,620,o),
(682,620,cs),
(718,620,o),
(744,586,o),
(744,540,cs),
(744,492,o),
(718,460,o),
(682,460,cs)
);
},
{
closed = 1;
nodes = (
(1318,1234,l),
(1006,1234,l),
(844,1000,l),
(1098,942,l)
);
}
);
width = 1346;
},
{
anchors = (
{
name = bottom;
pos = (1246,0);
},
{
name = top;
pos = (1232,1174);
}
);
associatedMasterId = "5C20EF92-B63D-42A8-8878-93C2863E0093";
attr = {
coordinates = (
800
);
};
layerId = "5D73361F-114C-46F1-9AA4-042AF50943B8";
name = "ExtraBold{800,0}";
shapes = (
{
closed = 1;
nodes = (
(456,0,l),
(456,82,ls),
(456,254,o),
(500,390,o),
(582,462,c),
(564,530,l),
(548,508,o),
(542,482,o),
(542,464,cs),
(542,376,o),
(616,312,o),
(720,312,cs),
(840,312,o),
(926,404,o),
(926,526,cs),
(926,654,o),
(838,746,o),
(712,746,cs),
(588,746,o),
(484,656,o),
(448,514,c),
(436,514,l),
(436,700,ls),
(436,836,o),
(530,922,o),
(676,922,cs),
(820,922,o),
(914,836,o),
(914,700,cs),
(914,0,l),
(1246,0,l),
(1246,756,ls),
(1246,924,o),
(1182,1004,o),
(1018,1026,c),
(966,1136,o),
(850,1198,o),
(670,1198,cs),
(326,1198,o),
(110,1010,o),
(110,716,cs),
(110,0,l)
);
},
{
closed = 1;
nodes = (
(668,450,o),
(644,482,o),
(644,526,cs),
(644,570,o),
(668,600,o),
(704,600,cs),
(736,600,o),
(762,570,o),
(762,526,cs),
(762,480,o),
(736,450,o),
(704,450,cs)
);
},
{
closed = 1;
nodes = (
(1344,1234,l),
(994,1234,l),
(840,990,l),
(1130,930,l)
);
}
);
width = 1358;
}
);
unicode = 3624;
}
{
glyphname = "soRusi-thai";
kernLeft = "boBaimai-thai";
layers = (
{
anchors = (
{
name = bottom;
pos = (1074,0);
},
{
name = top;
pos = (1090,1174);
}
);
layerId = "B1F27B51-9973-4381-9301-4FE46FE1CA59";
shapes = (
{
closed = 1;
nodes = (
(988,-14,o),
(1090,76,o),
(1090,330,cs),
(1090,1174,l),
(1042,1174,l),
(1042,330,ls),
(1042,108,o),
(952,30,o),
(702,30,cs),
(452,30,o),
(362,108,o),
(362,330,cs),
(362,1010,ls),
(362,1114,o),
(298,1188,o),
(210,1188,cs),
(122,1188,o),
(62,1114,o),
(62,1010,cs),
(62,906,o),
(120,834,o),
(208,834,cs),
(268,834,o),
(314,866,o),
(330,924,c),
(316,924,l),
(316,330,ls),
(316,76,o),
(416,-14,o),
(702,-14,cs)
);
},
{
closed = 1;
nodes = (
(148,878,o),
(104,932,o),
(104,1010,cs),
(104,1088,o),
(148,1144,o),
(210,1144,cs),
(272,1144,o),
(316,1088,o),
(316,1010,cs),
(316,932,o),
(272,878,o),
(210,878,cs)
);
},
{
closed = 1;
nodes = (
(938,418,o),
(1004,436,o),
(1058,470,c),
(1052,520,l),
(1002,480,o),
(940,462,o),
(862,462,cs),
(776,462,o),
(702,484,o),
(668,520,c),
(616,520,l),
(638,502,o),
(666,494,o),
(696,494,cs),
(776,494,o),
(832,560,o),
(832,652,cs),
(832,746,o),
(776,814,o),
(696,814,cs),
(614,814,o),
(558,744,o),
(558,648,cs),
(558,512,o),
(684,418,o),
(860,418,cs)
);
},
{
closed = 1;
nodes = (
(640,532,o),
(602,582,o),
(602,652,cs),
(602,722,o),
(640,770,o),
(696,770,cs),
(750,770,o),
(788,722,o),
(788,652,cs),
(788,582,o),
(750,532,o),
(696,532,cs)
);
},
{
closed = 1;
nodes = (
(1190,552,o),
(1258,650,o),
(1288,790,c),
(1244,798,l),
(1218,678,o),
(1162,592,o),
(1070,534,c),
(1078,488,l)
);
}
);
width = 1316;
},
{
anchors = (
{
name = bottom;
pos = (1178,0);
},
{
name = top;
pos = (1178,1174);
}
);
layerId = "C698F293-3EC0-4A5A-A3A0-0FDB1F5CF265";
shapes = (
{
closed = 1;
nodes = (
(1064,-14,o),
(1178,76,o),
(1178,332,cs),
(1178,1174,l),
(1006,1174,l),
(1006,350,ls),
(1006,186,o),
(944,136,o),
(738,136,cs),
(532,136,o),
(468,186,o),
(468,350,cs),
(468,968,ls),
(468,1096,o),
(380,1188,o),
(254,1188,cs),
(132,1188,o),
(44,1098,o),
(44,976,cs),
(44,850,o),
(132,760,o),
(254,760,cs),
(330,760,o),
(392,794,o),
(424,850,c),
(298,850,l),
(298,332,ls),
(298,76,o),
(414,-14,o),
(738,-14,cs)
);
},
{
closed = 1;
nodes = (
(202,868,o),
(166,912,o),
(166,974,cs),
(166,1036,o),
(202,1078,o),
(250,1078,cs),
(298,1078,o),
(334,1036,o),
(334,974,cs),
(334,912,o),
(298,868,o),
(250,868,cs)
);
},
{
closed = 1;
nodes = (
(980,424,o),
(1020,430,o),
(1058,440,c),
(1046,556,l),
(1016,542,o),
(984,536,o),
(950,536,cs),
(892,536,o),
(846,548,o),
(810,578,c),
(618,578,l),
(648,540,o),
(698,518,o),
(754,518,cs),
(858,518,o),
(932,592,o),
(932,694,cs),
(932,804,o),
(860,882,o),
(758,882,cs),
(646,882,o),
(570,802,o),
(570,688,cs),
(570,532,o),
(720,424,o),
(938,424,cs)
);
},
{
closed = 1;
nodes = (
(710,606,o),
(680,644,o),
(680,694,cs),
(680,744,o),
(710,782,o),
(752,782,cs),
(794,782,o),
(824,744,o),
(824,694,cs),
(824,644,o),
(794,606,o),
(752,606,cs)
);
},
{
closed = 1;
nodes = (
(1314,530,o),
(1392,608,o),
(1434,770,c),
(1292,822,l),
(1252,692,o),
(1208,630,o),
(1122,582,c),
(1136,462,l)
);
}
);
width = 1448;
},
{
anchors = (
{
name = bottom;
pos = (1292,0);
},
{
name = top;
pos = (1306,1174);
}
);
layerId = "5C20EF92-B63D-42A8-8878-93C2863E0093";
shapes = (
{
closed = 1;
nodes = (
(1160,-18,o),
(1306,98,o),
(1306,434,cs),
(1306,1174,l),
(940,1174,l),
(940,450,ls),
(940,320,o),
(890,274,o),
(754,274,cs),
(616,274,o),
(566,320,o),
(566,450,cs),
(566,926,ls),
(566,1086,o),
(454,1192,o),
(290,1192,cs),
(136,1192,o),
(24,1086,o),
(24,940,cs),
(24,800,o),
(130,698,o),
(276,698,cs),
(348,698,o),
(410,732,o),
(432,782,c),
(174,782,l),
(174,434,ls),
(174,102,o),
(326,-18,o),
(742,-18,cs)
);
},
{
closed = 1;
nodes = (
(238,862,o),
(214,896,o),
(214,942,cs),
(214,988,o),
(238,1020,o),
(274,1020,cs),
(308,1020,o),
(334,988,o),
(334,942,cs),
(334,896,o),
(308,862,o),
(274,862,cs)
);
},
{
closed = 1;
nodes = (
(994,406,o),
(1034,408,o),
(1072,414,c),
(1034,624,l),
(1008,610,o),
(982,602,o),
(952,602,cs),
(920,602,o),
(894,608,o),
(866,622,c),
(646,566,l),
(678,524,o),
(748,494,o),
(810,494,cs),
(912,494,o),
(990,580,o),
(990,686,cs),
(990,800,o),
(902,878,o),
(772,878,cs),
(634,878,o),
(542,794,o),
(542,668,cs),
(542,506,o),
(694,406,o),
(946,406,cs)
);
},
{
closed = 1;
nodes = (
(738,624,o),
(718,650,o),
(718,686,cs),
(718,722,o),
(740,748,o),
(766,748,cs),
(794,748,o),
(814,722,o),
(814,686,cs),
(814,650,o),
(794,624,o),
(766,624,cs)
);
},
{
closed = 1;
nodes = (
(1354,524,o),
(1448,658,o),
(1470,840,c),
(1134,840,l),
(1122,776,o),
(1104,724,o),
(1080,686,c),
(1200,456,l)
);
}
);
width = 1470;
},
{
anchors = (
{
name = bottom;
pos = (1281,0);
},
{
name = top;
pos = (1289,1174);
}
);
associatedMasterId = "5C20EF92-B63D-42A8-8878-93C2863E0093";
attr = {
coordinates = (
700
);
};
layerId = "0A41B7B6-1906-4917-9785-557DFE3293FD";
name = "Bold{700,0}";
shapes = (
{
closed = 1;
nodes = (
(1157,-20,o),
(1291,88,o),
(1291,390,cs),
(1291,1174,l),
(1001,1174,l),
(1001,414,ls),
(1001,270,o),
(947,224,o),
(781,224,cs),
(615,224,o),
(561,270,o),
(561,414,cs),
(561,940,ls),
(561,1090,o),
(457,1188,o),
(311,1188,cs),
(169,1188,o),
(67,1088,o),
(67,952,cs),
(67,818,o),
(165,722,o),
(303,722,cs),
(377,722,o),
(439,754,o),
(465,806,c),
(259,796,l),
(259,390,ls),
(259,88,o),
(397,-20,o),
(775,-20,cs)
);
},
{
closed = 1;
nodes = (
(259,864,o),
(229,900,o),
(229,952,cs),
(229,1004,o),
(259,1042,o),
(299,1042,cs),
(339,1042,o),
(369,1004,o),
(369,952,cs),
(369,900,o),
(339,864,o),
(299,864,cs)
);
},
{
closed = 1;
nodes = (
(1025,414,o),
(1067,416,o),
(1105,424,c),
(1077,596,l),
(1051,582,o),
(1021,576,o),
(989,576,cs),
(947,576,o),
(913,586,o),
(881,606,c),
(671,578,l),
(701,534,o),
(741,508,o),
(801,508,cs),
(903,508,o),
(975,584,o),
(975,690,cs),
(975,800,o),
(899,880,o),
(789,880,cs),
(675,880,o),
(591,794,o),
(591,674,cs),
(591,514,o),
(747,414,o),
(981,414,cs)
);
},
{
closed = 1;
nodes = (
(761,616,o),
(737,648,o),
(737,690,cs),
(737,730,o),
(761,760,o),
(795,760,cs),
(827,760,o),
(851,730,o),
(851,690,cs),
(851,648,o),
(827,616,o),
(795,616,cs)
);
},
{
closed = 1;
nodes = (
(1345,524,o),
(1437,634,o),
(1467,814,c),
(1233,834,l),
(1209,744,o),
(1179,686,o),
(1131,644,c),
(1209,458,l)
);
}
);
width = 1497;
},
{
anchors = (
{
name = bottom;
pos = (1307,0);
},
{
name = top;
pos = (1317,1174);
}
);
associatedMasterId = "5C20EF92-B63D-42A8-8878-93C2863E0093";
attr = {
coordinates = (
800
);
};
background = {
shapes = (
{
closed = 1;
nodes = (
(1179,-22,o),
(1317,92,o),
(1317,410,cs),
(1317,1174,l),
(989,1174,l),
(989,436,ls),
(989,300,o),
(939,254,o),
(787,254,cs),
(635,254,o),
(583,300,o),
(583,436,cs),
(583,930,ls),
(583,1086,o),
(475,1188,o),
(321,1188,cs),
(173,1188,o),
(65,1086,o),
(65,944,cs),
(65,808,o),
(167,708,o),
(309,708,cs),
(383,708,o),
(443,742,o),
(467,792,c),
(237,778,l),
(237,410,ls),
(237,92,o),
(383,-22,o),
(777,-22,cs)
);
},
{
closed = 1;
nodes = (
(269,862,o),
(241,898,o),
(241,946,cs),
(241,994,o),
(269,1030,o),
(307,1030,cs),
(345,1030,o),
(371,994,o),
(371,946,cs),
(371,898,o),
(345,862,o),
(307,862,cs)
);
},
{
closed = 1;
nodes = (
(1055,410,o),
(1097,412,o),
(1135,418,c),
(1101,610,l),
(1075,596,o),
(1049,588,o),
(1017,588,cs),
(981,588,o),
(949,598,o),
(919,614,c),
(705,572,l),
(737,530,o),
(791,500,o),
(851,500,cs),
(953,500,o),
(1029,580,o),
(1029,686,cs),
(1029,798,o),
(949,878,o),
(827,878,cs),
(703,878,o),
(613,796,o),
(613,672,cs),
(613,510,o),
(769,410,o),
(1009,410,cs)
);
},
{
closed = 1;
nodes = (
(797,620,o),
(773,648,o),
(773,688,cs),
(773,726,o),
(797,754,o),
(827,754,cs),
(857,754,o),
(879,726,o),
(879,688,cs),
(879,648,o),
(857,620,o),
(827,620,cs)
);
},
{
closed = 1;
nodes = (
(1365,522,o),
(1461,640,o),
(1487,826,c),
(1203,838,l),
(1185,760,o),
(1161,706,o),
(1125,666,c),
(1223,456,l)
);
}
);
};
layerId = "D79977EB-3922-4CC1-A969-B7FB77484CF3";
name = "Extra Bold{800,0}";
shapes = (
{
closed = 1;
nodes = (
(1179,-22,o),
(1319,92,o),
(1319,410,cs),
(1319,1174,l),
(989,1174,l),
(989,436,ls),
(989,300,o),
(937,254,o),
(787,254,cs),
(635,254,o),
(583,300,o),
(583,436,cs),
(583,930,ls),
(583,1086,o),
(475,1188,o),
(321,1188,cs),
(173,1188,o),
(67,1086,o),
(67,944,cs),
(67,808,o),
(167,708,o),
(309,708,cs),
(383,708,o),
(443,740,o),
(467,792,c),
(237,778,l),
(237,410,ls),
(237,92,o),
(383,-22,o),
(777,-22,cs)
);
},
{
closed = 1;
nodes = (
(269,862,o),
(243,898,o),
(243,946,cs),
(243,994,o),
(269,1030,o),
(307,1030,cs),
(345,1030,o),
(371,994,o),
(371,946,cs),
(371,898,o),
(345,862,o),
(307,862,cs)
);
},
{
closed = 1;
nodes = (
(1055,410,o),
(1095,412,o),
(1135,418,c),
(1101,610,l),
(1075,594,o),
(1049,590,o),
(1017,590,cs),
(981,590,o),
(949,598,o),
(919,614,c),
(705,572,l),
(737,530,o),
(791,500,o),
(851,500,cs),
(953,500,o),
(1029,580,o),
(1029,686,cs),
(1029,798,o),
(949,878,o),
(827,878,cs),
(701,878,o),
(613,794,o),
(613,672,cs),
(613,508,o),
(769,410,o),
(1011,410,cs)
);
},
{
closed = 1;
nodes = (
(795,620,o),
(775,648,o),
(775,688,cs),
(775,726,o),
(795,754,o),
(827,754,cs),
(857,754,o),
(879,726,o),
(879,688,cs),
(879,648,o),
(857,620,o),
(827,620,cs)
);
},
{
closed = 1;
nodes = (
(1365,522,o),
(1461,642,o),
(1489,828,c),
(1203,838,l),
(1185,760,o),
(1161,706,o),
(1125,666,c),
(1223,456,l)
);
}
);
width = 1509;
}
);
metricLeft = "boBaimai-thai";
unicode = 3625;
}
{
glyphname = "hoHip-thai";
kernLeft = "boBaimai-thai";
layers = (
{
anchors = (
{
name = bottom;
pos = (1074,0);
},
{
name = top;
pos = (1074,1174);
}
);
layerId = "B1F27B51-9973-4381-9301-4FE46FE1CA59";
shapes = (
{
closed = 1;
nodes = (
(366,0,l),
(366,94,ls),
(366,512,o),
(586,830,o),
(874,830,cs),
(972,830,o),
(1026,776,o),
(1026,674,cs),
(1026,0,l),
(1074,0,l),
(1074,674,ls),
(1074,804,o),
(1002,876,o),
(874,876,cs),
(652,876,o),
(458,702,o),
(372,426,c),
(366,426,l),
(366,1010,ls),
(366,1114,o),
(304,1188,o),
(214,1188,cs),
(126,1188,o),
(66,1114,o),
(66,1010,cs),
(66,904,o),
(124,834,o),
(212,834,cs),
(272,834,o),
(318,868,o),
(334,924,c),
(320,924,l),
(320,0,l)
);
},
{
closed = 1;
nodes = (
(152,878,o),
(110,932,o),
(110,1010,cs),
(110,1088,o),
(152,1144,o),
(214,1144,cs),
(276,1144,o),
(320,1088,o),
(320,1010,cs),
(320,932,o),
(276,878,o),
(214,878,cs)
);
},
{
closed = 1;
nodes = (
(1020,834,o),
(1082,906,o),
(1082,1010,cs),
(1082,1114,o),
(1020,1188,o),
(932,1188,cs),
(844,1188,o),
(784,1114,o),
(784,1010,cs),
(784,906,o),
(844,834,o),
(932,834,cs)
);
},
{
closed = 1;
nodes = (
(870,878,o),
(828,932,o),
(828,1010,cs),
(828,1088,o),
(870,1144,o),
(932,1144,cs),
(994,1144,o),
(1038,1088,o),
(1038,1010,cs),
(1038,932,o),
(994,878,o),
(932,878,cs)
);
}
);
width = 1276;
},
{
anchors = (
{
name = bottom;
pos = (1164,0);
},
{
name = top;
pos = (1164,1174);
}
);
layerId = "C698F293-3EC0-4A5A-A3A0-0FDB1F5CF265";
shapes = (
{
closed = 1;
nodes = (
(474,0,l),
(474,152,ls),
(474,450,o),
(656,728,o),
(852,728,cs),
(944,728,o),
(992,680,o),
(992,586,cs),
(992,0,l),
(1164,0,l),
(1164,600,ls),
(1164,766,o),
(1062,858,o),
(876,858,cs),
(708,858,o),
(556,750,o),
(482,576,c),
(470,576,l),
(470,968,ls),
(470,1098,o),
(382,1188,o),
(258,1188,cs),
(136,1188,o),
(48,1098,o),
(48,976,cs),
(48,850,o),
(136,760,o),
(258,760,cs),
(334,760,o),
(398,794,o),
(430,850,c),
(302,850,l),
(302,0,l)
);
},
{
closed = 1;
nodes = (
(206,868,o),
(170,912,o),
(170,974,cs),
(170,1036,o),
(206,1078,o),
(254,1078,cs),
(302,1078,o),
(338,1036,o),
(338,974,cs),
(338,912,o),
(302,868,o),
(254,868,cs)
);
},
{
closed = 1;
nodes = (
(1092,760,o),
(1182,852,o),
(1182,974,cs),
(1182,1100,o),
(1092,1188,o),
(966,1188,cs),
(840,1188,o),
(750,1100,o),
(750,974,cs),
(750,852,o),
(840,760,o),
(966,760,cs)
);
},
{
closed = 1;
nodes = (
(918,868,o),
(882,912,o),
(882,974,cs),
(882,1036,o),
(918,1078,o),
(966,1078,cs),
(1014,1078,o),
(1050,1036,o),
(1050,974,cs),
(1050,912,o),
(1014,868,o),
(966,868,cs)
);
}
);
width = 1336;
},
{
anchors = (
{
name = bottom;
pos = (1270,0);
},
{
name = top;
pos = (1270,1174);
}
);
layerId = "5C20EF92-B63D-42A8-8878-93C2863E0093";
shapes = (
{
closed = 1;
nodes = (
(568,0,l),
(568,248,ls),
(568,422,o),
(658,556,o),
(776,556,cs),
(834,556,o),
(866,522,o),
(866,464,cs),
(866,0,l),
(1270,0,l),
(1270,558,ls),
(1270,742,o),
(1150,856,o),
(954,856,cs),
(794,856,o),
(648,778,o),
(568,652,c),
(556,652,l),
(556,926,ls),
(556,1086,o),
(454,1192,o),
(296,1192,cs),
(140,1192,o),
(30,1086,o),
(30,940,cs),
(30,800,o),
(134,698,o),
(280,698,cs),
(352,698,o),
(414,732,o),
(436,782,c),
(178,782,l),
(178,0,l)
);
},
{
closed = 1;
nodes = (
(244,862,o),
(218,896,o),
(218,942,cs),
(218,988,o),
(244,1020,o),
(280,1020,cs),
(314,1020,o),
(338,988,o),
(338,942,cs),
(338,896,o),
(314,862,o),
(280,862,cs)
);
},
{
closed = 1;
nodes = (
(1174,698,o),
(1284,802,o),
(1284,942,cs),
(1284,1086,o),
(1174,1192,o),
(1022,1192,cs),
(868,1192,o),
(758,1088,o),
(758,942,cs),
(758,800,o),
(868,698,o),
(1022,698,cs)
);
},
{
closed = 1;
nodes = (
(986,862,o),
(962,896,o),
(962,942,cs),
(962,988,o),
(986,1020,o),
(1022,1020,cs),
(1056,1020,o),
(1080,988,o),
(1080,942,cs),
(1080,896,o),
(1056,862,o),
(1022,862,cs)
);
}
);
width = 1374;
}
);
metricLeft = "noNu-thai";
unicode = 3627;
}
{
glyphname = "loChula-thai";
kernLeft = "boBaimai-thai";
layers = (
{
anchors = (
{
name = bottom;
pos = (1212,0);
}
);
layerId = "B1F27B51-9973-4381-9301-4FE46FE1CA59";
shapes = (
{
closed = 1;
nodes = (
(376,0,l),
(764,906,l),
(770,906,l),
(1154,0,l),
(1212,0,l),
(1212,1090,ls),
(1212,1198,o),
(1190,1286,o),
(1146,1354,c),
(1084,1450,o),
(984,1500,o),
(848,1500,cs),
(704,1500,o),
(614,1434,o),
(614,1332,cs),
(614,1230,o),
(704,1166,o),
(848,1166,cs),
(962,1166,o),
(1054,1212,o),
(1136,1312,c),
(1108,1350,l),
(1032,1252,o),
(952,1208,o),
(848,1208,cs),
(732,1208,o),
(658,1256,o),
(658,1332,cs),
(658,1408,o),
(732,1456,o),
(848,1456,cs),
(1052,1456,o),
(1166,1324,o),
(1166,1090,cs),
(1166,104,l),
(1160,104,l),
(798,956,l),
(736,956,l),
(372,104,l),
(366,104,l),
(366,1010,ls),
(366,1114,o),
(302,1188,o),
(214,1188,cs),
(126,1188,o),
(66,1114,o),
(66,1010,cs),
(66,906,o),
(124,834,o),
(212,834,cs),
(272,834,o),
(318,866,o),
(334,924,c),
(320,924,l),
(320,0,l)
);
},
{
closed = 1;
nodes = (
(152,878,o),
(110,932,o),
(110,1010,cs),
(110,1088,o),
(152,1144,o),
(214,1144,cs),
(276,1144,o),
(320,1088,o),
(320,1010,cs),
(320,932,o),
(276,878,o),
(214,878,cs)
);
},
{
closed = 1;
nodes = (
(1334,1566,l),
(1278,1566,l),
(1120,1358,l),
(1150,1322,l)
);
}
);
width = 1414;
},
{
anchors = (
{
name = bottom;
pos = (1288,0);
}
);
layerId = "C698F293-3EC0-4A5A-A3A0-0FDB1F5CF265";
shapes = (
{
closed = 1;
nodes = (
(536,0,l),
(786,728,l),
(802,728,l),
(1054,0,l),
(1288,0,l),
(1288,1088,ls),
(1288,1230,o),
(1240,1328,o),
(1154,1368,c),
(1104,1458,o),
(1002,1508,o),
(866,1508,cs),
(694,1508,o),
(576,1424,o),
(576,1298,cs),
(576,1180,o),
(686,1094,o),
(838,1094,cs),
(988,1094,o),
(1090,1154,o),
(1160,1282,c),
(1058,1332,l),
(1018,1248,o),
(942,1202,o),
(844,1202,cs),
(766,1202,o),
(706,1244,o),
(706,1298,cs),
(706,1354,o),
(770,1394,o),
(862,1394,cs),
(1024,1394,o),
(1120,1268,o),
(1120,1056,cs),
(1120,254,l),
(1108,254,l),
(880,912,l),
(710,912,l),
(480,254,l),
(468,254,l),
(468,968,ls),
(468,1098,o),
(382,1188,o),
(258,1188,cs),
(136,1188,o),
(48,1098,o),
(48,976,cs),
(48,850,o),
(136,760,o),
(258,760,cs),
(334,760,o),
(398,794,o),
(430,850,c),
(302,850,l),
(302,0,l)
);
},
{
closed = 1;
nodes = (
(206,868,o),
(170,912,o),
(170,974,cs),
(170,1036,o),
(206,1078,o),
(254,1078,cs),
(302,1078,o),
(338,1036,o),
(338,974,cs),
(338,912,o),
(302,868,o),
(254,868,cs)
);
},
{
closed = 1;
nodes = (
(1414,1566,l),
(1232,1566,l),
(1064,1362,l),
(1192,1304,l)
);
}
);
width = 1466;
},
{
anchors = (
{
name = bottom;
pos = (1392,0);
}
);
layerId = "5C20EF92-B63D-42A8-8878-93C2863E0093";
shapes = (
{
closed = 1;
nodes = (
(610,0,l),
(776,530,l),
(786,530,l),
(952,0,l),
(1392,0,l),
(1392,1118,ls),
(1392,1246,o),
(1328,1320,o),
(1216,1330,c),
(1182,1440,o),
(1068,1502,o),
(898,1502,cs),
(714,1502,o),
(580,1396,o),
(580,1250,cs),
(580,1112,o),
(692,1014,o),
(850,1014,cs),
(1002,1014,o),
(1120,1082,o),
(1186,1208,c),
(1018,1300,l),
(986,1230,o),
(932,1192,o),
(872,1192,cs),
(824,1192,o),
(796,1214,o),
(796,1250,cs),
(796,1288,o),
(822,1310,o),
(872,1310,cs),
(970,1310,o),
(1026,1234,o),
(1026,1102,cs),
(1026,430,l),
(1014,430,l),
(854,898,l),
(706,898,l),
(548,430,l),
(536,430,l),
(536,926,ls),
(536,1092,o),
(444,1192,o),
(286,1192,cs),
(134,1192,o),
(30,1090,o),
(30,940,cs),
(30,796,o),
(126,698,o),
(270,698,cs),
(342,698,o),
(402,732,o),
(426,782,c),
(192,782,l),
(192,0,l)
);
},
{
closed = 1;
nodes = (
(234,862,o),
(208,896,o),
(208,942,cs),
(208,988,o),
(234,1020,o),
(268,1020,cs),
(302,1020,o),
(328,988,o),
(328,942,cs),
(328,896,o),
(302,862,o),
(268,862,cs)
);
},
{
closed = 1;
nodes = (
(1494,1566,l),
(1134,1566,l),
(1034,1394,l),
(1286,1254,l)
);
}
);
width = 1494;
}
);
metricLeft = "noNu-thai";
unicode = 3628;
}
{
glyphname = "oAng-thai";
kernLeft = "oAng-thai";
layers = (
{
anchors = (
{
name = bottom;
pos = (962,0);
},
{
name = top;
pos = (962,1174);
}
);
layerId = "B1F27B51-9973-4381-9301-4FE46FE1CA59";
shapes = (
{
closed = 1;
nodes = (
(876,-14,o),
(978,78,o),
(978,334,cs),
(978,766,ls),
(978,1024,o),
(814,1188,o),
(560,1188,cs),
(364,1188,o),
(206,1090,o),
(146,930,c),
(190,914,l),
(240,1054,o),
(382,1144,o),
(560,1144,cs),
(786,1144,o),
(930,996,o),
(930,766,cs),
(930,334,ls),
(930,110,o),
(842,30,o),
(590,30,cs),
(338,30,o),
(248,110,o),
(248,334,cs),
(248,504,l),
(232,504,l),
(248,450,o),
(294,418,o),
(350,418,cs),
(432,418,o),
(488,488,o),
(488,588,cs),
(488,686,o),
(430,756,o),
(346,756,cs),
(262,756,o),
(200,686,o),
(200,588,cs),
(200,334,ls),
(200,78,o),
(304,-14,o),
(590,-14,cs)
);
},
{
closed = 1;
nodes = (
(288,462,o),
(248,516,o),
(248,588,cs),
(248,660,o),
(288,712,o),
(346,712,cs),
(402,712,o),
(444,660,o),
(444,588,cs),
(444,514,o),
(402,462,o),
(346,462,cs)
);
}
);
width = 1168;
},
{
anchors = (
{
name = bottom;
pos = (1054,0);
},
{
name = top;
pos = (1038,1174);
}
);
layerId = "C698F293-3EC0-4A5A-A3A0-0FDB1F5CF265";
shapes = (
{
closed = 1;
nodes = (
(936,-14,o),
(1054,80,o),
(1054,344,cs),
(1054,784,ls),
(1054,1034,o),
(872,1198,o),
(592,1198,cs),
(370,1198,o),
(196,1092,o),
(130,920,c),
(288,862,l),
(334,974,o),
(448,1042,o),
(590,1042,cs),
(770,1042,o),
(882,936,o),
(882,766,cs),
(882,360,ls),
(882,188,o),
(818,136,o),
(610,136,cs),
(402,136,o),
(340,182,o),
(340,336,cs),
(340,428,l),
(216,428,l),
(246,376,o),
(308,344,o),
(380,344,cs),
(496,344,o),
(578,428,o),
(578,546,cs),
(578,664,o),
(496,750,o),
(380,750,cs),
(260,750,o),
(174,662,o),
(174,540,cs),
(174,322,ls),
(174,74,o),
(288,-14,o),
(610,-14,cs)
);
},
{
closed = 1;
nodes = (
(336,446,o),
(302,488,o),
(302,546,cs),
(302,604,o),
(336,644,o),
(382,644,cs),
(428,644,o),
(462,604,o),
(462,546,cs),
(462,488,o),
(428,446,o),
(382,446,cs)
);
}
);
width = 1214;
},
{
anchors = (
{
name = bottom;
pos = (1192,0);
},
{
name = top;
pos = (1176,1174);
}
);
layerId = "5C20EF92-B63D-42A8-8878-93C2863E0093";
shapes = (
{
closed = 1;
nodes = (
(1044,-18,o),
(1192,86,o),
(1192,376,cs),
(1192,792,ls),
(1192,1050,o),
(990,1198,o),
(636,1198,cs),
(290,1198,o),
(94,1054,o),
(76,792,c),
(464,792,l),
(482,864,o),
(538,898,o),
(632,898,cs),
(740,898,o),
(796,852,o),
(796,762,cs),
(796,392,ls),
(796,294,o),
(750,258,o),
(622,258,cs),
(520,258,o),
(480,280,o),
(480,334,cs),
(480,390,l),
(222,390,l),
(240,348,o),
(306,316,o),
(376,316,cs),
(510,316,o),
(604,400,o),
(604,520,cs),
(604,642,o),
(500,734,o),
(358,734,cs),
(208,734,o),
(98,634,o),
(98,492,cs),
(98,318,ls),
(98,70,o),
(238,-18,o),
(626,-18,cs)
);
},
{
closed = 1;
nodes = (
(338,442,o),
(318,472,o),
(318,514,cs),
(318,554,o),
(338,584,o),
(370,584,cs),
(402,584,o),
(424,554,o),
(424,514,cs),
(424,472,o),
(402,442,o),
(370,442,cs)
);
}
);
width = 1282;
}
);
unicode = 3629;
}
{
glyphname = "paiyannoi-thai";
layers = (
{
layerId = "B1F27B51-9973-4381-9301-4FE46FE1CA59";
shapes = (
{
closed = 1;
nodes = (
(818,0,l),
(818,1174,l),
(772,1174,l),
(772,1038,ls),
(772,804,o),
(616,634,o),
(398,634,cs),
(232,634,o),
(134,730,o),
(134,894,cs),
(134,932,o),
(140,968,o),
(152,1018,c),
(134,1018,l),
(140,912,o),
(192,848,o),
(276,848,cs),
(360,848,o),
(420,920,o),
(420,1018,cs),
(420,1116,o),
(360,1188,o),
(276,1188,cs),
(164,1188,o),
(88,1068,o),
(88,894,cs),
(88,698,o),
(198,590,o),
(398,590,cs),
(560,590,o),
(690,670,o),
(766,818,c),
(772,818,l),
(772,0,l)
);
},
{
closed = 1;
nodes = (
(218,894,o),
(178,946,o),
(178,1018,cs),
(178,1090,o),
(218,1144,o),
(276,1144,cs),
(332,1144,o),
(374,1090,o),
(374,1018,cs),
(374,944,o),
(332,894,o),
(276,894,cs)
);
}
);
width = 1028;
},
{
layerId = "C698F293-3EC0-4A5A-A3A0-0FDB1F5CF265";
shapes = (
{
closed = 1;
nodes = (
(946,0,l),
(946,1174,l),
(774,1174,l),
(774,1004,ls),
(774,830,o),
(648,714,o),
(464,714,cs),
(346,714,o),
(278,762,o),
(278,844,cs),
(278,874,o),
(286,902,o),
(302,928,c),
(204,986,l),
(204,900,o),
(272,836,o),
(366,836,cs),
(468,836,o),
(542,912,o),
(542,1016,cs),
(542,1120,o),
(470,1188,o),
(358,1188,cs),
(210,1188,o),
(110,1070,o),
(110,894,cs),
(110,688,o),
(234,560,o),
(434,560,cs),
(568,560,o),
(688,616,o),
(762,714,c),
(774,714,l),
(774,0,l)
);
},
{
closed = 1;
nodes = (
(318,926,o),
(290,964,o),
(290,1016,cs),
(290,1066,o),
(318,1104,o),
(360,1104,cs),
(402,1104,o),
(432,1066,o),
(432,1016,cs),
(432,964,o),
(402,926,o),
(360,926,cs)
);
}
);
width = 1124;
},
{
layerId = "5C20EF92-B63D-42A8-8878-93C2863E0093";
shapes = (
{
closed = 1;
nodes = (
(1194,0,l),
(1194,1174,l),
(792,1174,l),
(792,924,ls),
(792,780,o),
(710,680,o),
(592,680,cs),
(496,680,o),
(436,730,o),
(436,808,cs),
(436,826,o),
(438,842,o),
(440,858,c),
(230,814,l),
(248,768,o),
(318,736,o),
(392,736,cs),
(530,736,o),
(632,830,o),
(632,962,cs),
(632,1104,o),
(536,1192,o),
(384,1192,cs),
(204,1192,o),
(72,1048,o),
(72,850,cs),
(72,606,o),
(234,448,o),
(482,448,cs),
(614,448,o),
(728,496,o),
(786,576,c),
(798,576,l),
(798,0,l)
);
},
{
closed = 1;
nodes = (
(396,884,o),
(372,916,o),
(372,960,cs),
(372,1004,o),
(396,1034,o),
(430,1034,cs),
(462,1034,o),
(486,1002,o),
(486,960,cs),
(486,916,o),
(462,884,o),
(430,884,cs)
);
}
);
width = 1304;
}
);
unicode = 3631;
}
{
glyphname = "saraA-thai";
layers = (
{
layerId = "B1F27B51-9973-4381-9301-4FE46FE1CA59";
shapes = (
{
closed = 1;
nodes = (
(660,684,o),
(802,818,o),
(842,1074,c),
(796,1082,l),
(762,848,o),
(638,728,o),
(430,728,cs),
(338,728,o),
(268,748,o),
(222,786,c),
(196,774,l),
(214,766,o),
(234,760,o),
(258,760,cs),
(338,760,o),
(396,828,o),
(396,920,cs),
(396,1014,o),
(338,1082,o),
(258,1082,cs),
(176,1082,o),
(116,1012,o),
(116,916,cs),
(116,776,o),
(242,684,o),
(430,684,cs)
);
},
{
closed = 1;
nodes = (
(202,800,o),
(162,850,o),
(162,920,cs),
(162,990,o),
(202,1038,o),
(258,1038,cs),
(312,1038,o),
(350,990,o),
(350,920,cs),
(350,850,o),
(312,800,o),
(258,800,cs)
);
},
{
closed = 1;
nodes = (
(660,64,o),
(802,200,o),
(842,456,c),
(796,462,l),
(762,228,o),
(638,110,o),
(430,110,cs),
(338,110,o),
(268,130,o),
(222,168,c),
(200,152,l),
(218,144,o),
(236,142,o),
(258,142,cs),
(338,142,o),
(396,208,o),
(396,300,cs),
(396,394,o),
(338,462,o),
(258,462,cs),
(176,462,o),
(116,392,o),
(116,296,cs),
(116,156,o),
(242,64,o),
(430,64,cs)
);
},
{
closed = 1;
nodes = (
(202,180,o),
(162,230,o),
(162,300,cs),
(162,370,o),
(202,418,o),
(258,418,cs),
(312,418,o),
(350,370,o),
(350,300,cs),
(350,230,o),
(312,180,o),
(258,180,cs)
);
}
);
width = 972;
},
{
layerId = "C698F293-3EC0-4A5A-A3A0-0FDB1F5CF265";
shapes = (
{
closed = 1;
nodes = (
(658,664,o),
(810,794,o),
(856,1028,c),
(702,1058,l),
(660,868,o),
(574,776,o),
(446,776,cs),
(404,776,o),
(368,786,o),
(334,804,c),
(194,748,l),
(218,736,o),
(246,730,o),
(276,730,cs),
(380,730,o),
(454,802,o),
(454,904,cs),
(454,1010,o),
(378,1086,o),
(274,1086,cs),
(164,1086,o),
(88,1010,o),
(88,898,cs),
(88,754,o),
(222,664,o),
(432,664,cs)
);
},
{
closed = 1;
nodes = (
(234,814,o),
(204,852,o),
(204,904,cs),
(204,956,o),
(234,994,o),
(276,994,cs),
(316,994,o),
(348,956,o),
(348,904,cs),
(348,852,o),
(316,814,o),
(276,814,cs)
);
},
{
closed = 1;
nodes = (
(658,50,o),
(810,180,o),
(856,414,c),
(702,444,l),
(660,254,o),
(574,162,o),
(446,162,cs),
(404,162,o),
(368,172,o),
(334,190,c),
(194,134,l),
(218,122,o),
(246,116,o),
(276,116,cs),
(380,116,o),
(454,188,o),
(454,290,cs),
(454,396,o),
(378,472,o),
(274,472,cs),
(164,472,o),
(88,398,o),
(88,286,cs),
(88,142,o),
(222,50,o),
(432,50,cs)
);
},
{
closed = 1;
nodes = (
(234,200,o),
(204,238,o),
(204,290,cs),
(204,342,o),
(234,382,o),
(276,382,cs),
(316,382,o),
(348,342,o),
(348,290,cs),
(348,238,o),
(316,200,o),
(276,200,cs)
);
}
);
width = 936;
},
{
layerId = "5C20EF92-B63D-42A8-8878-93C2863E0093";
shapes = (
{
closed = 1;
nodes = (
(774,606,o),
(944,772,o),
(968,1100,c),
(634,1100,l),
(624,942,o),
(572,852,o),
(490,852,cs),
(456,852,o),
(428,860,o),
(396,876,c),
(160,798,l),
(196,750,o),
(252,726,o),
(318,726,cs),
(428,726,o),
(510,814,o),
(510,928,cs),
(510,1052,o),
(416,1140,o),
(286,1140,cs),
(144,1140,o),
(44,1040,o),
(44,902,cs),
(44,722,o),
(208,606,o),
(464,606,cs)
);
},
{
closed = 1;
nodes = (
(270,862,o),
(248,890,o),
(248,930,cs),
(248,970,o),
(270,998,o),
(300,998,cs),
(330,998,o),
(350,970,o),
(350,930,cs),
(350,890,o),
(330,862,o),
(300,862,cs)
);
},
{
closed = 1;
nodes = (
(774,14,o),
(944,182,o),
(968,510,c),
(634,510,l),
(624,352,o),
(572,262,o),
(490,262,cs),
(456,262,o),
(428,270,o),
(396,286,c),
(160,208,l),
(196,160,o),
(252,136,o),
(318,136,cs),
(428,136,o),
(510,224,o),
(510,338,cs),
(510,462,o),
(416,550,o),
(286,550,cs),
(144,550,o),
(44,450,o),
(44,312,cs),
(44,132,o),
(208,14,o),
(464,14,cs)
);
},
{
closed = 1;
nodes = (
(270,270,o),
(248,298,o),
(248,338,cs),
(248,378,o),
(270,408,o),
(300,408,cs),
(330,408,o),
(350,378,o),
(350,338,cs),
(350,298,o),
(330,270,o),
(300,270,cs)
);
}
);
width = 1012;
}
);
unicode = 3632;
}
{
glyphname = "maiHanaKat-thai";
layers = (
{
anchors = (
{
name = _top;
pos = (-198,1174);
},
{
name = top;
pos = (-198,1662);
}
);
layerId = "B1F27B51-9973-4381-9301-4FE46FE1CA59";
shapes = (
{
closed = 1;
nodes = (
(-134,1322,o),
(6,1456,o),
(46,1712,c),
(2,1720,l),
(-34,1486,o),
(-158,1366,o),
(-366,1366,cs),
(-458,1366,o),
(-528,1386,o),
(-572,1424,c),
(-628,1432,l),
(-606,1408,o),
(-578,1398,o),
(-540,1398,cs),
(-460,1398,o),
(-402,1464,o),
(-402,1556,cs),
(-402,1650,o),
(-460,1720,o),
(-540,1720,cs),
(-620,1720,o),
(-678,1650,o),
(-678,1554,cs),
(-678,1416,o),
(-552,1322,o),
(-366,1322,cs)
);
},
{
closed = 1;
nodes = (
(-594,1438,o),
(-634,1486,o),
(-634,1556,cs),
(-634,1626,o),
(-594,1676,o),
(-540,1676,cs),
(-486,1676,o),
(-446,1626,o),
(-446,1556,cs),
(-446,1486,o),
(-486,1438,o),
(-540,1438,cs)
);
}
);
width = 0;
},
{
anchors = (
{
name = _top;
pos = (-168,1174);
},
{
name = top;
pos = (-168,1682);
}
);
layerId = "C698F293-3EC0-4A5A-A3A0-0FDB1F5CF265";
shapes = (
{
closed = 1;
nodes = (
(-130,1300,o),
(22,1428,o),
(68,1664,c),
(-88,1694,l),
(-130,1504,o),
(-216,1412,o),
(-350,1412,cs),
(-392,1412,o),
(-436,1422,o),
(-478,1440,c),
(-678,1440,l),
(-652,1394,o),
(-598,1366,o),
(-534,1366,cs),
(-430,1366,o),
(-356,1438,o),
(-356,1540,cs),
(-356,1646,o),
(-434,1722,o),
(-538,1722,cs),
(-648,1722,o),
(-724,1646,o),
(-724,1534,cs),
(-724,1388,o),
(-588,1300,o),
(-366,1300,cs)
);
},
{
closed = 1;
nodes = (
(-576,1450,o),
(-606,1488,o),
(-606,1540,cs),
(-606,1592,o),
(-576,1630,o),
(-534,1630,cs),
(-494,1630,o),
(-462,1592,o),
(-462,1540,cs),
(-462,1488,o),
(-494,1450,o),
(-534,1450,cs)
);
}
);
width = 0;
},
{
anchors = (
{
name = _top;
pos = (-100,1174);
},
{
name = top;
pos = (-100,1730);
}
);
layerId = "5C20EF92-B63D-42A8-8878-93C2863E0093";
shapes = (
{
closed = 1;
nodes = (
(-114,1266,o),
(84,1436,o),
(124,1730,c),
(-192,1730,l),
(-208,1564,o),
(-296,1474,o),
(-378,1474,cs),
(-410,1474,o),
(-440,1480,o),
(-472,1496,c),
(-692,1434,l),
(-658,1388,o),
(-606,1362,o),
(-542,1362,cs),
(-438,1362,o),
(-362,1442,o),
(-362,1554,cs),
(-362,1680,o),
(-458,1772,o),
(-598,1772,cs),
(-738,1772,o),
(-838,1680,o),
(-838,1550,cs),
(-838,1380,o),
(-668,1266,o),
(-416,1266,cs)
);
},
{
closed = 1;
nodes = (
(-626,1492,o),
(-648,1520,o),
(-648,1560,cs),
(-648,1600,o),
(-626,1630,o),
(-596,1630,cs),
(-566,1630,o),
(-544,1600,o),
(-544,1560,cs),
(-544,1520,o),
(-566,1492,o),
(-596,1492,cs)
);
}
);
width = 0;
}
);
unicode = 3633;
}
{
glyphname = "saraAa-thai";
kernLeft = "saraAa-thai";
kernRight = "saraAa-thai";
layers = (
{
layerId = "B1F27B51-9973-4381-9301-4FE46FE1CA59";
shapes = (
{
closed = 1;
nodes = (
(694,0,l),
(694,830,ls),
(694,1048,o),
(574,1188,o),
(386,1188,cs),
(220,1188,o),
(96,1078,o),
(58,896,c),
(102,880,l),
(132,1044,o),
(240,1144,o),
(386,1144,cs),
(546,1144,o),
(648,1020,o),
(648,830,cs),
(648,0,l)
);
}
);
width = 888;
},
{
layerId = "C698F293-3EC0-4A5A-A3A0-0FDB1F5CF265";
shapes = (
{
closed = 1;
nodes = (
(798,0,l),
(798,804,ls),
(798,1044,o),
(652,1198,o),
(426,1198,cs),
(228,1198,o),
(84,1082,o),
(44,896,c),
(200,850,l),
(226,970,o),
(310,1042,o),
(422,1042,cs),
(546,1042,o),
(626,948,o),
(626,802,cs),
(626,0,l)
);
}
);
width = 962;
},
{
layerId = "5C20EF92-B63D-42A8-8878-93C2863E0093";
shapes = (
{
closed = 1;
nodes = (
(978,0,l),
(978,810,ls),
(978,1056,o),
(810,1198,o),
(520,1198,cs),
(224,1198,o),
(48,1050,o),
(36,790,c),
(424,790,l),
(428,854,o),
(456,892,o),
(502,892,cs),
(548,892,o),
(574,852,o),
(574,786,cs),
(574,0,l)
);
}
);
width = 1112;
}
);
unicode = 3634;
}
{
glyphname = "saraAm-thai";
kernLeft = "saraAa-thai";
kernRight = "saraAa-thai";
layers = (
{
layerId = "B1F27B51-9973-4381-9301-4FE46FE1CA59";
shapes = (
{
closed = 1;
nodes = (
(694,0,l),
(694,830,ls),
(694,1048,o),
(574,1188,o),
(386,1188,cs),
(220,1188,o),
(96,1078,o),
(58,896,c),
(102,880,l),
(132,1044,o),
(240,1144,o),
(386,1144,cs),
(546,1144,o),
(648,1020,o),
(648,830,cs),
(648,0,l)
);
},
{
closed = 1;
nodes = (
(-130,1320,o),
(-62,1398,o),
(-62,1506,cs),
(-62,1614,o),
(-130,1690,o),
(-222,1690,cs),
(-312,1690,o),
(-378,1614,o),
(-378,1506,cs),
(-378,1398,o),
(-312,1320,o),
(-222,1320,cs)
);
},
{
closed = 1;
nodes = (
(-286,1362,o),
(-334,1424,o),
(-334,1506,cs),
(-334,1588,o),
(-286,1646,o),
(-222,1646,cs),
(-156,1646,o),
(-108,1588,o),
(-108,1506,cs),
(-108,1424,o),
(-156,1362,o),
(-222,1362,cs)
);
}
);
width = 888;
},
{
layerId = "C698F293-3EC0-4A5A-A3A0-0FDB1F5CF265";
shapes = (
{
closed = 1;
nodes = (
(798,0,l),
(798,804,ls),
(798,1044,o),
(652,1198,o),
(426,1198,cs),
(230,1198,o),
(84,1082,o),
(44,896,c),
(200,850,l),
(226,970,o),
(312,1042,o),
(422,1042,cs),
(548,1042,o),
(626,948,o),
(626,802,cs),
(626,0,l)
);
},
{
closed = 1;
nodes = (
(-138,1304,o),
(-52,1386,o),
(-52,1498,cs),
(-52,1610,o),
(-138,1690,o),
(-254,1690,cs),
(-370,1690,o),
(-454,1610,o),
(-454,1498,cs),
(-454,1386,o),
(-370,1304,o),
(-254,1304,cs)
);
},
{
closed = 1;
nodes = (
(-300,1406,o),
(-332,1444,o),
(-332,1498,cs),
(-332,1552,o),
(-300,1590,o),
(-254,1590,cs),
(-208,1590,o),
(-174,1552,o),
(-174,1498,cs),
(-174,1444,o),
(-208,1406,o),
(-254,1406,cs)
);
}
);
width = 962;
},
{
layerId = "5C20EF92-B63D-42A8-8878-93C2863E0093";
shapes = (
{
closed = 1;
nodes = (
(978,0,l),
(978,810,ls),
(978,1058,o),
(810,1198,o),
(520,1198,cs),
(224,1198,o),
(50,1050,o),
(36,790,c),
(424,790,l),
(428,856,o),
(456,892,o),
(502,892,cs),
(548,892,o),
(574,852,o),
(574,786,cs),
(574,0,l)
);
},
{
closed = 1;
nodes = (
(-142,1258,o),
(-30,1360,o),
(-30,1502,cs),
(-30,1644,o),
(-142,1746,o),
(-300,1746,cs),
(-458,1746,o),
(-572,1644,o),
(-572,1502,cs),
(-572,1360,o),
(-458,1258,o),
(-300,1258,cs)
);
},
{
closed = 1;
nodes = (
(-334,1422,o),
(-360,1456,o),
(-360,1502,cs),
(-360,1548,o),
(-334,1582,o),
(-300,1582,cs),
(-266,1582,o),
(-240,1548,o),
(-240,1502,cs),
(-240,1456,o),
(-266,1422,o),
(-300,1422,cs)
);
}
);
width = 1112;
}
);
unicode = 3635;
}
{
glyphname = "saraI-thai";
layers = (
{
anchors = (
{
name = _top;
pos = (-198,1174);
},
{
name = top;
pos = (-198,1618);
}
);
layerId = "B1F27B51-9973-4381-9301-4FE46FE1CA59";
shapes = (
{
closed = 1;
nodes = (
(-198,1334,l),
(-198,1370,l),
(-296,1548,o),
(-484,1662,o),
(-686,1662,cs),
(-890,1662,o),
(-1020,1548,o),
(-1020,1370,cs),
(-1020,1334,l)
);
},
{
closed = 1;
nodes = (
(-974,1522,o),
(-864,1618,o),
(-686,1618,cs),
(-506,1618,o),
(-334,1518,o),
(-244,1362,c),
(-240,1378,l),
(-996,1378,l),
(-974,1370,l)
);
}
);
width = 0;
},
{
anchors = (
{
name = _top;
pos = (-168,1174);
},
{
name = top;
pos = (-168,1640);
}
);
layerId = "C698F293-3EC0-4A5A-A3A0-0FDB1F5CF265";
shapes = (
{
closed = 1;
nodes = (
(-168,1320,l),
(-168,1416,l),
(-268,1582,o),
(-456,1682,o),
(-664,1682,cs),
(-896,1682,o),
(-1048,1558,o),
(-1048,1372,cs),
(-1048,1320,l)
);
},
{
closed = 1;
nodes = (
(-890,1500,o),
(-802,1562,o),
(-654,1562,cs),
(-500,1562,o),
(-370,1496,o),
(-300,1384,c),
(-228,1428,l),
(-938,1428,l),
(-890,1390,l)
);
}
);
width = 0;
},
{
anchors = (
{
name = _top;
pos = (-100,1174);
},
{
name = top;
pos = (-100,1688);
}
);
layerId = "5C20EF92-B63D-42A8-8878-93C2863E0093";
shapes = (
{
closed = 1;
nodes = (
(-100,1290,l),
(-100,1400,l),
(-256,1588,o),
(-496,1702,o),
(-738,1702,cs),
(-998,1702,o),
(-1146,1572,o),
(-1146,1342,cs),
(-1146,1290,l)
);
},
{
closed = 1;
nodes = (
(-820,1488,o),
(-760,1538,o),
(-662,1538,cs),
(-560,1538,o),
(-450,1484,o),
(-388,1406,c),
(-350,1438,l),
(-854,1438,l),
(-820,1406,l)
);
}
);
width = 0;
}
);
unicode = 3636;
}
{
glyphname = "saraIi-thai";
layers = (
{
anchors = (
{
name = _top;
pos = (-198,1174);
},
{
name = top;
pos = (-198,1662);
}
);
layerId = "B1F27B51-9973-4381-9301-4FE46FE1CA59";
shapes = (
{
closed = 1;
nodes = (
(-198,1334,l),
(-198,1662,l),
(-244,1662,l),
(-244,1414,l),
(-250,1414,l),
(-348,1566,o),
(-518,1662,o),
(-686,1662,cs),
(-890,1662,o),
(-1020,1548,o),
(-1020,1370,cs),
(-1020,1334,l)
);
},
{
closed = 1;
nodes = (
(-974,1522,o),
(-864,1618,o),
(-686,1618,cs),
(-518,1618,o),
(-352,1518,o),
(-262,1362,c),
(-260,1378,l),
(-996,1378,l),
(-974,1370,l)
);
}
);
width = 0;
},
{
anchors = (
{
name = _top;
pos = (-168,1174);
},
{
name = top;
pos = (-168,1682);
}
);
layerId = "C698F293-3EC0-4A5A-A3A0-0FDB1F5CF265";
shapes = (
{
closed = 1;
nodes = (
(-168,1320,l),
(-168,1682,l),
(-318,1682,l),
(-318,1480,l),
(-330,1480,l),
(-400,1608,o),
(-532,1682,o),
(-698,1682,cs),
(-912,1682,o),
(-1048,1562,o),
(-1048,1372,cs),
(-1048,1320,l)
);
},
{
closed = 1;
nodes = (
(-890,1502,o),
(-816,1562,o),
(-682,1562,cs),
(-546,1562,o),
(-430,1496,o),
(-368,1384,c),
(-310,1428,l),
(-944,1428,l),
(-890,1390,l)
);
}
);
width = 0;
},
{
anchors = (
{
name = _top;
pos = (-100,1174);
},
{
name = top;
pos = (-100,1730);
}
);
layerId = "5C20EF92-B63D-42A8-8878-93C2863E0093";
shapes = (
{
closed = 1;
nodes = (
(-100,1290,l),
(-100,1730,l),
(-444,1730,l),
(-444,1568,l),
(-456,1568,l),
(-532,1656,o),
(-638,1702,o),
(-766,1702,cs),
(-996,1702,o),
(-1146,1560,o),
(-1146,1342,cs),
(-1146,1290,l)
);
},
{
closed = 1;
nodes = (
(-820,1492,o),
(-768,1538,o),
(-668,1538,cs),
(-564,1538,o),
(-480,1488,o),
(-446,1406,c),
(-402,1438,l),
(-854,1438,l),
(-820,1406,l)
);
}
);
width = 0;
}
);
unicode = 3637;
}
{
glyphname = "saraUe-thai";
layers = (
{
anchors = (
{
name = _top;
pos = (-198,1174);
},
{
name = top;
pos = (-212,1662);
}
);
layerId = "B1F27B51-9973-4381-9301-4FE46FE1CA59";
shapes = (
{
closed = 1;
nodes = (
(-236,1334,ls),
(-156,1334,o),
(-98,1406,o),
(-98,1506,cs),
(-98,1604,o),
(-156,1676,o),
(-236,1676,cs),
(-316,1676,o),
(-380,1602,o),
(-374,1484,c),
(-346,1506,l),
(-382,1506,l),
(-472,1600,o),
(-604,1662,o),
(-724,1662,cs),
(-904,1662,o),
(-1020,1548,o),
(-1020,1370,cs),
(-1020,1334,l)
);
},
{
closed = 1;
nodes = (
(-974,1522,o),
(-880,1618,o),
(-724,1618,cs),
(-566,1618,o),
(-406,1518,o),
(-322,1362,c),
(-318,1378,l),
(-996,1378,l),
(-974,1370,l)
);
},
{
closed = 1;
nodes = (
(-290,1378,o),
(-330,1432,o),
(-330,1506,cs),
(-330,1578,o),
(-290,1632,o),
(-236,1632,cs),
(-182,1632,o),
(-142,1578,o),
(-142,1506,cs),
(-142,1432,o),
(-182,1378,o),
(-236,1378,cs)
);
}
);
width = 0;
},
{
anchors = (
{
name = _top;
pos = (-168,1174);
},
{
name = top;
pos = (-206,1682);
}
);
layerId = "C698F293-3EC0-4A5A-A3A0-0FDB1F5CF265";
shapes = (
{
closed = 1;
nodes = (
(-290,1320,ls),
(-186,1320,o),
(-110,1400,o),
(-110,1512,cs),
(-110,1620,o),
(-184,1698,o),
(-282,1698,cs),
(-382,1698,o),
(-446,1620,o),
(-446,1498,c),
(-410,1530,l),
(-456,1530,l),
(-522,1632,o),
(-620,1682,o),
(-738,1682,cs),
(-924,1682,o),
(-1048,1564,o),
(-1048,1372,cs),
(-1048,1320,l)
);
},
{
closed = 1;
nodes = (
(-900,1500,o),
(-830,1562,o),
(-716,1562,cs),
(-602,1562,o),
(-500,1496,o),
(-446,1384,c),
(-402,1428,l),
(-944,1428,l),
(-900,1390,l)
);
},
{
closed = 1;
nodes = (
(-324,1420,o),
(-354,1458,o),
(-354,1512,cs),
(-354,1564,o),
(-324,1602,o),
(-284,1602,cs),
(-244,1602,o),
(-214,1564,o),
(-214,1512,cs),
(-214,1458,o),
(-244,1420,o),
(-284,1420,cs)
);
}
);
width = 0;
},
{
anchors = (
{
name = _top;
pos = (-100,1174);
},
{
name = top;
pos = (-100,1730);
}
);
layerId = "5C20EF92-B63D-42A8-8878-93C2863E0093";
shapes = (
{
closed = 1;
nodes = (
(-290,1290,ls),
(-154,1290,o),
(-58,1386,o),
(-58,1522,cs),
(-58,1652,o),
(-150,1748,o),
(-278,1748,cs),
(-408,1748,o),
(-490,1654,o),
(-490,1506,c),
(-422,1546,l),
(-456,1546,l),
(-530,1650,o),
(-632,1702,o),
(-766,1702,cs),
(-996,1702,o),
(-1146,1560,o),
(-1146,1342,cs),
(-1146,1290,l)
);
},
{
closed = 1;
nodes = (
(-820,1492,o),
(-768,1538,o),
(-668,1538,cs),
(-564,1538,o),
(-480,1488,o),
(-446,1406,c),
(-402,1438,l),
(-854,1438,l),
(-820,1406,l)
);
},
{
closed = 1;
nodes = (
(-322,1452,o),
(-344,1480,o),
(-344,1522,cs),
(-344,1562,o),
(-322,1594,o),
(-290,1594,cs),
(-258,1594,o),
(-234,1562,o),
(-234,1522,cs),
(-234,1480,o),
(-258,1452,o),
(-290,1452,cs)
);
}
);
width = 0;
}
);
unicode = 3638;
}
{
glyphname = "saraUee-thai";
layers = (
{
anchors = (
{
name = _top;
pos = (-198,1174);
},
{
name = top;
pos = (-198,1662);
}
);
layerId = "B1F27B51-9973-4381-9301-4FE46FE1CA59";
shapes = (
{
closed = 1;
nodes = (
(-198,1334,l),
(-198,1662,l),
(-244,1662,l),
(-244,1378,l),
(-314,1378,l),
(-314,1662,l),
(-358,1662,l),
(-358,1414,l),
(-364,1414,l),
(-452,1572,o),
(-588,1662,o),
(-738,1662,cs),
(-910,1662,o),
(-1020,1548,o),
(-1020,1370,cs),
(-1020,1334,l)
);
},
{
closed = 1;
nodes = (
(-974,1522,o),
(-882,1618,o),
(-734,1618,cs),
(-584,1618,o),
(-458,1526,o),
(-378,1362,c),
(-374,1378,l),
(-996,1378,l),
(-974,1370,l)
);
}
);
width = 0;
},
{
anchors = (
{
name = _top;
pos = (-168,1174);
},
{
name = top;
pos = (-168,1682);
}
);
layerId = "C698F293-3EC0-4A5A-A3A0-0FDB1F5CF265";
shapes = (
{
closed = 1;
nodes = (
(-168,1320,l),
(-168,1682,l),
(-288,1682,l),
(-288,1458,l),
(-350,1458,l),
(-350,1682,l),
(-462,1682,l),
(-462,1546,l),
(-474,1546,l),
(-544,1638,o),
(-634,1682,o),
(-746,1682,cs),
(-932,1682,o),
(-1048,1564,o),
(-1048,1372,cs),
(-1048,1320,l)
);
},
{
closed = 1;
nodes = (
(-900,1502,o),
(-836,1562,o),
(-724,1562,cs),
(-610,1562,o),
(-514,1496,o),
(-460,1384,c),
(-416,1428,l),
(-944,1428,l),
(-900,1390,l)
);
}
);
width = 0;
},
{
anchors = (
{
name = _top;
pos = (-100,1174);
},
{
name = top;
pos = (-100,1730);
}
);
layerId = "5C20EF92-B63D-42A8-8878-93C2863E0093";
shapes = (
{
closed = 1;
nodes = (
(-100,1290,l),
(-100,1730,l),
(-274,1730,l),
(-274,1512,l),
(-332,1512,l),
(-332,1730,l),
(-494,1730,l),
(-494,1568,l),
(-506,1568,l),
(-562,1656,o),
(-656,1702,o),
(-780,1702,cs),
(-1002,1702,o),
(-1146,1560,o),
(-1146,1342,cs),
(-1146,1290,l)
);
},
{
closed = 1;
nodes = (
(-834,1492,o),
(-780,1538,o),
(-682,1538,cs),
(-578,1538,o),
(-496,1488,o),
(-460,1406,c),
(-416,1438,l),
(-868,1438,l),
(-836,1406,l)
);
}
);
width = 0;
}
);
unicode = 3639;
}
{
glyphname = "saraU-thai";
layers = (
{
anchors = (
{
name = _bottom;
pos = (-198,0);
},
{
name = bottom;
pos = (-198,-604);
}
);
layerId = "B1F27B51-9973-4381-9301-4FE46FE1CA59";
shapes = (
{
closed = 1;
nodes = (
(-198,-604,l),
(-198,-308,ls),
(-198,-214,o),
(-254,-148,o),
(-332,-148,cs),
(-412,-148,o),
(-468,-214,o),
(-468,-308,cs),
(-468,-402,o),
(-414,-468,o),
(-334,-468,cs),
(-284,-468,o),
(-244,-442,o),
(-228,-398,c),
(-244,-398,l),
(-244,-604,l)
);
},
{
closed = 1;
nodes = (
(-386,-424,o),
(-424,-376,o),
(-424,-308,cs),
(-424,-240,o),
(-386,-192,o),
(-334,-192,cs),
(-282,-192,o),
(-244,-240,o),
(-244,-308,cs),
(-244,-376,o),
(-282,-424,o),
(-334,-424,cs)
);
}
);
width = 0;
},
{
anchors = (
{
name = _bottom;
pos = (-168,0);
},
{
name = bottom;
pos = (-168,-610);
}
);
layerId = "C698F293-3EC0-4A5A-A3A0-0FDB1F5CF265";
shapes = (
{
closed = 1;
nodes = (
(-168,-610,l),
(-168,-312,ls),
(-168,-206,o),
(-242,-130,o),
(-346,-130,cs),
(-450,-130,o),
(-522,-204,o),
(-522,-308,cs),
(-522,-408,o),
(-450,-482,o),
(-346,-482,cs),
(-288,-482,o),
(-226,-452,o),
(-202,-412,c),
(-332,-412,l),
(-332,-610,l)
);
},
{
closed = 1;
nodes = (
(-390,-398,o),
(-420,-360,o),
(-420,-308,cs),
(-420,-256,o),
(-390,-220,o),
(-348,-220,cs),
(-306,-220,o),
(-276,-258,o),
(-276,-308,cs),
(-276,-358,o),
(-306,-398,o),
(-348,-398,cs)
);
}
);
width = 0;
},
{
anchors = (
{
name = _bottom;
pos = (-100,0);
},
{
name = bottom;
pos = (-100,-652);
}
);
layerId = "5C20EF92-B63D-42A8-8878-93C2863E0093";
shapes = (
{
closed = 1;
nodes = (
(-100,-652,l),
(-100,-342,ls),
(-100,-200,o),
(-206,-98,o),
(-356,-98,cs),
(-500,-98,o),
(-604,-188,o),
(-604,-312,cs),
(-604,-432,o),
(-508,-518,o),
(-376,-518,cs),
(-306,-518,o),
(-240,-486,o),
(-220,-444,c),
(-462,-444,l),
(-462,-652,l)
);
},
{
closed = 1;
nodes = (
(-404,-392,o),
(-426,-362,o),
(-426,-320,cs),
(-426,-278,o),
(-404,-248,o),
(-372,-248,cs),
(-340,-248,o),
(-316,-280,o),
(-316,-320,cs),
(-316,-360,o),
(-340,-392,o),
(-372,-392,cs)
);
}
);
width = 0;
}
);
unicode = 3640;
}
{
glyphname = "saraUu-thai";
layers = (
{
anchors = (
{
name = _bottom;
pos = (-198,0);
},
{
name = bottom;
pos = (-198,-604);
}
);
layerId = "B1F27B51-9973-4381-9301-4FE46FE1CA59";
shapes = (
{
closed = 1;
nodes = (
(-246,-618,o),
(-198,-572,o),
(-198,-450,cs),
(-198,-160,l),
(-244,-160,l),
(-244,-450,ls),
(-244,-540,o),
(-280,-574,o),
(-378,-574,cs),
(-476,-574,o),
(-510,-540,o),
(-510,-450,cs),
(-510,-298,ls),
(-510,-210,o),
(-564,-148,o),
(-638,-148,cs),
(-712,-148,o),
(-764,-210,o),
(-764,-298,cs),
(-764,-384,o),
(-712,-446,o),
(-638,-446,cs),
(-590,-446,o),
(-560,-418,o),
(-538,-370,c),
(-556,-370,l),
(-556,-450,ls),
(-556,-572,o),
(-510,-618,o),
(-378,-618,cs)
);
},
{
closed = 1;
nodes = (
(-686,-402,o),
(-718,-358,o),
(-718,-298,cs),
(-718,-236,o),
(-686,-192,o),
(-638,-192,cs),
(-590,-192,o),
(-556,-236,o),
(-556,-298,cs),
(-556,-358,o),
(-590,-402,o),
(-638,-402,cs)
);
}
);
width = 0;
},
{
anchors = (
{
name = _bottom;
pos = (-168,0);
},
{
name = bottom;
pos = (-168,-626);
}
);
layerId = "C698F293-3EC0-4A5A-A3A0-0FDB1F5CF265";
shapes = (
{
closed = 1;
nodes = (
(-232,-640,o),
(-168,-592,o),
(-168,-456,cs),
(-168,-146,l),
(-314,-146,l),
(-314,-432,ls),
(-314,-502,o),
(-334,-520,o),
(-414,-520,cs),
(-492,-520,o),
(-516,-502,o),
(-516,-446,cs),
(-516,-296,ls),
(-516,-200,o),
(-584,-130,o),
(-678,-130,cs),
(-772,-130,o),
(-838,-196,o),
(-838,-290,cs),
(-838,-378,o),
(-770,-444,o),
(-678,-444,cs),
(-620,-444,o),
(-568,-420,o),
(-548,-386,c),
(-648,-386,l),
(-648,-470,ls),
(-648,-598,o),
(-588,-640,o),
(-414,-640,cs)
);
},
{
closed = 1;
nodes = (
(-720,-370,o),
(-746,-336,o),
(-746,-290,cs),
(-746,-242,o),
(-720,-210,o),
(-682,-210,cs),
(-644,-210,o),
(-616,-242,o),
(-616,-290,cs),
(-616,-336,o),
(-644,-370,o),
(-682,-370,cs)
);
}
);
width = 0;
},
{
anchors = (
{
name = _bottom;
pos = (-100,0);
},
{
name = bottom;
pos = (-100,-696);
}
);
layerId = "5C20EF92-B63D-42A8-8878-93C2863E0093";
shapes = (
{
closed = 1;
nodes = (
(-188,-696,o),
(-100,-624,o),
(-100,-424,cs),
(-100,-116,l),
(-396,-116,l),
(-396,-402,ls),
(-396,-444,o),
(-410,-460,o),
(-450,-460,cs),
(-490,-460,o),
(-504,-448,o),
(-504,-412,cs),
(-504,-330,ls),
(-504,-186,o),
(-600,-98,o),
(-754,-98,cs),
(-882,-98,o),
(-970,-182,o),
(-970,-302,cs),
(-970,-418,o),
(-882,-498,o),
(-758,-498,cs),
(-688,-498,o),
(-624,-466,o),
(-606,-418,c),
(-772,-418,l),
(-772,-434,ls),
(-772,-626,o),
(-684,-696,o),
(-442,-696,cs)
);
},
{
closed = 1;
nodes = (
(-786,-378,o),
(-810,-350,o),
(-810,-310,cs),
(-810,-270,o),
(-786,-242,o),
(-756,-242,cs),
(-726,-242,o),
(-706,-272,o),
(-706,-310,cs),
(-706,-350,o),
(-726,-378,o),
(-756,-378,cs)
);
}
);
width = 0;
}
);
unicode = 3641;
}
{
glyphname = "phinthu-thai";
layers = (
{
anchors = (
{
name = _bottom;
pos = (-198,0);
},
{
name = bottom;
pos = (-198,-286);
}
);
layerId = "B1F27B51-9973-4381-9301-4FE46FE1CA59";
shapes = (
{
closed = 1;
nodes = (
(-180,-286,o),
(-148,-256,o),
(-148,-216,cs),
(-148,-176,o),
(-180,-148,o),
(-222,-148,cs),
(-264,-148,o),
(-292,-176,o),
(-292,-216,cs),
(-292,-256,o),
(-264,-286,o),
(-222,-286,cs)
);
}
);
width = 0;
},
{
anchors = (
{
name = _bottom;
pos = (-168,0);
},
{
name = bottom;
pos = (-168,-364);
}
);
layerId = "C698F293-3EC0-4A5A-A3A0-0FDB1F5CF265";
shapes = (
{
closed = 1;
nodes = (
(-188,-364,o),
(-138,-318,o),
(-138,-254,cs),
(-138,-190,o),
(-188,-144,o),
(-256,-144,cs),
(-324,-144,o),
(-372,-190,o),
(-372,-254,cs),
(-372,-318,o),
(-322,-364,o),
(-256,-364,cs)
);
}
);
width = 0;
},
{
anchors = (
{
name = _bottom;
pos = (-100,0);
},
{
name = bottom;
pos = (-100,-564);
}
);
layerId = "5C20EF92-B63D-42A8-8878-93C2863E0093";
shapes = (
{
closed = 1;
nodes = (
(-176,-564,o),
(-78,-468,o),
(-78,-346,cs),
(-78,-224,o),
(-176,-128,o),
(-298,-128,cs),
(-422,-128,o),
(-516,-224,o),
(-516,-346,cs),
(-516,-468,o),
(-420,-564,o),
(-298,-564,cs)
);
}
);
width = 0;
}
);
unicode = 3642;
}
{
glyphname = "saraE-thai";
kernLeft = "saraE-thai";
kernRight = "saraE-thai";
layers = (
{
layerId = "B1F27B51-9973-4381-9301-4FE46FE1CA59";
shapes = (
{
closed = 1;
nodes = (
(458,-14,o),
(520,60,o),
(520,164,cs),
(520,268,o),
(458,344,o),
(372,344,cs),
(312,344,o),
(266,310,o),
(248,254,c),
(264,254,l),
(264,1174,l),
(216,1174,l),
(216,164,ls),
(216,60,o),
(282,-14,o),
(370,-14,cs)
);
},
{
closed = 1;
nodes = (
(308,30,o),
(264,86,o),
(264,164,cs),
(264,242,o),
(308,298,o),
(370,298,cs),
(432,298,o),
(474,242,o),
(474,164,cs),
(474,86,o),
(432,30,o),
(370,30,cs)
);
}
);
width = 580;
},
{
layerId = "C698F293-3EC0-4A5A-A3A0-0FDB1F5CF265";
shapes = (
{
closed = 1;
nodes = (
(524,-14,o),
(610,76,o),
(610,200,cs),
(610,324,o),
(524,414,o),
(402,414,cs),
(326,414,o),
(262,380,o),
(230,326,c),
(358,326,l),
(358,1174,l),
(186,1174,l),
(186,206,ls),
(186,78,o),
(276,-14,o),
(402,-14,cs)
);
},
{
closed = 1;
nodes = (
(356,96,o),
(320,138,o),
(320,200,cs),
(320,260,o),
(356,306,o),
(404,306,cs),
(454,306,o),
(488,262,o),
(488,200,cs),
(488,138,o),
(454,96,o),
(404,96,cs)
);
}
);
width = 658;
},
{
layerId = "5C20EF92-B63D-42A8-8878-93C2863E0093";
shapes = (
{
closed = 1;
nodes = (
(564,-18,o),
(674,82,o),
(674,232,cs),
(674,374,o),
(568,476,o),
(422,476,cs),
(350,476,o),
(288,444,o),
(266,394,c),
(520,394,l),
(520,1174,l),
(118,1174,l),
(118,250,ls),
(118,90,o),
(230,-18,o),
(402,-18,cs)
);
},
{
closed = 1;
nodes = (
(384,154,o),
(358,186,o),
(358,232,cs),
(358,278,o),
(384,312,o),
(418,312,cs),
(452,312,o),
(478,278,o),
(478,232,cs),
(478,186,o),
(452,154,o),
(418,154,cs)
);
}
);
width = 698;
}
);
unicode = 3648;
}
{
glyphname = "saraO-thai";
kernRight = "saraE-thai";
layers = (
{
layerId = "B1F27B51-9973-4381-9301-4FE46FE1CA59";
shapes = (
{
closed = 1;
nodes = (
(582,-14,o),
(644,60,o),
(644,164,cs),
(644,268,o),
(582,344,o),
(496,344,cs),
(436,344,o),
(390,310,o),
(372,254,c),
(386,254,l),
(386,1290,ls),
(386,1444,o),
(304,1532,o),
(158,1532,cs),
(46,1532,l),
(68,1512,l),
(68,1578,ls),
(68,1728,o),
(150,1816,o),
(292,1816,cs),
(378,1816,o),
(458,1784,o),
(564,1784,cs),
(628,1784,o),
(674,1794,o),
(714,1810,c),
(704,1854,l),
(664,1840,o),
(622,1830,o),
(564,1830,cs),
(474,1830,o),
(404,1862,o),
(292,1862,cs),
(124,1862,o),
(22,1760,o),
(22,1578,cs),
(22,1486,l),
(158,1486,ls),
(276,1486,o),
(340,1416,o),
(340,1290,cs),
(340,164,ls),
(340,60,o),
(406,-14,o),
(494,-14,cs)
);
},
{
closed = 1;
nodes = (
(432,30,o),
(386,86,o),
(386,164,cs),
(386,242,o),
(432,298,o),
(494,298,cs),
(556,298,o),
(598,242,o),
(598,164,cs),
(598,86,o),
(556,30,o),
(494,30,cs)
);
}
);
width = 704;
},
{
layerId = "C698F293-3EC0-4A5A-A3A0-0FDB1F5CF265";
shapes = (
{
closed = 1;
nodes = (
(628,-14,o),
(716,76,o),
(716,200,cs),
(716,324,o),
(628,414,o),
(506,414,cs),
(430,414,o),
(366,380,o),
(334,326,c),
(462,326,l),
(462,1272,ls),
(462,1450,o),
(376,1546,o),
(216,1546,cs),
(92,1546,l),
(178,1456,l),
(178,1578,ls),
(178,1688,o),
(224,1742,o),
(322,1742,cs),
(410,1742,o),
(514,1710,o),
(610,1710,cs),
(678,1710,o),
(730,1720,o),
(776,1738,c),
(750,1878,l),
(712,1866,o),
(662,1858,o),
(610,1858,cs),
(530,1858,o),
(424,1890,o),
(310,1890,cs),
(110,1890,o),
(0,1772,o),
(0,1560,cs),
(0,1408,l),
(166,1408,ls),
(250,1408,o),
(290,1358,o),
(290,1256,cs),
(290,206,ls),
(290,78,o),
(380,-14,o),
(506,-14,cs)
);
},
{
closed = 1;
nodes = (
(462,96,o),
(424,138,o),
(424,200,cs),
(424,262,o),
(462,306,o),
(510,306,cs),
(558,306,o),
(594,262,o),
(594,200,cs),
(594,138,o),
(558,96,o),
(510,96,cs)
);
}
);
width = 760;
},
{
layerId = "5C20EF92-B63D-42A8-8878-93C2863E0093";
shapes = (
{
closed = 1;
nodes = (
(718,-18,o),
(826,82,o),
(826,232,cs),
(826,374,o),
(720,476,o),
(574,476,cs),
(502,476,o),
(440,444,o),
(418,394,c),
(674,394,l),
(674,1252,ls),
(674,1428,o),
(582,1528,o),
(418,1528,cs),
(314,1528,l),
(398,1474,l),
(398,1576,ls),
(398,1618,o),
(430,1638,o),
(498,1638,cs),
(572,1638,o),
(654,1608,o),
(732,1608,cs),
(786,1608,o),
(830,1618,o),
(866,1636,c),
(866,1918,l),
(824,1904,o),
(770,1896,o),
(712,1896,cs),
(618,1896,o),
(502,1928,o),
(370,1928,cs),
(136,1928,o),
(8,1794,o),
(8,1568,cs),
(8,1340,l),
(114,1340,ls),
(218,1340,o),
(270,1290,o),
(270,1188,cs),
(270,250,ls),
(270,86,o),
(388,-18,o),
(556,-18,cs)
);
},
{
closed = 1;
nodes = (
(536,154,o),
(510,186,o),
(510,232,cs),
(510,278,o),
(536,312,o),
(570,312,cs),
(604,312,o),
(630,278,o),
(630,232,cs),
(630,186,o),
(604,154,o),
(570,154,cs)
);
}
);
width = 850;
}
);
unicode = 3650;
}
